<?xml version="1.0" encoding="UTF-8" standalone="no"?>
<!-- Created with Inkscape (http://www.inkscape.org/) -->
<svg xmlns:dc="http://purl.org/dc/elements/1.1/" xmlns:cc="http://creativecommons.org/ns#" xmlns:rdf="http://www.w3.org/1999/02/22-rdf-syntax-ns#" xmlns:svg="http://www.w3.org/2000/svg" xmlns="http://www.w3.org/2000/svg" xmlns:sodipodi="http://sodipodi.sourceforge.net/DTD/sodipodi-0.dtd" xmlns:inkscape="http://www.inkscape.org/namespaces/inkscape" id="svg2" version="1.1" inkscape:version="0.48+devel r12701" width="491.33798" height="261.42203" viewBox="0 0 491.33798 261.42203" sodipodi:docname="g.svg">

  <metadata id="metadata8">
    <rdf:RDF>
      <cc:Work rdf:about="">
        <dc:format>image/svg+xml</dc:format>
        <dc:type rdf:resource="http://purl.org/dc/dcmitype/StillImage"/>
        <dc:title>ASL letter</dc:title>
        <dc:date>11/11/2013</dc:date>
        <dc:creator>
          <cc:Agent>
            <dc:title>edited by Paul Sherman</dc:title>
          </cc:Agent>
        </dc:creator>
        <dc:rights>
          <cc:Agent>
            <dc:title>PD</dc:title>
          </cc:Agent>
        </dc:rights>
        <dc:publisher>
          <cc:Agent>
            <dc:title>WPClipart</dc:title>
          </cc:Agent>
        </dc:publisher>
        <dc:subject>
          <rdf:Bag>
            <rdf:li>sign</rdf:li>
            <rdf:li>language</rdf:li>
            <rdf:li>letter</rdf:li>
            <rdf:li>american</rdf:li>
          </rdf:Bag>
        </dc:subject>
        <cc:license rdf:resource="http://creativecommons.org/publicdomain/zero/1.0/"/>
      </cc:Work>
      <cc:License rdf:about="http://creativecommons.org/publicdomain/zero/1.0/">
        <cc:permits rdf:resource="http://creativecommons.org/ns#Reproduction"/>
        <cc:permits rdf:resource="http://creativecommons.org/ns#Distribution"/>
        <cc:permits rdf:resource="http://creativecommons.org/ns#DerivativeWorks"/>
      </cc:License>
    </rdf:RDF>
  </metadata>
  <defs id="defs6"/>
  <sodipodi:namedview pagecolor="#ffffff" bordercolor="#666666" borderopacity="1" objecttolerance="10" gridtolerance="10" guidetolerance="10" inkscape:pageopacity="0" inkscape:pageshadow="2" inkscape:window-width="1601" inkscape:window-height="1002" id="namedview4" showgrid="false" fit-margin-top="12" fit-margin-left="12" fit-margin-right="12" fit-margin-bottom="12" inkscape:zoom="2.7445765" inkscape:cx="112.76104" inkscape:cy="140.67343" inkscape:window-x="11" inkscape:window-y="29" inkscape:window-maximized="0" inkscape:current-layer="svg2"/>
  <path style="fill:#000000" d="m 413.07183,242.30305 c -4.8125,-0.912 -14.9375,-4.04021 -22.5,-6.9516 -18.63119,-7.17256 -27.04848,-9.82198 -35.42467,-11.15027 -6.52271,-1.03438 -7.17899,0.55698 -14.99491,2.68252 -7.33821,1.99563 -8.30933,1.7511 -20.625,3.06118 -7.43562,0.79097 -13.95946,-0.0836 -23.85167,-0.66291 -6.89923,-0.40404 -23.49221,-0.47196 -26.58596,-1.14715 -7.01771,-1.53157 -13.77613,-1.74638 -27.45863,-3.4517 -12.25712,-1.52767 -25.386,0.0608 -35.62257,-6.25289 -6.50213,-4.01036 -7.84703,-4.35655 -16.92488,-4.35655 -17.57291,0 -29.81332,-4.90028 -35.48846,-14.20729 -2.61144,-4.28266 -3.2839,-15.80054 -1.23685,-21.18469 1.56939,-4.12777 -1.01515,-7.62341 -7.88241,-10.66112 -12.91948,-5.7149 -18.72359,-26.48781 -11.42758,-40.89927 l 3.10142,-6.12607 -5.07147,-5.16745 c -6.39447,-6.51548 -7.94748,-12.50022 -5.57631,-21.488956 l 1.70778,-6.47386 -8.02942,-4.26364 -8.41619,-1.94292 -11.777721,3.02035 c -7.07793,1.81511 -15.9611,4.14327 -22.49235,6.4612 -11.246478,3.99137 -11.60781,4.988 -30.29715,7.30872 -15.387415,1.910706 -17.380488,-0.2536 -23.104034,-3.125 -7.930329,-3.97851 -11.217364,-9.3902 -11.089196,-18.25697 0.125057,-8.65169 3.969791,-16.23687 12.152844,-23.97606 C 33.38548,44.362215 40.374585,41.20295 64.53959,34.83638 c 19.259409,-5.074128 30.509579,-8.761655 36.31154,-11.902017 1.22139,-0.661085 12.62695,-1.805091 25.3457,-2.542235 12.71875,-0.737143 28.70099,-2.179102 35.51609,-3.204353 15.34523,-2.308507 33.65193,-2.321676 55.99863,-0.04028 18.69329,1.908414 25.20302,1.425706 41.41735,-3.071171 9.42079,-2.612758 10.15142,-2.642126 18.5494,-0.74562 14.05041,3.172983 24.78194,9.618839 37.11854,22.295107 7.87628,8.093139 16.828,15.22614 33.27499,26.514503 20.58559,14.12887 23.32592,16.45848 32.20706,27.37967 5.92456,7.28548 10.01385,13.542636 10.49438,16.057776 1.17201,6.13461 10.02891,11.30884 11.52635,14.66154 0.74192,1.66112 4.32535,1.45247 12.01485,3.93875 10.29002,3.32712 25.21325,4.96125 42.76921,11.29576 6.25607,2.2573 8.60689,0.73485 13.46468,3.59988 8.7856,5.18156 8.82281,2.54846 8.7856,5.18156 -0.0725,5.12625 -6.24259,7.31844 -12.34385,7.31844 -1.71659,0 -3.65411,-5.0782 -17.45157,-7.77111 -13.40717,-2.61672 -17.68991,-4.68303 -30.29212,-6.99336 -9.87938,-1.81115 -10.69519,-2.37441 -17.80792,-4.31774 -3.12951,-0.85504 -9.39388,-0.86737 -9.51847,-0.66349 -0.12462,0.20388 -2.06377,4.51459 -4.06956,8.20913 -5.20034,9.57869 -4.98571,7.62221 -15.42267,15.37022 -5.43033,4.03128 -9.43231,4.77806 -22.09065,3.62539 -14.55363,-1.32526 -9.94443,-1.68904 -20.89678,-4.07192 -13.28549,-2.89051 -49.42023,-24.15488 -54.00672,-31.01973 -3.06852,-4.59282 -11.73682,-9.6269 -11.73682,-8.14821 0,0.49772 0.90368,2.65248 2.00817,4.78833 1.44472,2.79378 1.86304,6.16265 1.49093,12.00669 -0.50049,7.8599 -0.34267,8.38364 4.86682,16.15236 5.88574,8.77719 6.93308,14.96215 3.61888,21.3711 -2.65161,5.12765 -13.93966,13.52284 -24.4848,18.20992 -28.78181,12.79287 -33.34004,14.98741 -35.57639,17.1281 -5.74047,5.49492 5.53807,7.93839 28.05859,9.7974 19.02352,1.57034 26.34837,0.99657 44.00248,2.82307 12.15466,1.25753 16.87389,0.65384 30.78064,0.73258 18.097,0.1025 29.1063,-5.8843 38.05983,-11.14322 5.98506,-3.51538 9.33624,-5.64333 19.01497,-5.64333 14.36638,0 0.0349,8.47503 0.0349,8.47503 l -10,4.15983 6.5378,3.64304 c 3.35987,1.87221 13.84165,4.03647 19.87308,5.64543 13.96097,3.72428 14.23534,4.77527 44.50931,12.26174 13.81078,3.41528 22.60283,3.26236 22.60283,3.26236 4.83498,-2.70676 -3.10321,7.03788 -4.06326,8.57387 -2.77155,4.42911 -27.19979,-2.93723 -41.95865,-5.73412 z M 200.31407,200.75878 c 2.1962,-1.1357 6.80889,-4.18946 10.25042,-6.78615 4.01984,-3.03301 9.52595,-5.62625 15.39825,-7.25219 5.02752,-1.39202 11.93363,-4.14331 15.34693,-6.11396 l 6.20601,-3.58302 -2.6624,-2.40944 c -3.09786,-2.80353 -6.15645,-8.31975 -6.15645,-11.10327 0,-3.0627 7.13131,-2.5679 8.12526,0.56377 0.43656,1.37546 2.73474,3.98131 5.10708,5.79077 l 4.31334,3.28995 5.91466,-3.69742 c 5.38097,-3.3638 5.88259,-4.08368 5.55921,-7.97828 -0.57016,-6.86681 -3.29919,-8.58946 -14.03861,-8.86167 -5.14577,-0.13043 -11.88719,0.48671 -14.98094,1.3714 -3.09375,0.88468 -8.45076,2.4029 -11.90446,3.37378 -3.45371,0.97089 -12.50139,2.21488 -20.10595,2.7644 -13.78681,0.99629 -13.85675,1.01773 -24.38264,7.47269 -5.80589,3.56045 -11.7853,6.47354 -13.28758,6.47354 -3.32532,0 -4.77147,2.52699 -7.05981,12.3362 -2.16522,9.2815 -1.39149,10.55357 7.99044,13.13677 13.73757,3.78249 24.56124,4.21453 30.36724,1.21213 z m -18.49224,-45.84654 c 10.62687,-4.8826 12.05322,-5.20476 25.7514,-5.81623 8.11727,-0.36236 15.2712,-1.2814 16.25,-2.08762 0.96173,-0.79215 4.18214,-2.09101 7.15646,-2.88635 l 5.40788,-1.44608 -2.1133,-3.2253 c -1.49828,-2.28667 -1.93248,-4.82962 -1.49196,-8.73789 0.75547,-6.70251 1.15908,-7.16246 5.3599,-6.10811 2.96978,0.74536 3.23189,1.25717 2.53801,4.95586 -0.57442,3.06187 -0.13496,4.93679 1.70547,7.27652 1.36359,1.73353 2.12268,3.50844 1.68687,3.94425 -0.43582,0.43582 2.09406,0.79239 5.62196,0.79239 7.08342,0 9.01703,-1.79805 8.98525,-8.35532 -0.0342,-7.0628 -1.35564,-9.02084 -8.42029,-12.47725 l -8.72991,-2.65112 -11.0297,0.98 -10.301,1.34437 -25.35457,-0.95179 c -10.35682,-0.38879 -8.72361,-0.49983 -19.27247,-0.0262 -13.95485,0.62653 -25.15539,4.05407 -30.40602,9.30471 -2.84829,2.84828 -3.01407,3.70202 -2.37073,12.20847 0.77736,10.27859 1.91158,13.11022 6.43974,16.07719 3.52905,2.31231 15.02426,4.53377 18.83701,3.64028 1.375,-0.32223 7.5625,-2.91187 13.75,-5.75477 z m 183.14029,-4.63064 c 12.06513,-2.73051 17.24203,-9.97213 17.5692,-25.79785 l 0.24345,-11.77619 -6.07392,-8.80933 c -7.8099,-11.327146 -19.14078,-21.916056 -35.54227,-33.214886 -7.19771,-4.95844 -18.71175,-13.82391 -25.58675,-19.70105 -14.05564,-12.015555 -35.57896,-27.16666 -41.25,-29.037473 -3.12687,-1.031522 -6.13865,-0.407586 -18.125,3.754872 l -14.375,4.991957 -16.875,-2.080192 c -22.83533,-2.814927 -31.48875,-2.727045 -34.27168,0.348052 -1.18752,1.312205 -3.76024,7.911306 -5.71717,14.66467 -6.21709,21.455354 -11.58375,23.190764 -38.44865,12.433103 -8.95449,-3.585695 -10.3125,-3.847935 -10.3125,-1.991399 0,2.576389 4.88368,10.00118 7.5,11.40246 1.03125,0.55233 9.1875,3.33252 18.125,6.1782 20.76431,6.61132 30.80263,7.50572 42.9227,3.82436 13.85114,-4.20716 16.49331,-7.77218 18.00506,-24.293845 0.31888,-3.484823 0.36913,-3.458576 4.80934,2.511604 2.4679,3.318276 5.46801,8.986491 6.66691,12.596021 1.1989,3.60954 3.22085,7.11994 4.49323,7.8009 4.13027,2.21046 12.87481,4.02963 25.83466,-0.33356 16.22879,-5.46375 17.37657,-4.82141 26.69808,-4.17107 10.35033,0.72211 8.95232,-0.24493 4.11872,4.17307 -2.8289,2.58566 -2.99791,4.06966 -5.89781,4.06966 -9.07809,0 -17.5846,2.41599 -20.6017,5.85124 -7.27324,8.28123 1.82945,26.527706 21.09856,42.292366 25.42786,20.80333 51.06655,29.72911 74.99254,24.31431 z M 169.55189,111.35015 c 13.41387,-0.93168 14.08805,-0.51991 26.33479,-0.9365 11.46168,-0.38988 11.04979,1.27356 21.87265,-0.23173 6.01562,-0.83668 10.9375,0.9135 10.9375,0.77203 0,-0.14147 -0.6002,-1.97894 -1.33378,-4.08327 -1.19367,-3.42419 0.11863,-16.998476 1.80647,-18.686346 0.26527,-0.26527 1.96586,-0.11 3.77908,0.34511 3.1455,0.78948 3.26,1.10457 2.49554,6.86738 -0.44067,3.32197 -0.42082,8.067636 0.0441,10.545926 0.70427,3.75411 1.25436,4.37618 3.29658,3.72801 1.34819,-0.4279 4.38363,-0.14027 6.74542,0.63919 3.10579,1.025 4.99503,1.04212 6.82672,0.0619 4.33896,-2.32214 5.34713,-5.82656 4.44763,-15.460236 l -0.83688,-8.96285 -8.50876,0.41012 c -9.80634,0.47263 -14.94895,-1.48668 -20.244,-7.71291 l -3.35691,-3.94727 -4.15203,4.01345 c -3.41856,3.30447 -6.54479,4.59008 -17.69724,7.27767 -15.38028,3.70645 -15.9302,3.66869 -38.49881,-2.64336 -8.40243,-2.35002 -16.48095,-4.27276 -17.95226,-4.27276 -5.53664,0 -10.58761,9.58741 -10.60393,20.12765 -0.009,5.578036 4.18396,11.981546 9.7968,14.963046 4.64613,2.468 0.18977,4.47234 18.24291,-2.08552 z M 64.946829,85.192514 c 44.422251,-16.08699 45.549481,-13.88296 56.074001,-12.34138 6.34664,0.92963 10.95161,3.12993 13.84524,1.29892 1.45285,-0.91933 0.93353,-2.08804 -2.72931,-6.14239 -9.07319,-10.042935 -9.3143,-20.784617 -0.75609,-33.684145 1.96138,-2.956341 3.56616,-5.533604 3.56616,-5.727253 0,-0.193647 -6.32813,0.668261 -14.0625,1.915351 -14.87398,2.39828 -30.560391,7.715341 -26.158141,8.866554 3.8333,1.00243 6.964181,12.130949 6.002211,21.334503 -0.43307,4.14343 -0.967731,7.71383 -1.188131,7.93424 -0.2204,0.2204 -2.25214,0.77101 -4.51498,1.22358 -3.68435,0.73687 -4.0329,0.56652 -3.33569,-1.63019 0.42821,-1.34917 0.86454,-5.79172 0.96963,-9.872329 0.23006,-8.933837 -3.88106,-18.604411 -7.45875,-17.54519 -1.17076,0.346618 -12.25365,3.550798 -24.62865,7.120399 -12.375,3.569603 -23.984159,7.527901 -25.798131,8.796221 -4.414613,3.086674 -10.686135,13.128079 -11.720079,18.765159 -1.735821,9.46372 4.434435,13.50602 20.64321,13.52393 8.75011,0.01 12.49989,-0.66722 21.25,-3.83598 z M 171.29259,50.144739 c 2.1495,-4.016368 8.7217,-23.920261 8.10277,-24.539195 -0.29604,-0.296044 -6.66072,0.925679 -14.14372,2.71494 -7.483,1.78926 -15.40234,3.2532 -17.59851,3.2532 -3.16361,0 -4.5075,0.843865 -6.46971,4.0625 -1.36217,2.234375 -2.32995,4.509341 -2.15064,5.055481 0.3954,1.204225 25.66289,11.753212 28.68257,11.974756 1.17894,0.0865 2.78869,-1.048262 3.57724,-2.521682 z" id="path4064" inkscape:connector-curvature="0" sodipodi:nodetypes="cssssssssssssscsscccssssssssssssssssssssscsssscsssssssssssssssssccsssscccsssscsssscssssssssssssssscssssssssscccssssssssscssssscssssssssssssssssssscsssssssssscscsscsssscsccssssssssscssssssscsssssscss"/>
</svg>