<?xml version="1.0" encoding="UTF-8" standalone="no"?>
<!-- Created with Inkscape (http://www.inkscape.org/) -->
<svg xmlns:dc="http://purl.org/dc/elements/1.1/" xmlns:cc="http://creativecommons.org/ns#" xmlns:rdf="http://www.w3.org/1999/02/22-rdf-syntax-ns#" xmlns:svg="http://www.w3.org/2000/svg" xmlns="http://www.w3.org/2000/svg" xmlns:sodipodi="http://sodipodi.sourceforge.net/DTD/sodipodi-0.dtd" xmlns:inkscape="http://www.inkscape.org/namespaces/inkscape" id="svg2" version="1.1" inkscape:version="0.48+devel r12701" width="353.41635" height="462.14465" viewBox="0 0 353.41635 462.14465" sodipodi:docname="o.svg">

  <metadata id="metadata8">
    <rdf:RDF>
      <cc:Work rdf:about="">
        <dc:format>image/svg+xml</dc:format>
        <dc:type rdf:resource="http://purl.org/dc/dcmitype/StillImage"/>
        <dc:title>ASL letter</dc:title>
        <dc:date>11/11/2013</dc:date>
        <dc:creator>
          <cc:Agent>
            <dc:title>edited by Paul Sherman</dc:title>
          </cc:Agent>
        </dc:creator>
        <dc:rights>
          <cc:Agent>
            <dc:title>PD</dc:title>
          </cc:Agent>
        </dc:rights>
        <dc:publisher>
          <cc:Agent>
            <dc:title>WPClipart</dc:title>
          </cc:Agent>
        </dc:publisher>
        <dc:subject>
          <rdf:Bag>
            <rdf:li>sign</rdf:li>
            <rdf:li>language</rdf:li>
            <rdf:li>letter</rdf:li>
            <rdf:li>american</rdf:li>
          </rdf:Bag>
        </dc:subject>
        <cc:license rdf:resource="http://creativecommons.org/publicdomain/zero/1.0/"/>
      </cc:Work>
      <cc:License rdf:about="http://creativecommons.org/publicdomain/zero/1.0/">
        <cc:permits rdf:resource="http://creativecommons.org/ns#Reproduction"/>
        <cc:permits rdf:resource="http://creativecommons.org/ns#Distribution"/>
        <cc:permits rdf:resource="http://creativecommons.org/ns#DerivativeWorks"/>
      </cc:License>
    </rdf:RDF>
  </metadata>
  <defs id="defs6"/>
  <sodipodi:namedview pagecolor="#ffffff" bordercolor="#666666" borderopacity="1" objecttolerance="10" gridtolerance="10" guidetolerance="10" inkscape:pageopacity="0" inkscape:pageshadow="2" inkscape:window-width="1132" inkscape:window-height="974" id="namedview4" showgrid="false" fit-margin-top="12" fit-margin-left="12" fit-margin-right="12" fit-margin-bottom="12" inkscape:zoom="1.03" inkscape:cx="31.045494" inkscape:cy="216.39464" inkscape:window-x="0" inkscape:window-y="0" inkscape:window-maximized="0" inkscape:current-layer="svg2"/>
  <path style="fill:#000000" d="m 153.28446,444.15116 c -6.31736,-18.42025 -2.52175,-60.06073 6.85805,-75.23757 1.38811,-2.24603 2.52385,-4.36726 2.52385,-4.71388 0,-0.3466 -2.10938,-0.98784 -4.6875,-1.42495 -6.20285,-1.05167 -16.36259,-6.80771 -19.47818,-11.03542 -2.84697,-3.86322 -4.58431,-17.23934 -2.23911,-17.23934 0.77264,0 1.41099,0.42187 1.41858,0.9375 0.007,0.51562 2.81543,4.03125 6.23966,7.8125 l 6.22589,6.875 3.13342,-3.75 c 7.80395,-9.33955 16.99909,-31.80466 19.96939,-48.78823 2.00471,-11.4626 0.8034,-21.0847 -5.52004,-44.21347 -7.92014,-28.96894 -8.37991,-33.45543 -5.22797,-51.01572 3.84258,-21.40811 3.69593,-23.22783 -2.33414,-28.9641 -6.53294,-6.21463 -6.54728,-9.28419 -0.0525,-11.23008 6.33302,-1.89741 13.8025,-8.84892 13.8025,-12.84536 0,-1.65648 -0.87018,-4.25413 -1.93374,-5.77257 -1.83782,-2.62387 -1.72934,-2.8854 2.1875,-5.27346 2.26669,-1.38196 5.13118,-2.51477 6.36555,-2.51733 4.30652,-0.009 8.38069,-5.65524 8.38069,-11.61453 0,-6.9412 0.77576,-7.64807 5.05186,-4.60321 6.14282,4.37406 10.62958,2.9667 12.48275,-3.91546 0.72147,-2.67932 1.71194,-4.86422 2.20107,-4.85533 0.48912,0.009 3.70182,4.34444 7.13932,9.63459 18.15752,27.94353 25.9408,35.34926 37.15138,35.34926 7.46718,0 12.81637,-2.60318 15.32746,-7.45909 2.95256,-5.70961 2.31556,-8.30534 -3.1369,-12.78284 -2.76819,-2.27318 -6.51538,-6.80776 -8.32708,-10.07683 -1.8117,-3.26908 -3.48476,-5.753 -3.71791,-5.51985 -0.23315,0.23315 0.0799,3.12083 0.69572,6.41708 0.78874,4.22187 2.14427,6.81017 4.58643,8.75748 4.60824,3.67447 3.46609,6.91405 -2.43764,6.91405 -7.38262,0 -8.26569,-0.84809 -8.27395,-7.94624 -0.004,-3.53581 -0.37451,-11.14409 -0.82307,-16.90727 l -0.81559,-10.47851 -7.52138,-8.040372 c -4.13675,-4.4222 -9.04452,-8.82803 -10.90616,-9.79072 -1.86163,-0.96268 -8.42994,-2.36377 -14.59622,-3.113516 -6.16629,-0.749748 -14.42308,-2.10975 -18.34843,-3.022227 -6.96459,-1.618973 -7.22846,-1.582075 -10.92405,1.52755 -3.92431,3.302093 -3.98097,3.793893 -1.55201,13.471603 l 0.87642,3.491962 -3.95987,-2.819682 c -4.4716,-3.18406 -8.19268,-9.46312 -7.17683,-12.1104 1.29988,-3.387429 -1.1579,-1.590543 -5.79609,4.23753 -2.57168,3.23141 -8.87643,11.570612 -14.01055,18.531562 -7.88142,10.68578 -12.0687,14.8402 -26.89462,26.68353 -19.58975,15.64881 -28.041408,24.42034 -33.586178,34.85734 -5.95611,11.21121 -16.61085,38.97667 -15.86217,41.33557 0.37526,1.18235 1.21063,9.11006 1.85637,17.61714 2.21113,29.12984 -2.11533,63.03485 -12.3586,96.85015 -4.30296,14.20502 -42.537909,116.26396 -44.668127,119.23075 -0.469064,0.65327 -7.836528,-2.45075 -8.547553,-3.60123 -0.312709,-0.50596 1.069204,-3.94835 3.070916,-7.64973 2.001711,-3.70139 6.132008,-13.47979 9.178434,-21.72979 3.046428,-8.25 8.147873,-21.07796 11.336544,-28.5066 3.188671,-7.42863 8.925269,-23.17862 12.747995,-35 3.822726,-11.82136 7.757691,-23.34061 8.744361,-25.59831 0.98667,-2.2577 1.8043,-7.8827 1.81695,-12.5 0.0165,-6.02499 1.20424,-12.10054 4.20704,-21.52009 6.13258,-19.23738 6.52818,-28.49395 2.72449,-63.75 -7.08101,-65.63316 -6.97776,-64.25 -5.61489,-75.22164 2.38038,-19.16309 6.94429,-25.26936 29.30166,-39.2041 8.09989,-5.04844 10.702648,-6.00085 18.916708,-6.92202 5.2385,-0.58747 9.63215,-1.22768 9.76368,-1.42269 0.13152,-0.195 2.08287,-3.729552 4.33635,-7.854552 10.15022,-18.580047 41.1607,-54.987456 53.67778,-63.019649 7.14942,-4.587766 13.14654,-6.048545 15.79796,-3.848064 1.57827,1.309848 4.1132,0.09855 15.36982,-7.34437 7.41391,-4.902105 14.78811,-8.912917 16.38711,-8.912917 1.59899,0 6.35584,2.069552 10.57078,4.599004 9.39548,5.63839 72.50648,47.001456 73.06661,47.88799 0.2217,0.350903 4.1592,11.30158 8.75,24.334836 l 8.3469,23.696832 6.25,2.21381 c 8.25893,2.92539 10.625,5.98027 10.625,13.71808 0,7.77966 -2.19176,12.023 -9.38677,18.1731 -5.08988,4.35069 -6.23152,6.37722 -10.63477,18.8779 -4.90439,13.92336 -4.93139,14.10296 -4.6897,31.18872 0.1885,13.32542 -0.19818,18.1771 -1.7218,21.60358 -2.82268,6.34795 -16.6225,18.45656 -36.05941,31.64026 l -16.86746,11.44089 -15.63254,29.55962 c -17.56938,33.22199 -19.4678,36.28794 -28.77489,46.47137 -8.39401,9.1844 -18.891,16.67677 -32.79725,23.40953 -12.52724,6.06512 -16.52909,10.76161 -21.20136,24.88145 -2.31154,6.98558 -2.7454,11.43554 -2.9755,30.51862 -0.24669,20.45943 -1.73803,32.35163 -4.25186,33.90529 -0.49522,0.30605 -1.90758,-2.38032 -3.13859,-5.96972 z m 31.6202,-94.0044 c 8.26374,-3.84717 18.93086,-12.01362 27.35482,-20.94206 4.88703,-5.17969 9.12038,-12.16906 17.31807,-28.59259 5.96746,-11.95541 13.85269,-26.2756 17.52271,-31.82263 9.12709,-13.79505 22.48489,-26.22893 34.42931,-32.04792 10.82909,-5.27562 16.62633,-11.00815 21.77527,-21.5322 3.46652,-7.08532 3.5061,-7.41143 2.13902,-17.62881 -1.27965,-9.56402 -1.15115,-11.31305 1.5814,-21.52367 5.06676,-18.93287 9.02244,-27.37655 15.25731,-32.56787 7.22984,-6.01976 10.86845,-11.88778 9.86079,-15.90263 -1.09446,-4.3607 -3.5078,-3.83043 -6.31826,1.38831 -4.07035,7.55817 -8.63767,10.52531 -16.20158,10.52531 l -6.60102,0 -0.78718,7.53135 c -0.92839,8.88226 -3.06867,13.48401 -8.3309,17.91187 -5.24722,4.41525 -11.97779,6.06013 -19.24319,4.7028 -6.89093,-1.28737 -7.20767,-0.96817 -12.59957,12.69694 l -3.34124,8.46796 4.36993,7.9501 c 6.38733,11.62034 6.66855,16.98898 0.88986,16.98898 -3.29941,0 -4.08628,-0.83839 -7.5,-7.99121 -2.09761,-4.39516 -3.81385,-8.86197 -3.81385,-9.92623 0,-3.86596 -2.9322,-3.52709 -13.10715,1.51479 -19.05208,9.44067 -22.42343,17.15479 -12.71803,29.10056 2.98365,3.6724 6.01094,7.80209 6.72729,9.17709 1.62034,3.11012 0.0933,7.50436 -3.22519,9.28031 -2.22348,1.18998 -3.66456,-0.48011 -14.75801,-17.10336 C 208.82362,219.6698 201.37093,209.23967 199.02375,206.6239 195.31342,202.48899 179.71855,192 177.28115,192 c -0.47564,0 -0.87443,1.26562 -0.88621,2.8125 -0.0112,1.54687 -1.12714,7.03125 -2.47858,12.1875 -3.292,12.56025 -3.12504,19.88326 0.78771,34.55065 1.80824,6.7784 4.65074,17.38685 6.31665,23.57435 6.83865,25.39987 1.22855,56.06001 -14.4941,79.21264 -2.81065,4.13885 -5.11026,7.8373 -5.11026,8.21877 0,0.38148 3.79688,0.68809 8.4375,0.68138 6.3243,-0.009 10.09383,-0.78332 15.0508,-3.09103 z m 52.92465,-164.36347 c 3.00412,-1.36311 7.17854,-2.49074 9.27646,-2.50584 3.39699,-0.0245 4.11144,-0.73047 6.52859,-6.4517 2.93661,-6.95077 2.73161,-8.57575 -1.08193,-8.57575 -8.40462,0 -17.77755,-7.50869 -31.2367,-25.02384 -8.51128,-11.07621 -11.13508,-13.69883 -13.71715,-13.71105 -4.28278,-0.0203 -13.11321,5.77653 -19.61972,12.87952 -4.61086,5.03356 -5.3125,6.54563 -5.3125,11.44885 0,4.69147 -0.73553,6.46346 -4.33806,10.45103 l -4.33805,4.8017 1.28558,7.98277 c 0.70707,4.39051 1.4615,8.15867 1.67653,8.37368 0.21501,0.21502 1.87267,-0.28418 3.6837,-1.10933 2.96287,-1.34999 3.94959,-1.04618 9.84902,3.03253 3.60595,2.49305 10.21253,7.8707 14.68128,11.95033 l 8.125,7.4175 9.53795,-9.24101 c 5.24587,-5.08255 11.99587,-10.35628 15,-11.71939 z m -163.912948,0.67662 c 0,-0.9034 3.58229,-8.88582 7.96065,-17.73872 l 7.96064,-16.09619 19.851858,-16.22549 c 26.96249,-22.03721 35.88799,-31.22852 44.59754,-45.925652 12.41892,-20.956632 18.41442,-23.153101 45.42881,-16.642989 7.86605,1.895615 16.80239,3.169129 22.23801,3.169129 12.46079,0 15.66597,2.558237 31.33749,25.012352 12.45151,17.84049 20.10717,27.48765 21.81327,27.48765 0.49355,0 0.72784,-6.80564 0.52064,-15.12365 -0.34717,-13.93754 -0.68847,-15.799992 -4.35177,-23.747642 -3.69058,-8.006799 -4.6552,-9.056601 -13.4786,-14.668702 -13.57427,-8.633884 -30.4974,-17.96655 -50.51209,-27.856092 l -17.37899,-8.587207 -3.61874,2.576764 c -1.9903,1.417219 -3.61872,2.773076 -3.61872,3.013013 0,0.239938 1.10501,3.014135 2.45557,6.164883 1.35058,3.150747 2.17155,5.728631 1.82439,5.728631 -1.93061,0 -8.08277,-5.859746 -9.34076,-8.896793 -1.2063,-2.912243 -1.87419,-3.324573 -3.75484,-2.318081 -4.01861,2.1507 -23.12434,25.552308 -38.49785,47.154014 -18.17724,25.541302 -23.21384,31.443622 -44.599358,52.265452 -20.40548,19.86761 -22.42536,23.4284 -20.36005,35.89211 0.75917,4.58147 1.86239,8.032 2.45161,7.66785 0.58921,-0.36415 1.07129,-1.40124 1.07129,-2.30464 z M 287.1621,156.37442 c 4.21632,-2.70406 5.91113,-8.22127 4.32963,-14.09451 -1.46986,-5.45864 -3.60925,-6.94551 -8.2997,-5.76829 -2.39936,0.6022 -3.02567,1.57399 -3.02567,4.69464 0,5.90454 -2.09833,12.07288 -5.28265,15.52915 l -2.84235,3.08509 6.25,-0.88266 c 3.4375,-0.48545 7.42934,-1.639 8.87074,-2.56342 z M 92.021822,130.83685 C 100.26107,122.53909 106.28554,115.75 105.40952,115.75 c -2.56714,0 -11.509238,4.87301 -20.054108,10.92851 -8.71322,6.17481 -15.18905,14.97948 -15.18905,20.65133 l 0,3.5904 3.4375,-2.49827 c 1.89063,-1.37405 10.17871,-9.28735 18.41796,-17.58512 z M 316.10386,130.4164 c 0.85937,-0.67237 1.5625,-2.00404 1.5625,-2.95923 0,-1.32263 -1.17807,-1.54833 -4.94099,-0.94662 -9.08747,1.45315 -10.53046,0.38129 -13.17151,-9.78384 -2.92555,-11.26015 -2.92424,-11.27578 1.776,-21.223862 l 3.84894,-8.14629 -2.19372,-5.96999 c -2.91362,-7.929102 -12.47192,-16.494323 -29.87741,-26.773224 -7.46147,-4.40641 -20.03506,-12.632942 -27.94131,-18.281185 -7.90625,-5.648241 -15.64063,-10.922162 -17.1875,-11.719825 -3.27874,-1.690715 -4.72001,-1.083458 -15.6392,6.589307 l -7.20171,5.060538 28.54182,14.431409 c 15.698,7.937276 31.48481,16.679569 35.0818,19.427319 8.74474,6.680129 12.87539,13.523484 18.28459,30.292603 8.17475,25.34261 19.74501,37.28924 29.0577,30.00289 z m -29.75734,-2.4789 c -0.0384,-0.85938 -1.17664,-4.09375 -2.52939,-7.1875 l -2.45953,-5.625 0.7761,6.25 c 0.42685,3.4375 1.03576,6.67187 1.35315,7.1875 0.93141,1.51319 2.93566,1.07515 2.85967,-0.625 z m 26.87793,-12.609 c 2.11358,-1.5455 2.14927,-2.08142 0.47328,-7.10937 -0.99693,-2.99084 -2.40357,-5.63486 -3.12583,-5.87562 -2.09462,-0.6982 -4.4808,6.57999 -3.54868,10.82393 0.91409,4.16178 2.64171,4.76383 6.20123,2.16106 z" id="path4068" inkscape:connector-curvature="0"/>
</svg>