<?xml version="1.0" encoding="UTF-8" standalone="no"?>
<!-- Created with Inkscape (http://www.inkscape.org/) -->
<svg xmlns:dc="http://purl.org/dc/elements/1.1/" xmlns:cc="http://creativecommons.org/ns#" xmlns:rdf="http://www.w3.org/1999/02/22-rdf-syntax-ns#" xmlns:svg="http://www.w3.org/2000/svg" xmlns="http://www.w3.org/2000/svg" xmlns:sodipodi="http://sodipodi.sourceforge.net/DTD/sodipodi-0.dtd" xmlns:inkscape="http://www.inkscape.org/namespaces/inkscape" id="svg2" version="1.1" inkscape:version="0.48+devel r12701" width="305.11099" height="469.89334" viewBox="0 0 305.11099 469.89334" sodipodi:docname="n.svg">

  <metadata id="metadata8">
    <rdf:RDF>
      <cc:Work rdf:about="">
        <dc:format>image/svg+xml</dc:format>
        <dc:type rdf:resource="http://purl.org/dc/dcmitype/StillImage"/>
        <dc:title>ASL letter</dc:title>
        <dc:date>11/11/2013</dc:date>
        <dc:creator>
          <cc:Agent>
            <dc:title>edited by Paul Sherman</dc:title>
          </cc:Agent>
        </dc:creator>
        <dc:rights>
          <cc:Agent>
            <dc:title>PD</dc:title>
          </cc:Agent>
        </dc:rights>
        <dc:publisher>
          <cc:Agent>
            <dc:title>WPClipart</dc:title>
          </cc:Agent>
        </dc:publisher>
        <dc:subject>
          <rdf:Bag>
            <rdf:li>sign</rdf:li>
            <rdf:li>language</rdf:li>
            <rdf:li>letter</rdf:li>
            <rdf:li>american</rdf:li>
          </rdf:Bag>
        </dc:subject>
        <cc:license rdf:resource="http://creativecommons.org/publicdomain/zero/1.0/"/>
      </cc:Work>
      <cc:License rdf:about="http://creativecommons.org/publicdomain/zero/1.0/">
        <cc:permits rdf:resource="http://creativecommons.org/ns#Reproduction"/>
        <cc:permits rdf:resource="http://creativecommons.org/ns#Distribution"/>
        <cc:permits rdf:resource="http://creativecommons.org/ns#DerivativeWorks"/>
      </cc:License>
    </rdf:RDF>
  </metadata>
  <defs id="defs6"/>
  <sodipodi:namedview pagecolor="#ffffff" bordercolor="#666666" borderopacity="1" objecttolerance="10" gridtolerance="10" guidetolerance="10" inkscape:pageopacity="0" inkscape:pageshadow="2" inkscape:window-width="1091" inkscape:window-height="956" id="namedview4" showgrid="false" fit-margin-top="12" fit-margin-left="12" fit-margin-right="12" fit-margin-bottom="12" inkscape:zoom="0.97531385" inkscape:cx="160.64216" inkscape:cy="276.928" inkscape:window-x="0" inkscape:window-y="0" inkscape:window-maximized="0" inkscape:current-layer="svg2"/>
  <path style="fill:#000000" d="m 87.067925,454.49707 c 0,0 -3.052439,-1.43258 -1.400189,-3.93588 6.59591,-9.99337 2.862417,-12.23725 1.998397,-39.27956 l -0.79594,-24.91236 -5.598124,-4.57813 C 73.44312,375.38866 63.481852,366.98039 58.350846,354.29403 52.392796,339.56282 48.311113,339.95156 44.504433,325.22035 40.065623,308.0429 38.742725,301.97248 35.940797,289.94398 32.79829,276.4534 29.433896,253.26575 24.51462,211.19398 c -3.17294,-27.13636 -4.237683,-32.89546 -8.088512,-43.75 -9.0200709,-25.42536 -4.528761,-39.28066 16.010926,-49.39231 4.804068,-2.36504 8.279279,-4.87596 8.279279,-5.98196 0,-1.04835 1.373941,-4.25054 3.053204,-7.11599 4.016139,-6.853022 12.60844,-11.357722 34.838496,-18.264837 16.40924,-5.098525 17.7907,-5.788829 27.818107,-13.900497 5.80327,-4.694551 11.99174,-9.083165 13.75216,-9.752477 5.52218,-2.099525 17.05644,-1.447875 22.37595,1.26417 2.6766,1.364605 5.0846,2.263038 5.35113,1.996518 0.26652,-0.266521 -0.29707,-9.417354 3.47574,-19.043601 11.07764,-28.264387 11.46662,-27.013909 20.67726,-32.475622 13.10969,-7.7737737 21.87339,-3.943088 31.15795,0.776124 12.36112,6.282981 16.2055,11.299725 16.29587,21.265484 l 0.0624,6.875 5.88337,-6.494943 c 7.10617,-7.844867 16.58922,-12.880061 24.25767,-12.880061 11.71504,0 33.25645,14.571877 36.70529,43.870938 1.11381,9.462121 5.2956,25.511411 -1.94263,70.175304 -2.25765,13.93096 -3.34944,29.90787 -3.34944,29.90787 -2.22279,21.37306 -6.10178,47.08771 -13.44409,92.35878 -3.77653,23.28526 -4.21494,33.65563 -6.96354,40.46047 -4.91908,12.17844 -9.15593,19.87247 -21.62793,33.48781 -8.61473,9.40446 -11.49007,9.36027 -13.4465,14.59721 -1.44171,3.85913 -3.35326,7.86037 -4.2479,8.89162 -2.21068,2.54827 -0.59255,15.09645 4.35219,33.75 6.56706,24.77364 10.16288,41.5563 9.10709,42.50535 -0.55926,0.50274 -2.7999,1.24661 -4.97918,1.65306 l -3.96232,0.73901 -2.47486,-10.88621 c -1.36119,-5.98741 -4.90395,-22.55809 -7.87282,-36.82371 -3.49577,-16.79747 -5.94073,-25.9375 -6.93828,-25.9375 -0.8472,0 -7.04503,1.99261 -13.77297,4.42802 -13.48847,4.88263 -6.36779,0.0103 -15.33903,-2.70735 l 1.70598,-1.30758 6.59461,-2.94644 c 31.44238,-14.04828 24.54849,-10.13206 37.51549,-21.13098 13.83257,-11.73312 19.73994,-14.16056 23.88192,-30.04554 l 7.35416,-28.20408 3.7285,-20.86202 c 6.47836,-36.24834 12.34788,-76.99549 14.80576,-115.513 0.65778,-10.30809 1.7498,-23.57664 3.16193,-30.2332 4.04692,-19.076632 4.87586,-45.625093 1.35666,-43.450108 -0.56062,0.346482 -4.21963,12.691339 -4.6252,22.174107 -0.86344,20.188591 -1.30983,3.923096 -8.57106,38.967451 -0.88945,4.29268 -6.11265,10.83065 -8.05789,16.04495 -5.44415,14.59318 -12.3713,25.1255 -21.95895,33.38723 -4.84606,4.17587 -5.01324,4.21729 -13.96695,3.46043 -13.13496,-1.11031 -17.97326,-3.46356 -24.56008,-11.94549 l -5.6089,-7.22265 -7.23985,0.60038 c -4.40115,0.36498 -11.8458,-0.30524 -18.98691,-1.70933 -10.9712,-2.15717 -12.06547,-2.65515 -16.56786,-7.53967 -6.4029,-6.94632 -7.27809,-12.90154 -4.54491,-30.92577 1.14185,-7.5301 1.9017,-13.86549 1.68855,-14.07864 -0.21317,-0.21316 -4.78799,2.12048 -10.1663,5.18587 -5.37832,3.06537 -10.1359,5.56422 -10.57242,5.55298 -0.91211,-0.0235 -12.82237,-16.61248 -15.15,-21.1014 -1.19886,-2.312052 -1.2269,-4.088412 -0.12262,-7.773922 1.11824,-3.73235 -0.82963,-6.348826 6.46488,-11.96381 9.52817,-7.334379 15.25968,-9.14044 11.53372,-9.14044 -7.11676,0 -18.97783,9.872189 -24.22981,20.16694 -6.305537,12.359862 2.80438,29.725852 24.56879,46.834802 8.16262,6.41662 20.92839,20.50331 25.2638,27.87792 3.0414,5.1735 3.42059,7.17609 3.8098,20.12034 0.25121,8.35514 -0.40312,21.20117 -1.5625,30.67541 -5.1292,41.91465 -0.32133,61.0106 20.72614,82.32016 8.65309,8.76084 11.02913,11.92997 11.02913,14.71045 0,3.40923 -0.23261,3.54398 -6.1178,3.54398 -4.96729,0 -6.79533,-0.64646 -9.72041,-3.4375 -10.53453,-10.05173 -17.65763,-22.24411 -24.48453,-41.90936 -3.85925,-11.1168 -4.00295,-12.25284 -4.02715,-31.83883 -0.0139,-11.17089 -0.21952,-20.31151 -0.45715,-20.3125 -0.23762,-10e-4 -2.03749,1.14138 -3.99971,2.5386 -7.07691,5.0392 -16.55457,5.36029 -20.41508,4.51238 -5.26739,-1.15691 -14.52817,-4.11154 -14.52817,-6.98687 0,-4.2021 -2.01071,-3.87097 -4.18533,0.68924 -1.554007,3.25879 -3.803727,5.17931 -8.684707,7.4139 -13.92118,6.37333 -25.58662,3.38863 -33.990743,-8.69684 -4.178845,-6.00933 -17.457825,-18.22222 -19.812889,-18.22222 -0.60159,0 -0.710762,0.98437 -0.242605,2.1875 0.468157,1.20312 1.350672,10.34375 1.961143,20.3125 1.112498,18.1666 3.86338,36.86924 8.646098,58.78286 1.40747,6.4488 2.559036,11.98705 2.559036,11.98705 0.143369,0.0144 1.590724,8.06621 3.938463,14.98627 6.215751,18.3212 9.335717,17.36709 14.759857,35.85619 5.644,19.23856 14.033182,20.46462 17.547302,23.64604 5.015,4.54019 11.703608,5.80169 24.521755,7.97693 18.06409,3.06547 13.631,5.58133 6.08775,9.05119 -4.06131,1.86819 -4.37709,0.89966 -10.21657,1.22632 l -8.986437,0.50271 0.23644,26.49524 0.23644,26.49524 -3.78325,7.43447 c -3.70395,7.27865 -1.750068,7.44225 -7.270168,7.80462 -3.10106,0.20357 7.888362,-2.8685 -0.71997,-3.31704 z m 2.660838,-236.8559 c 5.01497,-5.84365 6.39434,-10.00246 5.43635,-16.39074 -0.57156,-3.81145 -2.129795,-6.3454 -4.20701,-8.60202 C 73.428251,173.6045 79.645477,180.76705 62.696859,154.39484 56.621623,144.94171 41.185114,129.31898 40.664291,129.31898 c -1.994324,0 -14.326925,10.14087 -15.83656,13.02211 -2.654557,5.0664 2.256317,23.32799 11.120541,41.35289 4.540112,9.23206 7.733812,12.75411 12.517869,13.80487 4.74384,1.04192 10.859535,6.44362 15.364552,13.57074 1.95865,3.09866 4.02792,5.34547 4.5984,4.99289 0.57047,-0.35258 1.03722,-3.9105 1.03722,-7.90651 0,-6.63873 0.40925,-7.72664 4.74429,-12.61162 l 4.7443,-5.34614 6.5154,2.16406 c 5.79643,1.92526 7.79102,4.45671 3.51155,4.45671 -4.16817,0 -13.127,7.824 -16.56286,14.4648 -3.52079,6.80498 -3.53793,6.93874 -1.07768,8.41256 3.27638,1.96274 9.36085,3.15656 12.5,2.45263 1.375,-0.30834 4.02435,-2.33684 5.88745,-4.5078 z m 40.769457,-0.711 c 4.5887,-2.68884 10.59309,-6.84298 13.34309,-9.23139 l 5,-4.34259 0,-10.4561 c 0,-5.75086 -0.46251,-12.12218 -1.0278,-14.15851 -0.64836,-2.33558 -8.97245,-11.79558 -22.54805,-25.625 -11.83615,-12.05743 -19.68623,-24.7351 -21.82706,-28.1726 -3.621548,-5.81509 -10.018677,-13.65143 -12.372127,-24.49009 l -0.97496,-4.490092 -15,5.527842 c -17.006646,6.26734 -21.875,9.86447 -21.875,16.16303 0,2.54307 2.744081,9.5049 7.17516,18.20362 6.46474,12.69105 13.533083,12.91671 22.24387,30.42781 12.218321,24.56223 17.606797,30.40718 29.248327,43.75499 10.87869,12.47316 5.66429,14.47755 18.61455,6.88908 z m -19.43256,-12.51348 c -1.88021,-3.51322 1.21131,-8.72853 4.02031,-12.2996 2.83348,-3.60216 14.94922,-14.67181 17.31318,-14.67181 2.13719,0 15.51956,3.61441 15.51956,5.45146 0,0.98304 -2.03738,2.25944 -5.41805,1.93704 -4.80265,-0.45802 -12.3965,0.86804 -18.78996,7.4689 -3.7377,3.85896 -6.41942,8.58204 -6.72483,8.58204 -0.30541,0 -2.78873,4.15827 -2.78873,4.15827 z M 235.7634,166.77064 c 4.04432,-4.15215 6.74432,-8.3051 7.92358,-12.1875 0.98385,-3.23904 5.98895,-11.37968 9.39828,-18.97546 4.93566,-10.99636 8.49995,-9.84686 12.74461,-42.509092 3.57432,-8.986511 3.70455,-25.110574 3.28916,-30.06716 l -0.99205,-11.83745 -7.76783,-7.133123 c -8.67983,-7.970592 -12.48511,-8.929343 -19.19693,-4.836712 -4.63505,2.826293 -6.11705,4.77967 -14.29734,18.844835 -10.87587,18.699966 -14.19131,30.616594 -15.47596,55.625002 -0.50521,9.83531 -2.8365,18.16442 -4.98181,26.57591 -3.00515,11.7828 -2.20128,14.62775 -0.72355,20.78758 1.35147,5.63356 2.3327,7.12626 6.13331,9.33028 3.02081,1.75183 6.73235,2.63334 11.16809,2.65252 6.34853,0.0274 6.91619,-0.25108 12.77844,-6.26963 z m 4.46824,-20.45117 c 0,0 1.1934,-1.31779 2.57203,-4.05861 3.48695,-6.93239 -1.85709,-11.32929 -5.41461,-14.12763 -4.4326,-3.48668 -8.69589,-4.43283 -12.38995,-2.74969 -2.72162,1.24006 -3.73048,1.68299 -7.41685,7.3429 -2.4183,3.71298 -0.0264,4.61624 -1.93967,7.83995 -9.69404,-5.53761 -8.06145,2.95757 -6.82621,-4.69681 0.29819,-1.88268 5.89015,-7.34752 6.30283,-10.61314 0.41266,-3.26563 0.96965,-5.9375 1.23772,-5.9375 0.26809,0 3.73463,-0.84579 7.70343,-1.87953 8.86792,-2.30979 13.1714,-1.16998 19.24608,5.0975 3.50934,3.62073 4.28084,5.36985 4.26264,9.66396 -0.022,5.19074 5.24504,17.74437 -3.1356,17.74437 -0.58719,0 -0.3486,-0.89572 -1.38349,-2.37322 z m -54.03708,8.0553 c 6.99855,-2.66084 12.66902,-18.41414 14.42264,-40.06792 0.8253,-10.1908 2.79795,-21.023252 6.19726,-34.031098 8.00397,-30.628148 8.10167,-41.561748 0.43545,-48.73289 -6.48081,-6.062294 -11.3546,-7.711826 -22.99544,-7.782806 -14.18061,-0.08646 -17.2531,1.902207 -19.3994,12.556333 -2.49141,12.36724 -5.38876,42.283433 -5.38876,55.641009 0,6.94415 -0.81416,15.800662 -1.80926,19.681152 -2.75629,10.74851 -5.83803,31.49716 -5.04793,33.98654 0.7656,2.4122 1.16401,2.62343 13.10719,6.94868 8.6754,3.14181 15.39686,3.73295 20.47825,1.801 z m -25.77948,-35.91467 3.43705,-4.76612 9.18887,-0.36992 c 10.67797,-0.42987 19.38758,5.97673 22.16508,12.62422 3.26031,7.80302 0.37083,6.70463 -8.51899,2.67378 -10.51685,-4.76856 -17.86317,-7.86475 -23.80382,-2.96798 l -6.84468,2.58252 2.81077,-6.95817 z m -21.88627,-13.48162 c 4.97226,-2.99829 7.1875,-3.79055 7.1875,-2.57056 0,0.96993 0.5625,2.11116 1.25,2.53606 0.80315,0.49637 1.25,-3.93976 1.25,-12.409452 l 0,-13.182 -4.52765,-1.891775 c -6.1739,-2.579619 -6.76608,-2.422899 -5.96573,1.578845 0.60017,3.000829 -3.25471,9.486865 -3.50442,5.472769 -0.57776,-9.287494 -11.00635,1.230652 -13.24525,3.239129 -4.80033,4.306303 -0.51648,13.061284 3.58378,18.273914 3.38481,4.30309 5.34276,4.15638 13.97177,-1.04693 z" id="path4064" inkscape:connector-curvature="0" sodipodi:nodetypes="csscssssssssssssscsssscssssssssssscscssssscssscsssssssssscsssscscscssssssssssssscssssssssssssssssscccsscsssssssssssscsssssssscssssscsssssscssssssccssscscssssssssscssssccssssssccsssssssssssccsssscccsssscssssss"/>
</svg>