<?xml version="1.0" encoding="UTF-8" standalone="no"?>
<!-- Created with Inkscape (http://www.inkscape.org/) -->
<svg xmlns:dc="http://purl.org/dc/elements/1.1/" xmlns:cc="http://creativecommons.org/ns#" xmlns:rdf="http://www.w3.org/1999/02/22-rdf-syntax-ns#" xmlns:svg="http://www.w3.org/2000/svg" xmlns="http://www.w3.org/2000/svg" xmlns:sodipodi="http://sodipodi.sourceforge.net/DTD/sodipodi-0.dtd" xmlns:inkscape="http://www.inkscape.org/namespaces/inkscape" id="svg2" version="1.1" inkscape:version="0.48+devel r12701" width="283.49774" height="511.26077" viewBox="0 0 283.49774 511.26077" sodipodi:docname="k.svg">

  <metadata id="metadata8">
    <rdf:RDF>
      <cc:Work rdf:about="">
        <dc:format>image/svg+xml</dc:format>
        <dc:type rdf:resource="http://purl.org/dc/dcmitype/StillImage"/>
        <dc:title>ASL letter</dc:title>
        <dc:date>11/11/2013</dc:date>
        <dc:creator>
          <cc:Agent>
            <dc:title>edited by Paul Sherman</dc:title>
          </cc:Agent>
        </dc:creator>
        <dc:rights>
          <cc:Agent>
            <dc:title>PD</dc:title>
          </cc:Agent>
        </dc:rights>
        <dc:publisher>
          <cc:Agent>
            <dc:title>WPClipart</dc:title>
          </cc:Agent>
        </dc:publisher>
        <dc:subject>
          <rdf:Bag>
            <rdf:li>sign</rdf:li>
            <rdf:li>language</rdf:li>
            <rdf:li>letter</rdf:li>
            <rdf:li>american</rdf:li>
          </rdf:Bag>
        </dc:subject>
        <cc:license rdf:resource="http://creativecommons.org/publicdomain/zero/1.0/"/>
      </cc:Work>
      <cc:License rdf:about="http://creativecommons.org/publicdomain/zero/1.0/">
        <cc:permits rdf:resource="http://creativecommons.org/ns#Reproduction"/>
        <cc:permits rdf:resource="http://creativecommons.org/ns#Distribution"/>
        <cc:permits rdf:resource="http://creativecommons.org/ns#DerivativeWorks"/>
      </cc:License>
    </rdf:RDF>
  </metadata>
  <defs id="defs6"/>
  <sodipodi:namedview pagecolor="#ffffff" bordercolor="#666666" borderopacity="1" objecttolerance="10" gridtolerance="10" guidetolerance="10" inkscape:pageopacity="0" inkscape:pageshadow="2" inkscape:window-width="1015" inkscape:window-height="993" id="namedview4" showgrid="false" fit-margin-top="12" fit-margin-left="12" fit-margin-right="12" fit-margin-bottom="12" inkscape:zoom="0.98788059" inkscape:cx="154.32985" inkscape:cy="239.48157" inkscape:window-x="0" inkscape:window-y="0" inkscape:window-maximized="0" inkscape:current-layer="svg2"/>
  <path style="fill:#000000" d="m 72.175212,497.66456 c -3.505575,-1.77358 -3.429714,-1.40888 -6.98858,-33.59741 l -2.165609,-19.58708 -5.113595,-3.6176 c -5.148727,-3.64246 -7.678866,-6.95832 -16.207167,-21.24023 -5.078779,-8.50516 -7.839095,-16.27615 -11.888115,-33.46802 -5.56729,-23.63835 -15.379189,-68.93969 -15.838277,-73.125 -3.129666,-28.53188 -3.006639,-29.96735 3.814857,-44.51176 l 4.167993,-8.88677 14.556627,-7.07893 c 16.591397,-8.06848 17.255507,-8.92112 18.677455,-23.9796 0.458698,-4.85764 1.653905,-11.5564 2.656013,-14.88617 1.00211,-3.32975 1.822018,-7.40578 1.822018,-9.05785 0,-4.40618 5.564605,-15.42328 10.16863,-20.13239 5.80299,-5.93544 17.20367,-12.22607 24.00646,-13.24622 l 5.89596,-0.88415 -0.74619,-40.85557 c -0.72251,-39.55934 -3.1571,-78.080755 -5.58415,-88.355594 -3.0676,-12.986555 -0.58029,-20.27618 8.475528,-24.839494 7.96702,-4.014653 13.00262,-4.952396 21.13666,-3.936115 6.24956,0.78083 7.4292,1.469865 13.59397,7.940318 3.71282,3.89691 6.76239,7.752888 6.77685,8.568841 0.0145,0.815953 3.04784,12.909702 6.74087,26.875 4.89238,18.500768 7.82141,33.193569 10.79312,54.141454 2.2432,15.8125 4.23529,28.93554 4.42688,29.16229 0.19158,0.22676 2.50655,-0.72103 5.14437,-2.1062 2.63783,-1.38517 9.92685,-3.69017 16.19787,-5.12222 10.79427,-2.46498 15.47317,-2.44235 15.47317,0.0749 0,0.61394 0.84375,1.11626 1.875,1.11626 1.03125,0 1.875,-0.14856 1.875,-0.33015 0,-0.18157 1.1349,-3.41595 2.52201,-7.1875 1.50223,-4.08454 2.77863,-11.40635 3.15663,-18.10735 1.93152,-34.241161 3.40563,-45.651595 7.3136,-56.611119 3.66791,-10.28634 4.19402,-11.049725 9.50776,-13.795569 10.26662,-5.305217 25.57807,-1.992479 34.59401,7.48465 7.73706,8.132852 8.48603,12.087056 8.48491,44.797036 -5.5e-4,16.156252 -0.69406,35.000002 -1.54115,41.875002 -0.84708,6.875 -2.39557,20.09375 -3.4411,29.375 -2.39933,21.2994 -5.02017,42.41172 -7.06035,56.875 -0.93016,6.59423 -1.65031,25.476 -1.7401,45.625 -0.0881,19.78049 -0.78745,38.35533 -1.64706,43.75 -1.13524,7.12434 -1.16792,15.8533 -0.13619,36.35993 2.34073,46.52352 -0.58011,59.17518 -17.45705,75.61557 l -6.47322,6.30578 2.11689,5.29065 c 2.19882,5.49537 2.19725,5.79752 -0.23025,44.28661 -0.74655,11.83697 -0.88622,12.29284 -4.30838,14.0625 -1.94525,1.00594 -3.93417,1.82896 -4.41982,1.82896 -0.48567,0 -0.54135,-11.89701 -0.12375,-26.4378 0.61923,-21.56245 0.42486,-27.2381 -1.05405,-30.77765 -3.37817,-8.08506 -2.49698,-11.418 4.85453,-18.36165 7.91007,-7.4712 13.31185,-15.22904 16.57049,-23.7979 2.15011,-5.65391 2.3895,-10.18417 2.50996,-47.5 0.0881,-27.31321 0.61774,-42.72536 1.56743,-45.61675 0.78885,-2.40171 1.43427,-4.51109 1.43427,-4.6875 0,-0.17641 -1.6875,-0.32075 -3.75,-0.32075 -2.0625,0 -3.75,-0.29242 -3.75,-0.64984 0,-0.35741 1.40625,-2.87748 3.125,-5.60016 1.71875,-2.72267 3.125,-5.33226 3.125,-5.79907 0,-0.46682 -2.141,-3.71237 -4.75778,-7.21234 -12.7418,-17.04228 -21.49224,-34.63392 -21.49224,-43.2074 0,-4.34938 -0.33443,-4.43438 -7.5,-1.90622 -6.14186,2.16697 -13.75,2.47751 -13.75,0.56121 0,-1.17312 1.85239,-2.13814 10.625,-5.5352 2.04241,-0.7909 1.39386,-1.2635 -3.54331,-2.58203 -3.32383,-0.88767 -6.31033,-1.88096 -6.63667,-2.20729 -0.32635,-0.32634 2.50622,-2.36674 6.29457,-4.53422 5.37465,-3.07506 6.69226,-4.40898 5.99738,-6.07166 -1.85146,-4.4301 -6.83662,-13.28402 -8.30788,-14.7553 -0.84217,-0.84216 -4.55129,-7.59341 -8.2425,-15.0028 -7.21873,-14.49016 -8.18912,-20.41651 -5.65894,-34.56021 1.02089,-5.7068 0.94748,-5.9375 -1.88929,-5.9375 -1.6233,0 -6.84726,1.52846 -11.60881,3.3966 -8.16004,3.20148 -8.81741,3.75854 -11.44389,9.69744 -5.76832,13.04321 -11.43722,41.87021 -10.05132,51.11207 0.7619,5.08072 1.57336,6.2644 6.72852,9.81492 l 5.86214,4.03741 -3.4375,1.21209 c -3.81,1.34342 -3.8992,1.70853 -2.16314,8.85447 0.66809,2.75 2.376,10.625 3.79535,17.5 4.13248,20.01664 3.94564,19.6751 15.17763,27.74489 26.79721,19.25282 28.38757,22.59792 5.3036,11.15536 -7.79491,-3.86389 -14.93271,-7.02525 -15.86177,-7.02525 -3.33898,0 -4.68917,3.08634 -4.68917,10.71875 0,4.24531 -0.34834,9.46046 -0.77409,11.58921 -1.0238,5.119 -7.80138,12.74363 -11.72591,13.19138 -1.71875,0.1961 -5.17999,1.23753 -7.69163,2.31431 -4.37688,1.87642 -4.56865,2.21849 -4.61523,8.23261 -0.0695,8.96759 -2.09655,15.33524 -6.42533,20.18379 -4.22906,4.73685 -4.60479,7.93539 -2.28755,19.47376 2.03874,10.15165 8.51199,21.18113 17.00415,28.97264 3.92733,3.6033 6.64484,6.55642 6.03893,6.5625 -0.60592,0.006 -6.033,-2.81095 -12.06022,-6.26005 -9.53695,-5.45759 -11.23915,-6.95754 -13.12151,-11.5625 -3.39222,-8.29865 -4.51081,-13.2835 -5.39485,-24.0414 l -0.82176,-10 -5,-1.05958 C 106.5909,340.6759 92.891502,330.27178 77.264972,310.21672 l -6.57434,-8.4375 -8.948401,0.0251 c -4.92162,0.0139 -12.587104,0.55099 -17.03441,1.19372 -6.029862,0.87144 -8.323704,0.78557 -9.020758,-0.33763 -1.025691,-1.65277 4.306964,-3.21532 19.919269,-5.83666 13.799375,-2.31694 11.929033,-4.61581 -6.5625,-8.06611 -11.80192,-2.2021 -21.875,-5.33377 -21.875,-6.80082 0,-0.47607 3.234375,-0.85142 7.1875,-0.83411 6.513255,0.0285 7.22497,-0.23236 7.586939,-2.78102 0.219691,-1.54688 0.655608,-2.8125 0.968705,-2.8125 1.911547,0 19.490571,9.79217 24.792924,13.8106 6.716152,5.08986 8.630542,7.08501 14.275622,14.87781 6.26057,8.64249 27.666678,27.5616 31.184668,27.5616 0.59638,0 0.8661,-2.95313 0.59939,-6.5625 -0.60873,-8.23799 2.2661,-13.28605 9.50712,-16.69403 l 5.14077,-2.41949 -7.21175,-12.47449 c -8.99517,-15.55933 -22.996668,-35.22461 -31.798908,-44.66199 -6.24139,-6.69173 -7.08848,-7.18561 -12.28089,-7.16005 -6.23397,0.0308 -14.564824,3.37265 -20.174993,8.09329 -2.045401,1.7211 -4.4812,3.12926 -5.412886,3.12926 -2.300961,0 -6.710577,6.41934 -7.655671,11.1448 -0.545784,2.72891 -1.484774,3.8552 -3.214109,3.8552 -2.081655,0 -2.317181,-0.57316 -1.592101,-3.87444 0.795856,-3.6235 0.660617,-3.8174 -2.088181,-2.99385 -1.616532,0.48431 -4.610245,1.82788 -6.652697,2.9857 -4.799977,2.72102 -7.977537,12.72745 -9.011931,28.37943 l -0.751531,11.37185 4.103565,-0.60228 c 2.858349,-0.41952 3.837645,-0.17201 3.227234,0.81565 -0.481983,0.77986 -1.618009,1.41794 -2.524504,1.41794 -5.155249,0 -4.935211,5.57035 1.110985,28.125 3.490535,13.02104 7.328325,29.75261 12.536719,54.65616 3.399442,16.25419 5.370085,20.80393 14.67908,33.89039 6.645174,9.3417 11.327842,14.10717 15.028526,15.2943 2.313075,0.74199 3.685745,4.49851 3.728755,10.20429 0.0143,1.90017 0.81476,8.59695 1.77876,14.88171 2.62613,17.12106 3.87631,36.70174 2.34192,36.67972 -0.70622,-0.01 -2.68741,-0.72843 -4.40265,-1.59623 z M 136.16724,333.02922 c 3.30306,-5.35876 3.39403,-5.91495 1.92188,-11.75095 -1.82004,-7.21515 -3.95078,-8.89676 -9.86664,-7.78694 -7.05914,1.3243 -10.69701,11.37079 -6.822,18.83989 4.38495,8.45199 9.8287,8.70931 14.76676,0.698 z m 22.7977,-29.16274 c 3.39091,-2.4795 3.46936,-17.49759 0.12388,-23.71361 -2.81224,-5.22521 -4.8721,-6.38863 -8.17837,-4.61916 -1.28,0.68502 -3.40711,1.24551 -4.72692,1.24551 -1.3198,0 -3.81736,1.3139 -5.55013,2.91976 -2.98918,2.7703 -3.09123,3.29823 -1.99341,10.3125 1.30004,8.30629 3.62359,12.62816 7.66421,14.25574 4.11931,1.65927 10.1025,1.46989 12.66074,-0.40074 z m -20.54611,-29.72371 c 2.40625,-1.93629 7.29052,-4.26313 10.85394,-5.17076 l 6.47892,-1.65024 -1.97589,-4.33378 c -6.54759,-14.36104 -8.04726,-17.72681 -11.67767,-26.20877 -2.20696,-5.15625 -5.54361,-11.625 -7.41479,-14.375 -1.87117,-2.75 -9.20502,-13.85938 -16.29746,-24.6875 l -12.89532,-19.6875 -7.145598,0 c -6.12449,0 -8.10343,0.64176 -13.84836,4.49101 -8.29982,5.56108 -12.32777,9.87344 -12.32777,13.19823 0,1.40241 -1.05214,4.04292 -2.33809,5.8678 -3.703933,5.25621 -6.41191,16.63725 -6.41191,26.94785 0,8.45537 0.256996,9.49511 2.346944,9.49511 3.514011,0 4.950236,-2.50857 5.385606,-9.40674 l 0.39245,-6.21826 15.10477,15 c 18.838048,18.7074 29.729348,32.64012 43.645228,55.83332 l 2.5,4.16668 0.625,-9.87046 c 0.59961,-9.46949 0.80272,-10.01348 5,-13.39099 z m -20,-22.20603 c -2.75064,-0.79008 -2.8507,-1.00303 -0.83526,-1.77757 1.25935,-0.48398 3.59285,-0.87995 5.18556,-0.87995 1.59271,0 6.1612,-1.71768 10.1522,-3.81706 6.20682,-3.26499 6.90317,-3.42543 4.81442,-1.10927 -1.34306,1.4893 -2.44192,3.91012 -2.44192,5.37958 0,2.37909 -0.7531,2.69531 -6.875,2.88683 -3.78125,0.11825 -8.28125,-0.18886 -10,-0.68255 z m 130,2.5187 c 0,-2.81323 -2.39666,-5.17622 -5.25,-5.17622 -2.93138,0 -2.84101,1.4115 0.35009,5.46834 2.74093,3.48453 4.89991,3.35582 4.89991,-0.29211 z m -89.35196,-10.24878 c 1.93582,-6.09927 -4.55157,-20.9169 -8.57174,-19.57845 -2.55855,0.85181 -2.305,4.31694 0.81444,11.13083 1.67321,3.65486 3.37713,7.62956 3.7865,8.83268 1.00478,2.95309 2.97185,2.76232 3.9708,-0.38506 z m 91.07778,-6.65312 c 0.41078,-1.63662 1.31164,-13.58975 2.00193,-26.5625 0.69029,-12.97274 1.60649,-28.09121 2.03599,-33.59656 l 0.78092,-10.00974 -7.95982,-2.70752 c -18.31809,-6.23088 -35.94429,-13.53855 -34.9803,-14.50254 2.23636,-2.23636 19.61193,-1.009 32.41272,2.28955 7.09075,1.82718 13.13979,3.0746 13.44231,2.77208 2.16625,-2.16625 5.54286,-42.59535 5.5369,-66.295113 -0.005,-19.570925 -2.1345,-35.64271 -5.31461,-40.108771 -3.24369,-4.555324 -9.21074,-7.054493 -16.82921,-7.048538 -9.64843,0.0075 -13.13975,2.971895 -16.37138,13.900274 -2.37673,8.037443 -5.1521,31.087386 -5.21148,43.282554 l -0.0198,4.062504 12.8125,0.0544 c 15.05935,0.064 22.89162,1.35486 25.7474,4.24354 1.9285,1.95073 1.40364,2.02237 -7.9349,1.08296 -22.60636,-2.27407 -31.8576,-0.2912 -31.89096,6.83538 -0.009,1.87477 -1.45567,7.90868 -3.2153,13.40868 -1.75965,5.5 -3.65345,12.25 -4.20846,15 -0.555,2.75 -2.50972,11.54855 -4.34381,19.55232 l -3.33469,14.55233 7.10036,11.07267 c 3.9052,6.08998 8.80435,13.60393 10.887,16.69768 2.08265,3.09375 5.35816,10.96875 7.27892,17.5 4.16749,14.17094 7.09918,17.5 15.41114,17.5 4.66609,0 5.52364,-0.41381 6.16663,-2.97568 z M 149.02599,213.82183 c 2.09116,-1.52908 2.16228,-2.12437 0.68096,-5.70056 -3.07531,-7.42445 0.44228,-41.37243 5.26752,-50.83636 3.20203,-6.2803 2.38766,-8.76733 -3.72557,-11.37753 -4.3553,-1.85961 -5.63431,-1.84271 -17.20507,0.2274 -6.875,1.23 -14.7159,2.50993 -17.42423,2.84428 -6.94731,0.85765 -9.35778,4.22326 -9.40918,13.1375 -0.0498,8.63049 1.70767,11.77362 15.18761,27.16266 9.41985,10.75393 18.5208,23.10763 18.5208,25.14026 0,1.71592 5.49741,1.31065 8.10716,-0.59765 z m 96.89284,-55.79261 c -6.05813,-3.2005 -15.68127,-5.26461 -13.26109,-2.84441 1.78243,1.78241 13.94573,6.37751 17.01109,6.42651 2.43191,0.0389 1.6002,-0.75559 -3.75,-3.5821 z m -44.12205,-7.27198 c 0.62227,-4.63938 0.46206,-5.01751 -1.86778,-4.40825 -3.12842,0.8181 -4.55997,5.81727 -2.67462,9.34008 1.86787,3.49015 3.6761,1.52691 4.5424,-4.93183 z M 154.6613,135.42519 c 0.004,-1.77596 -0.53647,-6.27596 -1.20136,-10 -0.6649,-3.72403 -2.08812,-12.67722 -3.16275,-19.89597 -3.07821,-20.677998 -2.04661,-18.874785 -10.34166,-18.07696 -14.52784,1.397302 -26.88151,3.287661 -29.61026,4.530965 -2.60815,1.188351 -2.86155,2.334781 -3.61558,16.358205 -1.05559,19.63163 -1.02607,29.0559 0.0945,30.17646 0.49795,0.49794 11.4633,0.73232 24.36748,0.52084 l 23.46212,-0.38451 0.007,-3.22903 z m -19.05497,-52.63758 9.0625,-1.351392 -0.008,-4.516001 c -0.0265,-16.222565 -9.21506,-49.287382 -15.20263,-54.706044 -1.59937,-1.447417 -5.08094,-2.365952 -10.17325,-2.683987 -7.33183,-0.457903 -8.06012,-0.239611 -13.75482,4.122732 l -6.013088,4.606235 0.800258,7.072532 c 1.54967,13.695651 5.61736,37.299173 7.54868,43.802648 l 1.95336,6.577683 8.36193,-0.786508 c 4.59918,-0.43258 12.44018,-1.394633 17.42456,-2.137898 z M 89.980522,296.34978 c 0.24313,-0.79506 3.70479,-3.01374 7.69256,-4.93041 5.768138,-2.77238 7.618618,-3.17933 9.051098,-1.99048 2.15811,1.79108 1.24344,2.75594 -4.55535,4.80532 -8.190178,2.89452 -12.663988,3.67107 -12.188308,2.11557 z" id="path4064" inkscape:connector-curvature="0"/>
</svg>