<?xml version="1.0" encoding="UTF-8" standalone="no"?>
<!-- Created with Inkscape (http://www.inkscape.org/) -->
<svg xmlns:dc="http://purl.org/dc/elements/1.1/" xmlns:cc="http://creativecommons.org/ns#" xmlns:rdf="http://www.w3.org/1999/02/22-rdf-syntax-ns#" xmlns:svg="http://www.w3.org/2000/svg" xmlns="http://www.w3.org/2000/svg" xmlns:sodipodi="http://sodipodi.sourceforge.net/DTD/sodipodi-0.dtd" xmlns:inkscape="http://www.inkscape.org/namespaces/inkscape" id="svg2" version="1.1" inkscape:version="0.48+devel r12701" width="286.33536" height="439.67953" viewBox="0 0 286.33536 439.67953" sodipodi:docname="e.svg">

  <metadata id="metadata8">
    <rdf:RDF>
      <cc:Work rdf:about="">
        <dc:format>image/svg+xml</dc:format>
        <dc:type rdf:resource="http://purl.org/dc/dcmitype/StillImage"/>
        <dc:title>ASL letter</dc:title>
        <dc:date>11/11/2013</dc:date>
        <dc:creator>
          <cc:Agent>
            <dc:title>edited by Paul Sherman</dc:title>
          </cc:Agent>
        </dc:creator>
        <dc:rights>
          <cc:Agent>
            <dc:title>PD</dc:title>
          </cc:Agent>
        </dc:rights>
        <dc:publisher>
          <cc:Agent>
            <dc:title>WPClipart</dc:title>
          </cc:Agent>
        </dc:publisher>
        <dc:subject>
          <rdf:Bag>
            <rdf:li>sign</rdf:li>
            <rdf:li>language</rdf:li>
            <rdf:li>letter</rdf:li>
            <rdf:li>american</rdf:li>
          </rdf:Bag>
        </dc:subject>
        <cc:license rdf:resource="http://creativecommons.org/publicdomain/zero/1.0/"/>
      </cc:Work>
      <cc:License rdf:about="http://creativecommons.org/publicdomain/zero/1.0/">
        <cc:permits rdf:resource="http://creativecommons.org/ns#Reproduction"/>
        <cc:permits rdf:resource="http://creativecommons.org/ns#Distribution"/>
        <cc:permits rdf:resource="http://creativecommons.org/ns#DerivativeWorks"/>
      </cc:License>
    </rdf:RDF>
  </metadata>
  <defs id="defs6"/>
  <sodipodi:namedview pagecolor="#ffffff" bordercolor="#666666" borderopacity="1" objecttolerance="10" gridtolerance="10" guidetolerance="10" inkscape:pageopacity="0" inkscape:pageshadow="2" inkscape:window-width="969" inkscape:window-height="992" id="namedview4" showgrid="false" fit-margin-top="12" fit-margin-bottom="12" fit-margin-left="12" fit-margin-right="12" inkscape:zoom="1.4897651" inkscape:cx="146.96822" inkscape:cy="203.38439" inkscape:window-x="0" inkscape:window-y="0" inkscape:window-maximized="0" inkscape:current-layer="svg2"/>
  <path style="fill:#000000" d="m 53.77246,422.83579 c 0.93994,-2.66408 4.008241,-7.52682 5.06975,-11.47594 6.045862,-22.49236 9.623015,-25.46888 8.563586,-61.0317 -0.07325,-2.45871 -7.2484,-23.60217 -13.105176,-37.2623 C 47.64334,297.53865 40.390375,286.3923 36.531402,278.8414 26.323764,258.86798 12,227.52759 12,212.53713 c 0,-3.48073 1.908206,-12.03733 4.50537,-20.20254 5.547321,-17.44024 6.46389,-27.23693 3.767921,-40.27325 -1.11281,-5.38098 -2.023291,-13.42113 -2.023291,-17.867 0,-20.27964 16.027364,-48.755862 32.12736,-57.081491 3.36379,-1.739487 4.04803,-3.135527 6.34532,-12.946217 4.57824,-19.551649 10.75118,-29.683564 20.8916,-34.290256 9.24879,-4.201642 17.72993,-3.071552 35.14457,4.682927 0.76111,0.338915 2.10434,-1.123215 2.98495,-3.249176 2.28195,-5.509118 10.18354,-11.802121 19.82465,-15.788799 6.86667,-2.839425 10.25665,-3.449245 19.55655,-3.518004 12.45377,-0.09208 18.49097,1.706259 27.53697,8.202605 l 5.23718,3.761053 7.36293,-2.222416 c 4.59845,-1.387992 11.39142,-2.220704 18.09247,-2.217858 9.37918,0.004 11.66031,0.469526 18.125,3.698999 6.07358,3.034089 7.99572,4.807526 10.75379,9.921755 1.84707,3.425021 4.27036,9.893771 5.38507,14.375 1.11472,4.481227 5.38585,14.976646 9.49143,23.323152 10.8247,22.006314 11.24849,25.017964 6.33675,45.032936 -2.19161,8.93064 -4.58975,21.25595 -5.32921,27.38956 -0.73947,6.13363 -2.44865,14.45855 -3.79822,18.49985 -2.4469,7.32731 -2.44675,7.35525 0.0525,10.01558 1.37843,1.46726 3.68878,5.47325 5.1341,8.90218 1.44533,3.42894 4.84629,10.73443 7.55769,16.23443 5.37366,10.90031 8.34054,24.78951 6.91661,32.37963 -1.11306,5.93316 -7.50971,17.836 -19.88152,36.99537 -20.80764,32.22339 -38.49661,62.0809 -40.3604,68.125 -4.42911,14.3632 -3.31649,55.64607 2.0507,76.08926 1.27679,4.86319 2.1058,9.05778 1.84225,9.32133 -0.26355,0.26356 -3.05255,-0.50359 -6.19778,-1.70477 -5.53918,-2.11543 -5.80603,-2.46273 -8.50551,-11.06988 -2.37841,-7.58343 -2.78807,-11.72594 -2.79485,-28.26094 -0.004,-10.65625 0.47934,-23.53584 1.07489,-28.62129 l 1.08281,-9.2463 -2.95781,0.8694 c -6.2787,1.84549 -28.49729,2.34028 -36.28553,0.80804 -21.21822,-4.17444 -36.6833,-19.66355 -41.15902,-41.22305 -3.49516,-16.83609 1.3928,-42.44005 11.86822,-62.16769 4.73908,-8.92478 5.03393,-8.29023 -6.5489,-14.09391 -8.68096,-4.34969 -18.14801,-12.38379 -20.92857,-17.76079 -0.97848,-1.89215 -1.77904,-5.42215 -1.77904,-7.84444 0,-3.51071 -1.07855,-5.48861 -5.31646,-9.74957 -2.92405,-2.93998 -7.68545,-9.34783 -10.58088,-14.23968 C 82.03465,164.42919 77.26056,160.20667 63.42728,153.25919 50.9277,146.98151 43.85026,140.14095 42.520364,133.052 c -0.920857,-4.90858 0.242463,-28.70732 1.502956,-30.74683 0.40798,-0.66013 2.08838,0.78148 3.73423,3.20356 2.48493,3.65691 2.99245,5.96011 2.99245,13.58024 0,13.07556 3.3453,19.45713 11.875,22.65306 11.44497,4.28822 14.94735,6.00193 21.875,10.70347 l 6.875,4.6658 2.91244,-3.53895 c 1.60183,-1.94642 5.43408,-5.01674 8.51608,-6.82291 4.81139,-2.81965 6.05553,-3.07808 8.79968,-1.82775 2.85706,1.30176 3.09887,1.21981 2.28001,-0.77268 -5.09442,-12.39596 -8.13321,-22.62897 -8.13321,-27.38833 0,-7.59622 -4.02096,-11.32058 -17.86216,-16.54459 -5.78307,-2.182672 -13.2687,-5.926542 -16.63475,-8.319712 -3.36606,-2.39318 -6.96565,-4.34574 -7.99909,-4.33902 -4.28558,0.0279 -14.82637,6.25786 -19.16616,11.32793 -8.530604,9.966082 -10.061796,17.482462 -10.294681,50.534862 -0.197279,27.99896 -0.30498,29.12823 -4.122865,43.22854 -4.883719,18.0367 -4.882752,17.95837 -0.191837,15.5326 2.050653,-1.06043 6.191439,-2.26565 9.201748,-2.67825 4.789305,-0.65645 5.733695,-0.38048 7.557105,2.20845 l 2.08382,2.95866 -6.598066,1.0353 c -4.926282,0.77299 -7.997398,2.22954 -12.120847,5.74861 l -5.522782,4.71332 3.187734,9.87638 c 46.277171,83.3216 35.978114,96.06339 56.69443,119.02094 6.346541,3.63551 11.83292,4.941 22.934681,7.8008 5.63922,1.45266 13.10222,2.95622 8.86112,4.3023 -1.37093,0.43511 -3.2442,1.54271 -4.16281,2.46134 -1.39362,1.3936 -3.65554,0.97848 -13.6585,-2.50667 l -16.015771,-1.49188 -4.46253,15.74598 c -8.492315,29.96503 -5.876949,29.96192 -9.561369,39.1682 l -4.15229,10.37538 -5.84032,0.37969 -5.84033,0.3797 z m 135.7025,-92.90205 c 7.95734,-1.70654 12.44349,-5.45722 19.93364,-16.66565 6.43984,-9.63674 12.83942,-18.95176 27.54801,-40.09794 19.5937,-28.16941 26.29339,-41.08823 26.29339,-50.70079 0,-6.19977 -1.56097,-10.14365 -7.6843,-19.41469 -2.76642,-4.18851 -6.8098,-12.01638 -8.98529,-17.39528 -5.40087,-13.35373 -6.965,-14.3341 -24.33073,-15.25023 -13.51713,-0.71309 -14.10065,-0.63558 -18.66403,2.47865 -5.66825,3.86825 -13.43412,6.05482 -22.23651,6.2609 -5.38181,0.12601 -7.20854,-0.43373 -10.52641,-3.22555 -2.20799,-1.8579 -4.46828,-3.37801 -5.02284,-3.37801 -2.0218,0 -2.27855,5.1694 -0.57464,11.5699 3.49105,13.11356 1.38561,18.81375 -8.39447,22.72696 -6.33389,2.53433 -25.48016,3.03153 -29.70332,0.77135 -3.46667,-1.8553 -7.56267,-10.48154 -7.60001,-16.00571 -0.0279,-4.11864 -0.74361,-4.66856 -4.30021,-3.30376 -3.86277,1.48227 -1.16629,13.40532 4.19287,18.53972 4.4713,4.28378 17.69619,8.71856 39.55566,13.26444 9.99977,2.07954 21.13376,4.88561 24.74222,6.23571 6.92236,2.58999 14.53201,8.95063 14.53201,12.14681 0,1.56784 1.20706,1.75692 6.92565,1.0848 8.20707,-0.96457 12.15819,0.60965 11.5877,4.61685 -0.32019,2.24914 -1.98366,3.14427 -9.47789,5.1001 l -9.08955,2.37217 3.71637,2.26005 c 3.99885,2.43185 7.58772,8.21482 7.58772,12.22657 0,2.45993 -0.0627,2.4589 -7.71567,-0.12551 l -7.71568,-2.60563 -2.84936,3.31259 c -1.56717,1.82193 -3.1576,3.31259 -3.53433,3.31259 -0.37674,0 -0.68496,-5.09044 -0.68496,-11.31208 0,-7.46797 -0.61962,-12.51028 -1.82336,-14.83807 -2.84435,-5.50035 -11.83329,-9.06602 -24.73898,-9.8133 l -10.93733,-0.6333 -4.86329,10.48587 c -10.59336,22.8407 -14.67841,41.55713 -11.56473,52.98588 2.12657,7.80549 11.46403,21.97265 17.05269,25.87302 5.35165,3.73495 20.77991,8.32013 28.37598,8.43315 2.54428,0.0379 7.48257,-0.54381 10.97398,-1.29258 z M 146.36415,199.10765 c -1.92523,-4.6622 -3.27099,-12.36648 -2.83266,-16.21658 0.40005,-3.51387 -0.0125,-4.1932 -3.22293,-5.3125 -10.4178,-3.63167 -15.44466,0.42513 -14.1432,11.41392 0.41486,3.50287 1.62909,7.70397 2.69829,9.33576 1.72014,2.62528 2.89162,2.9669 10.1739,2.9669 7.34881,0 8.13321,-0.2342 7.3266,-2.1875 z m 10.11309,-1.5625 c 0.28751,0 0.52276,-2.98624 0.52276,-6.63609 0,-7.53785 -2.76199,-12.89449 -4.9571,-9.61391 -2.66876,3.98841 -0.91588,18.10246 2.10429,16.94351 0.994,-0.38142 2.04252,-0.69351 2.33005,-0.69351 z m -37.7475,-22.61049 7.13672,-5.1105 -3.62546,-6.452 c -2.00038,-3.55996 -5.96366,-8.1096 -8.84187,-10.14999 l -5.21643,-3.69796 -5.1985,5.1985 -5.19851,5.19851 1.43679,7.7259 c 2.5596,13.76359 7.75377,15.70403 19.50726,7.28754 z m 38.46062,-10.20201 c 0.84058,-1.54688 1.56349,-5.625 1.60648,-9.0625 0.0661,-5.29085 -0.69347,-7.40098 -4.94995,-13.75 -4.44262,-6.62666 -5.45078,-7.45408 -8.65786,-7.10564 -6.48598,0.70466 -10.70809,3.81784 -13.26378,9.78003 -2.97127,6.93169 -3.04205,10.32233 -0.33404,16.00111 2.50994,5.2634 5.9752,6.71962 16.30231,6.85081 6.82372,0.0866 7.95439,-0.24337 9.29684,-2.71381 z m 35.35995,1.5909 c 1.76718,-0.67189 4.15709,-3.20126 5.3109,-5.62085 1.97004,-4.1312 1.96426,-4.9659 -0.0946,-13.69944 l -2.19253,-9.30021 -6.65182,-0.83109 c -9.88473,-1.23501 -11.61504,-0.24443 -15.77722,9.03228 -5.17202,11.52747 -4.90358,14.49486 1.66753,18.43323 5.59944,3.356 12.19287,4.09425 17.73781,1.98608 z m 44.31321,-9.09608 c 7.25315,-4.36718 7.98565,-5.85956 11.50133,-23.43232 0.75649,-3.78125 2.79376,-11.36629 4.52728,-16.85564 4.90294,-15.5257 3.95162,-22.344082 -6.13024,-43.936921 -4.45095,-9.532842 -9.4526,-20.67124 -11.11476,-24.751994 -1.66218,-4.080753 -4.77604,-9.283878 -6.91973,-11.5625 -3.74001,-3.975446 -4.2764,-4.142947 -13.26689,-4.142947 -8.89466,0 -21.8943,1.767126 -23.29364,3.166457 -1.39253,1.392537 10.43589,35.966917 18.70804,54.683463 6.05563,13.701422 8.75038,21.345912 8.82439,25.033132 0.0595,2.96458 -1.89259,11.49214 -4.42138,19.31448 -2.49036,7.70343 -4.52792,15.93852 -4.52792,18.30019 0,3.92339 0.45845,4.45623 5.3125,6.17443 8.46255,2.99551 13.28786,2.53392 20.80102,-1.98983 z m -20.32146,-3.24772 c -2.9816,-3.29463 -2.52029,-7.57828 1.73265,-16.08918 3.36963,-6.7432 4.31897,-7.69202 8.84594,-8.84108 3.92275,-0.9957 6.32275,-0.86078 10.59751,0.59577 l 5.52628,1.883 -0.6879,7.07094 c -1.20434,12.37948 -1.8724,15.19595 -3.60444,15.19595 -2.39171,0 -3.2021,-2.87301 -3.2021,-11.35224 l 0,-7.39776 -4.1146,0 c -3.74736,0 -4.41676,0.61609 -7.5,6.90269 -1.86198,3.79649 -3.3854,8.26328 -3.3854,9.92624 0,4.02355 -1.70166,4.87507 -4.20794,2.10567 z M 131.22465,134.2057 c 4.32849,-2.80341 15.76039,-6.66055 19.74074,-6.66055 1.2439,0 3.53242,1.96179 5.08562,4.35953 1.55319,2.39773 3.31854,4.36648 3.923,4.375 1.2266,0.0172 0.0346,-15.01978 -1.87926,-23.7073 -0.67826,-3.07877 -2.66201,-7.47104 -4.40835,-9.7606 -2.78466,-3.650882 -3.66007,-4.059872 -7.11828,-3.325612 -2.16871,0.46047 -4.86064,1.645042 -5.98206,2.632382 -1.77887,1.5662 -2.29702,1.53707 -4.0625,-0.2284 C 135.4106,100.77718 134.5,99.113008 134.5,98.191978 c 0,-1.83341 6.93255,-8.14683 8.94576,-8.14683 0.68966,0 -1.88427,-3.51562 -5.71986,-7.8125 C 133.8903,77.935773 128.7321,70.585015 126.26321,65.897632 120.01201,54.02921 115.67862,49.557723 105.48651,44.458819 95.9051,39.665429 89.63665,38.909938 82.87782,41.733953 74.04384,45.42503 66.89324,58.481539 67.07737,70.584524 c 0.0695,4.56821 0.66401,5.514005 5.84339,9.296153 3.17131,2.315791 11.47145,6.568321 18.44475,9.450071 13.93507,5.75873 21.61531,10.862112 22.48058,14.937922 0.30959,1.45832 1.4721,7.33108 2.58337,13.05059 1.11127,5.71951 2.8861,12.46951 3.94408,15 1.05797,2.53049 2.48629,6.00714 3.17402,7.72589 l 1.25043,3.125 1.11777,-3.125 c 0.61476,-1.71875 3.00378,-4.3465 5.30889,-5.83945 z m 77.3097,-13.57673 c 0.0364,-8.01836 -0.2759,-8.92287 -13.21338,-38.272652 -3.83393,-8.697602 -9.34712,-23.808096 -12.25153,-33.578872 -2.90443,-9.770778 -6.02034,-18.504624 -6.92427,-19.408548 -2.98492,-2.984931 -15.91222,-7.200657 -22.32597,-7.280735 -9.16718,-0.11445 -16.89061,3.312711 -23.57854,10.462645 -3.15736,3.37548 -5.74066,6.810404 -5.74066,7.633164 0,3.844926 14.64517,27.368697 26.46781,42.513836 C 166.38389,102.44626 170.75,112.43301 170.75,127.94625 l 0,7.37586 2.36434,-2.91984 c 2.00955,-2.48168 3.74463,-2.98923 11.5625,-3.38232 13.20961,-0.66419 17.53106,0.7199 19.00913,6.08831 l 1.18718,4.31189 1.8135,-5.625 c 0.99742,-3.09375 1.82889,-9.01853 1.8477,-13.16618 z" id="path4064" inkscape:connector-curvature="0" sodipodi:nodetypes="ssssssssssssssssscsssssssssssssssscsscscsssssssssssssssscsssssssssssssscsscccsscscsscccssssssssssssssscsssssssscssscssssscssscssscssssssscsscsscccssscsssscscsscsssccsssssssssssssssssscssscssssssscsssssssssssssssssscssssssssssscssscss"/>
</svg>