<?xml version="1.0" encoding="UTF-8" standalone="no"?>
<!-- Created with Inkscape (http://www.inkscape.org/) -->
<svg xmlns:dc="http://purl.org/dc/elements/1.1/" xmlns:cc="http://creativecommons.org/ns#" xmlns:rdf="http://www.w3.org/1999/02/22-rdf-syntax-ns#" xmlns:svg="http://www.w3.org/2000/svg" xmlns="http://www.w3.org/2000/svg" xmlns:sodipodi="http://sodipodi.sourceforge.net/DTD/sodipodi-0.dtd" xmlns:inkscape="http://www.inkscape.org/namespaces/inkscape" id="svg2" version="1.1" inkscape:version="0.48+devel r12701" width="362.125" height="521.56293" viewBox="0 0 362.125 521.56293" sodipodi:docname="x.svg">

  <metadata id="metadata8">
    <rdf:RDF>
      <cc:Work rdf:about="">
        <dc:format>image/svg+xml</dc:format>
        <dc:type rdf:resource="http://purl.org/dc/dcmitype/StillImage"/>
        <dc:title>ASL letter</dc:title>
        <dc:date>11/11/2013</dc:date>
        <dc:creator>
          <cc:Agent>
            <dc:title>edited by Paul Sherman</dc:title>
          </cc:Agent>
        </dc:creator>
        <dc:rights>
          <cc:Agent>
            <dc:title>PD</dc:title>
          </cc:Agent>
        </dc:rights>
        <dc:publisher>
          <cc:Agent>
            <dc:title>WPClipart</dc:title>
          </cc:Agent>
        </dc:publisher>
        <dc:subject>
          <rdf:Bag>
            <rdf:li>sign</rdf:li>
            <rdf:li>language</rdf:li>
            <rdf:li>letter</rdf:li>
            <rdf:li>american</rdf:li>
          </rdf:Bag>
        </dc:subject>
        <cc:license rdf:resource="http://creativecommons.org/publicdomain/zero/1.0/"/>
      </cc:Work>
      <cc:License rdf:about="http://creativecommons.org/publicdomain/zero/1.0/">
        <cc:permits rdf:resource="http://creativecommons.org/ns#Reproduction"/>
        <cc:permits rdf:resource="http://creativecommons.org/ns#Distribution"/>
        <cc:permits rdf:resource="http://creativecommons.org/ns#DerivativeWorks"/>
      </cc:License>
    </rdf:RDF>
  </metadata>
  <defs id="defs6"/>
  <sodipodi:namedview pagecolor="#ffffff" bordercolor="#666666" borderopacity="1" objecttolerance="10" gridtolerance="10" guidetolerance="10" inkscape:pageopacity="0" inkscape:pageshadow="2" inkscape:window-width="997" inkscape:window-height="999" id="namedview4" showgrid="false" fit-margin-top="12" fit-margin-left="12" fit-margin-right="12" fit-margin-bottom="12" inkscape:zoom="0.77167689" inkscape:cx="186.44915" inkscape:cy="251.04462" inkscape:window-x="363" inkscape:window-y="0" inkscape:window-maximized="0" inkscape:current-layer="svg2"/>
  <path style="fill:#000000" d="m 176.15745,509.50632 c -4.74585,-0.67584 -6.52635,-5.48772 -8.5033,-22.9807 -2.48936,-22.02693 -7.69736,-49.49897 -10.07031,-53.12055 -1.0464,-1.597 -5.94087,-5.57173 -10.87658,-8.8327 -16.7834,-11.08861 -34.82175,-37.60285 -47.12428,-69.26711 L 95.37206,344.46718 68.99853,327.32831 C 41.568288,309.50273 41.688799,309.61211 31.288485,293.10097 29.178401,289.75108 26.719101,283.72144 25.823375,279.70179 24.927649,275.68213 21.450955,263.98117 18.09739,253.69966 14.743826,243.41813 12,233.96833 12,232.70008 c 0,-4.25361 3.937925,-10.25105 11.691916,-17.80676 4.233253,-4.125 10.506232,-11.11384 13.939954,-15.53075 5.172763,-6.6539 7.957602,-8.90459 16.24313,-13.12755 5.5,-2.80325 13.9375,-6.62719 18.75,-8.49765 4.8125,-1.87048 15.477825,-6.01385 23.700721,-9.2075 8.222899,-3.19366 18.066649,-7.41951 21.874999,-9.39078 3.80835,-1.97127 16.20553,-6.15418 27.54928,-9.29538 19.67161,-5.44725 47.56854,-13.60907 60.3125,-17.64564 7.02182,-2.22412 7.34851,-3.76055 3.35563,-15.78168 -2.50899,-7.55366 -9.66836,-20.898069 -11.21195,-20.898069 -0.42109,0 -5.50537,1.47923 -11.29839,3.287177 -14.27246,4.454292 -40.60563,5.620542 -47.38288,2.098502 -5.8917,-3.061839 -9.55977,-8.968354 -10.56474,-17.011917 -0.7816,-6.25565 -0.48489,-7.349455 4.50104,-16.593045 2.93579,-5.442758 8.63566,-14.679378 12.6664,-20.525821 4.03074,-5.846442 9.11034,-13.29967 11.288,-16.562727 5.0706,-7.597898 11.46938,-10.13696 32.29955,-12.816601 8.47541,-1.090296 18.57121,-2.855721 22.43513,-3.923166 10.0942,-2.788631 19.43805,-1.711562 35.47471,4.089183 13.07551,4.729646 14.02593,5.317181 19.375,11.977465 3.17432,3.952447 6.89254,10.57404 8.53437,15.198482 1.60016,4.50705 5.01242,11.448774 7.58279,15.426053 2.57039,3.977279 7.55193,15.106415 11.0701,24.731415 12.50205,34.203089 29.4332,80.219309 34.95419,94.999999 3.08159,8.25 6.46673,17.8125 7.52251,21.25 1.05579,3.4375 4.51644,13.5625 7.69033,22.5 l 5.77071,16.25 -0.0549,23.125 c -0.0582,24.52376 -1.55429,35.5388 -10.52583,77.5 -1.98439,9.28125 -5.06887,25.9625 -6.85442,37.06945 l -3.24647,20.19445 8.03345,23.83254 c 11.66368,34.60231 13.451,47.65356 6.52598,47.65356 -2.05602,0 -3.35983,-1.04135 -4.3039,-3.4375 C 332.97286,448.75944 319.5,412.66405 319.5,411.7155 c 0,-0.65846 -1.18518,-1.19718 -2.63374,-1.19718 -1.81396,0 -2.41235,-0.57691 -1.92248,-1.85349 2.69058,-7.01155 16.27106,-78.7785 22.01708,-116.3508 l 3.64428,-23.82929 -2.91865,-18.04571 c -4.97945,-30.78745 -25.83918,-95.8248 -35.12135,-109.50284 -4.15088,-6.11666 -10.91672,-26.27084 -16.92547,-50.417869 l -5.44337,-21.875 -11.73975,-17.5 c -6.45685,-9.625 -12.7972,-18.43082 -14.08965,-19.568489 -4.45603,-3.92237 -27.20274,-8.857511 -36.94815,-8.016293 -1.94906,0.168241 -10.0125,0.979966 -17.91875,1.803832 -7.90625,0.823866 -17.35279,1.802049 -20.9923,2.173737 l -6.6173,0.675798 -7.7577,10.613989 c -9.48094,12.971701 -9.6908,13.483928 -5.17037,12.619794 2.83346,-0.541651 4.36048,0.145449 7.66313,3.448093 4.39247,4.392465 5.01373,7.305354 2.6599,12.471423 -2.10282,4.615224 -7.82061,7.696388 -20.52412,11.059934 -10.15371,2.688427 -11.17051,3.23519 -11.52465,6.197202 -0.35915,3.003771 0.23964,3.442619 7.94416,5.822306 11.38105,3.515249 20.29474,3.235886 37.67227,-1.180682 l 14.77198,-3.754358 8.91912,-9.196175 c 4.90553,-5.057896 11.5149,-13.065555 14.6875,-17.794799 5.8707,-8.751145 7.71093,-9.167011 3.37638,-0.763014 -1.31559,2.550736 -5.78744,9.377595 -9.93744,15.170796 -4.14999,5.793201 -7.29977,10.930585 -6.99951,11.416406 1.1201,1.812369 13.9243,2.4867 20.58756,1.084244 11.07554,-2.331138 19.77906,-7.150128 28.29584,-15.666903 8.90813,-8.908117 11.63658,-8.527132 4.87717,0.681018 -10.79291,14.70289 -28.89911,25.077141 -43.76718,25.077141 -4.32167,0 -5.66444,0.466711 -5.66444,1.968796 0,1.082838 3.3965,10.137963 7.54779,20.122493 4.15128,9.98453 8.33501,21.17605 9.29717,24.87005 1.73416,6.65785 7.41756,14.02886 12.24541,15.88147 1.1878,0.4558 2.15963,1.40888 2.15963,2.11796 0,1.88704 -7.61815,1.49038 -11.25,-0.58577 -3.99274,-2.28246 -4.41959,-2.27684 -6.78571,0.0892 -1.60335,1.6034 -1.96429,1.639 -1.96429,0.19379 0,-2.58934 -4.81276,-6.59527 -6.22588,-5.18215 -0.64175,0.64175 -2.82832,9.03782 -4.85906,18.65796 -2.03075,9.62014 -5.19377,24.49695 -7.02896,33.05959 -3.1721,14.80046 -3.22747,15.6483 -1.12249,17.1875 3.98008,2.9103 6.86419,1.73483 15.60939,-6.36188 8.19401,-7.5864 16.78799,-13.02472 18.25856,-11.55415 0.3732,0.3732 -2.74836,4.24731 -6.9368,8.60914 -4.18843,4.36182 -8.53367,10.12845 -9.65607,12.81472 -1.98253,4.74488 -1.96189,4.94797 0.72377,7.12269 4.9396,3.99985 9.1727,2.75196 30.6634,-9.03936 11.30524,-6.20285 25.14634,-12.97079 30.75802,-15.03989 11.61292,-4.28182 30.81253,-8.85379 31.62952,-7.53186 0.30009,0.48555 -8.56329,4.74944 -19.69639,9.47531 -30.1455,12.79643 -44.33242,20.18061 -55.17482,28.71808 -2.99343,2.35706 -2.86554,2.48516 10.84517,10.8632 12.3255,7.53161 52.21264,34.83715 52.21264,35.74324 0,0.98002 -3.869,-0.43817 -14.0625,-5.15466 -5.32813,-2.4653 -9.6875,-4.2481 -9.6875,-3.96178 0,0.28631 6.5575,4.91273 14.57222,10.28093 13.18323,8.83003 14.85868,10.38293 17.57733,16.29162 1.91941,4.17162 2.86425,8.21761 2.61527,11.199 l -0.38982,4.66776 -8.65148,-10.574 c -11.25531,-13.75644 -22.79656,-25.68106 -27.98749,-28.91715 -2.35895,-1.47059 -3.86736,-3.28813 -3.50739,-4.22619 0.64015,-1.66819 -4.40555,-4.89606 -22.82211,-14.59994 -5.07017,-2.67152 -12.17239,-7.0395 -15.78273,-9.70661 -19.51745,-14.41839 -31.23248,-20.01897 -41.78397,-19.97564 -5.60678,0.023 -5.82708,0.1802 -11.65233,8.31314 -5.91027,8.25166 -7.80307,15.36285 -4.61381,17.33393 0.72802,0.44995 4.38427,-2.39278 8.125,-6.31717 3.74072,-3.92438 6.80131,-6.77187 6.80131,-6.32776 0,2.69576 -7.12082,14.07228 -11.41911,18.24361 -5.36031,5.20202 -7.81558,11.83508 -6.4706,17.48078 1.17507,4.93254 4.81782,11.56856 13.98866,25.48322 4.68489,7.10824 9.16769,15.39182 9.96178,18.40793 1.27235,4.83259 2.8167,6.54302 13.00405,14.40245 14.50088,11.18729 25.29118,17.72369 30.93522,18.73954 2.40625,0.43308 5.20229,1.22902 6.21341,1.76875 3.4763,1.85558 -6.73262,2.69063 -14.86522,1.21591 -4.32178,-0.78369 -8.12556,-1.15709 -8.45286,-0.8298 -0.32729,0.3273 0.40665,2.12392 1.63098,3.9925 l 2.22608,3.39742 -3.0637,-0.95586 c -3.18334,-0.99319 -10.86804,-6.59838 -13.66228,-9.96525 -1.2906,-1.55507 -1.97385,-1.6341 -3.46052,-0.40026 -1.8869,1.56598 -3.35573,0.35475 -8.55678,-7.05614 -0.93588,-1.33351 -1.87801,-2.17726 -2.09361,-1.875 -0.2156,0.30228 -2.5629,4.20584 -5.21622,8.67459 -6.10078,10.27498 -8.91143,13.39699 -14.76178,16.39705 -2.69722,1.38314 -4.68275,3.32178 -4.67632,4.56585 0.006,1.18916 1.88972,7.611 4.18571,14.27076 4.6519,13.49335 11.71295,26.20339 19.40982,34.93812 l 5.108,5.79676 -6.90948,-2.13783 c -6.33448,-1.95992 -7.3833,-2.8441 -12.60263,-10.6243 -3.13122,-4.66755 -7.32829,-11.93907 -9.32682,-16.15893 l -3.6337,-7.67248 0.75472,8.68288 0.75474,8.68287 -3.08894,-3.68287 c -3.7273,-4.44397 -4.82517,-8.92693 -5.79692,-23.67067 -0.71913,-10.91085 -0.84773,-11.28895 -4.42023,-12.99671 -2.02375,-0.96741 -7.54169,-2.03528 -12.26209,-2.37301 l -8.58255,-0.61408 -5.8629,-6.9459 c -10.08319,-11.94574 -14.79794,-16.10919 -18.92883,-16.71547 -2.15553,-0.31637 -4.13941,-0.21883 -4.40862,0.21676 -0.2692,0.43559 7.79998,15.38867 17.93153,33.22909 l 18.421,32.43711 10.81882,7.19792 c 9.70738,6.45848 10.90039,7.67843 11.61275,11.875 0.43666,2.57239 2.94005,15.64583 5.56309,29.05208 8.67556,44.34056 9.1303,49.69584 4.1598,48.988 z m -5.95886,-148.29266 c 2.39947,-1.78463 2.39865,-1.85637 -0.0736,-6.46123 -1.375,-2.56111 -3.98697,-5.75161 -5.80437,-7.09001 -3.19365,-2.3519 -3.52127,-2.36141 -9.77665,-0.28371 -3.55974,1.18236 -6.77578,2.94071 -7.14675,3.90744 -1.05247,2.74268 5.37872,10.24427 9.29059,10.83688 7.23671,1.0963 11.17003,0.83157 13.51077,-0.90937 z m 16.95202,-9.86884 c 1.42067,-2.71222 2.82262,-8.48611 3.22453,-13.28011 0.68924,-8.22124 0.50675,-8.9373 -5.94468,-23.3265 -7.64776,-17.05753 -13.70335,-24.36993 -22.04043,-26.61486 l -5.192,-1.39807 4.25607,-6.32451 c 6.62861,-9.85007 8.32331,-16.92729 8.95153,-37.38245 0.45185,-14.71222 0.0999,-20.30141 -1.86953,-29.6838 -1.89616,-9.03366 -2.09254,-11.83569 -0.89894,-12.82629 1.14064,-0.94665 2.89352,1.58373 6.92472,9.9963 4.5628,9.52197 5.85791,11.26379 8.37497,11.26379 4.60726,0 7.46539,-2.07785 10.77789,-7.83549 4.188,-7.27942 12.81404,-34.53567 15.12646,-47.79613 1.89591,-10.87198 2.58941,-26.86838 1.16483,-26.86838 -2.71123,0 -77.8681,25.4619 -77.39871,26.22139 0.323,0.52262 2.84799,1.31174 5.61109,1.75357 8.51475,1.36157 16.51245,10.87888 9.02032,10.73423 -1.16256,-0.0224 -5.20748,-1.12908 -8.98873,-2.45919 -9.13152,-3.21215 -25.12352,-3.37108 -31.25,-0.31056 l -4.375,2.18556 -0.70503,18.125 c -0.65901,16.9419 0.1848,52.17787 2.0275,84.6652 0.76238,13.44099 0.99121,14.33912 5.36195,21.04465 l 4.56558,7.00446 9.375,-0.71402 c 5.15625,-0.39272 11.48438,-1.07704 14.0625,-1.52072 5.487,-0.94427 5.92861,0.31619 1.70679,4.8716 -2.07824,2.24247 -5.29516,3.67159 -10.625,4.72017 -4.20436,0.82716 -7.64429,1.73601 -7.64429,2.01966 0,0.87597 10.17952,14.59113 13.47734,18.15843 l 3.11953,3.37442 4.77677,-2.43692 c 12.02336,-6.13387 19.92151,-1.62228 31.31649,17.88862 l 5.18441,8.87694 3.00631,-3.66375 c 1.65346,-2.01505 4.13736,-5.82307 5.51976,-8.46224 z M 142,359.84934 c 0,-1.42115 -4.33703,-7.55902 -6.79448,-9.61572 -2.6192,-2.19209 -6.95938,-2.98995 -6.95085,-1.2778 0.0116,2.32697 5.28317,9.25827 7.81573,10.27647 3.24084,1.30295 5.9296,1.58275 5.9296,0.61705 z m 7.34765,-16.71041 c 2.42625,-1.53676 0.58936,-3.87061 -3.04643,-3.87061 -2.21788,0 -3.05122,0.68279 -3.05122,2.5 0,2.64644 3.01382,3.32388 6.09765,1.37061 z M 123.25,336.33087 c 0,-4.62331 -14.35194,-19.56255 -18.79349,-19.56255 -1.35108,0 -3.64178,1.18526 -5.090439,2.63392 -3.291555,3.29157 -2.879146,3.73574 11.383929,12.26075 11.4594,6.84927 12.5,7.23787 12.5,4.66788 z m -40,-14.56255 c -3.568284,-3.12449 -6.881882,-4.93904 -9.0625,-4.9627 -1.890625,-0.0205 -3.4375,0.43717 -3.4375,1.0171 0,0.91814 15.829943,8.96594 17.5,8.89685 0.34375,-0.0143 -1.90625,-2.24229 -5,-4.95125 z m -16.163529,-12.5 c 0.622603,0 -0.347046,-3.23438 -2.154773,-7.1875 C 57.653475,286.16486 51.96673,268.56943 45.72119,242.64137 38.038186,210.74574 38.531666,211.21041 26.589692,224.62701 l -7.551239,8.48368 8.621826,21.51632 c 14.226652,35.50351 17.955652,43.73593 21.542562,47.55905 3.894066,4.15048 12.599887,8.58497 15.086893,7.68481 0.915605,-0.3314 2.174136,-0.60255 2.796737,-0.60255 z m 32.856964,-4.6875 c -3.775451,-11.573 -6.704555,-43.41914 -7.697661,-83.69136 -0.529005,-21.45213 -1.355055,-39.39709 -1.835668,-39.8777 -0.926422,-0.92643 -31.439646,11.70031 -38.17986,15.79928 -3.797635,2.30948 -3.979195,2.7798 -3.957346,10.2514 0.04975,17.01309 5.650281,45.49254 13.953589,70.95588 6.914526,21.20444 12.406632,29.28992 20.851106,30.69701 2.501073,0.41675 5.109905,0.9485 5.797405,1.18168 0.6875,0.23316 3.89497,0.46835 7.127711,0.52262 l 5.877709,0.0987 -1.936985,-5.9375 z M 159.10764,70.999612 c 5.39585,-4.02859 6.29415,-6.257518 4.10255,-10.179577 -1.52413,-2.72756 -2.95764,-3.503528 -7.02599,-3.803195 -4.97956,-0.366784 -5.2568,-0.173624 -10.76464,7.5 -3.10939,4.332065 -5.3603,8.360772 -5.00201,8.952683 1.2085,1.996503 15.18096,0.150032 18.69009,-2.469911 z M 275.07758,355.44158 c -0.45099,-0.7297 2.6062,-5.08907 6.79372,-9.6875 4.18754,-4.59842 9.67105,-11.60367 12.18557,-15.56722 2.51453,-3.96355 4.78702,-6.99132 5.04997,-6.72837 0.26295,0.26295 -0.13388,3.2246 -0.88183,6.58147 -3.02072,13.55707 -19.37557,31.50463 -23.14743,25.40162 z" id="path4064" inkscape:connector-curvature="0"/>
</svg>