<?xml version="1.0" encoding="UTF-8" standalone="no"?>
<!-- Created with Inkscape (http://www.inkscape.org/) -->
<svg xmlns:dc="http://purl.org/dc/elements/1.1/" xmlns:cc="http://creativecommons.org/ns#" xmlns:rdf="http://www.w3.org/1999/02/22-rdf-syntax-ns#" xmlns:svg="http://www.w3.org/2000/svg" xmlns="http://www.w3.org/2000/svg" xmlns:sodipodi="http://sodipodi.sourceforge.net/DTD/sodipodi-0.dtd" xmlns:inkscape="http://www.inkscape.org/namespaces/inkscape" id="svg2" version="1.1" inkscape:version="0.48+devel r12701" width="465.87506" height="432.78021" viewBox="0 0 465.87506 432.78021" sodipodi:docname="j.svg">

  <metadata id="metadata8">
    <rdf:RDF>
      <cc:Work rdf:about="">
        <dc:format>image/svg+xml</dc:format>
        <dc:type rdf:resource="http://purl.org/dc/dcmitype/StillImage"/>
        <dc:title>ASL letter</dc:title>
        <dc:date>11/11/2013</dc:date>
        <dc:creator>
          <cc:Agent>
            <dc:title>edited by Paul Sherman</dc:title>
          </cc:Agent>
        </dc:creator>
        <dc:rights>
          <cc:Agent>
            <dc:title>PD</dc:title>
          </cc:Agent>
        </dc:rights>
        <dc:publisher>
          <cc:Agent>
            <dc:title>WPClipart</dc:title>
          </cc:Agent>
        </dc:publisher>
        <dc:subject>
          <rdf:Bag>
            <rdf:li>sign</rdf:li>
            <rdf:li>language</rdf:li>
            <rdf:li>letter</rdf:li>
            <rdf:li>american</rdf:li>
          </rdf:Bag>
        </dc:subject>
        <cc:license rdf:resource="http://creativecommons.org/publicdomain/zero/1.0/"/>
      </cc:Work>
      <cc:License rdf:about="http://creativecommons.org/publicdomain/zero/1.0/">
        <cc:permits rdf:resource="http://creativecommons.org/ns#Reproduction"/>
        <cc:permits rdf:resource="http://creativecommons.org/ns#Distribution"/>
        <cc:permits rdf:resource="http://creativecommons.org/ns#DerivativeWorks"/>
      </cc:License>
    </rdf:RDF>
  </metadata>
  <defs id="defs6"/>
  <sodipodi:namedview pagecolor="#ffffff" bordercolor="#666666" borderopacity="1" objecttolerance="10" gridtolerance="10" guidetolerance="10" inkscape:pageopacity="0" inkscape:pageshadow="2" inkscape:window-width="948" inkscape:window-height="928" id="namedview4" showgrid="false" fit-margin-top="12" fit-margin-left="12" fit-margin-right="12" fit-margin-bottom="12" inkscape:zoom="0.51868132" inkscape:cx="235.81188" inkscape:cy="205.70405" inkscape:window-x="275" inkscape:window-y="29" inkscape:window-maximized="0" inkscape:current-layer="svg2"/>
  <path style="fill:#000000" d="m 324.75282,409.49548 c -7.32362,-11.57043 -22.14748,-32.60136 -28.58852,-40.55917 -4.49442,-5.55279 -17.86006,-14.48246 -26.08335,-17.42647 -4.39331,-1.57285 -8.97848,-4.88461 -15.43465,-11.14811 -9.57749,-9.29169 -26.66516,-28.55487 -34.03186,-38.36461 -22.92329,-30.52543 -30.78504,-41.52458 -64.35283,-90.03416 -6.95817,-10.05542 -22.527,-24.78793 -48.50105,-45.89573 C 77.663265,141.60868 45.758349,107.7319 40.126566,94.253143 35.5261,83.242676 39.227378,70.736171 48.445088,66.145117 c 8.223511,-4.095874 12.312206,-4.575041 19.170358,-2.246638 8.34256,2.832373 15.272635,8.236225 30.590505,23.853523 16.380589,16.700778 23.563239,23.074168 26.004049,23.074168 2.15559,0 12.77726,6.52994 18.28474,11.24102 4.19182,3.58565 16.4064,14.4307 20.00941,17.76589 1.33276,1.2337 2.87964,2.24309 3.4375,2.24309 1.5957,0 1.15209,-6.38806 -0.82465,-11.875 -0.99072,-2.75 -1.81675,-8.65625 -1.83563,-13.125 -0.0466,-11.02857 2.78504,-15.5943 17.26317,-27.835563 10.63053,-8.988111 12.07525,-9.827916 15.625,-9.082729 2.15127,0.451609 5.58307,0.927349 7.62622,1.057199 3.33339,0.211849 3.79093,-0.213123 4.45606,-4.13891 1.46873,-8.668695 6.99573,-16.327443 17.76063,-24.610849 l 7.76831,-5.977575 12.17758,0.338829 c 11.83004,0.329159 12.1984,0.255896 12.90692,-2.567079 0.40114,-1.59825 0.16765,-4.383236 -0.51883,-6.188859 -1.03348,-2.718237 -0.77178,-3.784931 1.52136,-6.201208 6.42574,-6.770774 16.81611,-15.172595 21.56382,-17.436848 L 286.53228,12 l 13.02433,5.569093 c 20.23615,8.6528 28.34209,13.803813 33.37844,21.210715 1.56976,2.308621 4.94476,5.260363 7.5,6.559426 14.44039,7.341364 29.17198,21.24345 67.7413,63.926916 14.02949,15.52601 14.30588,16.52276 14.00999,50.52556 -0.1884,21.65162 0.19901,30.20732 1.64147,36.25 2.73124,11.44156 3.83171,44.14721 1.98037,58.85557 -1.35568,10.77039 -1.28996,12.58474 0.60907,16.81355 4.82299,10.73998 9.36729,20.52929 16.01529,34.50004 3.86287,8.11784 7.02341,15.17079 7.02341,15.6732 0,0.50243 1.14411,3.14181 2.54246,5.8653 2.5195,4.90706 2.49824,13.30045 -0.0405,16.00874 -0.54492,0.58131 -3.62498,-3.63744 -6.84457,-9.375 -3.21965,-5.73757 -7.75832,-13.52569 -10.08597,-17.30694 -2.32766,-3.78125 -4.75028,-8 -5.38361,-9.375 -0.63332,-1.375 -4.25625,-7.5625 -8.05094,-13.75 -5.85052,-9.53968 -7.4475,-11.30656 -10.50445,-11.62203 -2.4124,-0.24896 -4.78546,0.64229 -7.17325,2.69405 -3.25103,2.79354 -5.03122,3.14445 -20.02602,3.94757 -9.05179,0.48481 -21.20538,0.67873 -27.00798,0.43094 -10.23907,-0.43724 -10.82662,-0.63283 -19.92517,-6.63261 -8.89773,-5.86736 -32.33064,-27.82957 -36.66893,-34.36751 -1.11296,-1.67726 -2.38115,-2.692 -2.81818,-2.25496 -1.11129,1.11129 1.76338,13.03674 4.61298,19.1367 1.30577,2.79519 2.37413,6.02956 2.37413,7.1875 0,3.48948 -3.38853,2.37285 -5.93924,-1.95715 -3.48684,-5.91915 -5.03229,-12.25196 -7.03817,-28.84052 -0.98283,-8.12791 -2.06895,-15.06002 -2.41362,-15.40467 -1.07323,-1.07324 -8.00381,3.09825 -9.05297,5.44895 -0.54833,1.22857 -1.03836,13.48374 -1.08898,27.23374 -0.058,15.7537 -0.55433,25.00941 -1.34202,25.02545 -0.6875,0.014 -2.29278,-3.92351 -3.56728,-8.75 -1.89281,-7.16802 -2.20775,-11.8164 -1.71936,-25.37694 0.56623,-15.72131 0.46086,-16.69748 -1.98724,-18.4122 -2.2673,-1.58808 -2.84428,-1.57622 -4.69257,0.0965 -1.15908,1.04895 -2.46984,4.17371 -2.91281,6.94393 -1.27562,7.97725 -3.96409,5.50827 -3.43063,-3.15054 l 0.4401,-7.14354 -11.06459,-10.5538 c -6.08552,-5.80465 -11.74886,-10.55386 -12.5852,-10.55386 -2.1084,0 -8.30315,2.7433 -27.57098,12.20959 -9.12482,4.48302 -16.92442,7.81711 -17.33243,7.40908 -0.99549,-0.99547 12.37354,-14.27557 16.02888,-15.92226 8.3352,-3.7549 19.77456,-12.27469 19.72936,-14.69396 -0.0915,-4.8966 -9.08136,-11.77707 -19.90575,-15.23504 -4.3341,-1.38457 -8.49123,-2.51741 -9.23805,-2.51741 -2.50524,0 -12.06645,-4.07759 -12.06645,-5.14601 0,-0.581 1.40625,-1.4093 3.125,-1.84069 3.67932,-0.92345 4.18305,-3.0133 0.7263,-3.0133 -1.31929,0 -4.03705,-0.94029 -6.03948,-2.08952 -4.89001,-2.80648 -7.0402,-1.70149 -11.88535,6.10792 -5.6928,9.17567 -7.22442,13.89792 -8.04158,24.79345 l -0.70777,9.43686 14.91157,20.56314 c 8.20136,11.30974 20.93228,29.00065 28.29093,39.31315 7.35867,10.3125 14.92423,20.66931 16.81238,23.01512 25.01271,31.07561 43.07839,49.57858 52.808,54.08629 17.16755,7.95369 33.82895,23.65426 48.14877,45.37214 11.35393,17.2197 16.81922,29.11065 14.15566,30.79878 -4.05848,2.57219 -6.20248,0.91813 -13.25756,-10.22802 z m 110.95313,-99.84554 c 0,-1.33442 -0.5625,-2.77387 -1.25,-3.19877 -0.70895,-0.43815 -1.25,0.61203 -1.25,2.42622 0,1.75933 0.5625,3.19878 1.25,3.19878 0.6875,0 1.25,-1.0918 1.25,-2.42623 z m -42.26744,-31.61276 c 7.96614,-3.09602 11.77865,-5.45015 16.32994,-10.08332 3.26562,-3.32438 5.9375,-7.01934 5.9375,-8.211 0,-1.19168 0.50561,-2.70107 1.12358,-3.35419 0.61796,-0.65313 1.72477,-5.96875 2.45958,-11.8125 1.04791,-8.33374 0.9402,-13.72495 -0.49945,-25 -2.5727,-20.14875 -4.45587,-47.02754 -4.37887,-62.5 0.036,-7.21875 -0.30544,-17.0467 -0.7586,-21.8399 -0.82334,-8.7086 -0.83035,-8.72174 -9.69759,-18.17736 -4.8805,-5.20436 -18.3709,-19.733669 -29.97864,-32.287355 -15.41316,-16.669213 -22.07116,-23.018119 -24.6875,-23.541387 -1.97039,-0.394075 -3.58251,-1.222611 -3.58251,-1.84119 0,-1.733602 -6.28469,-3.720271 -9.02124,-2.851725 -1.34256,0.426114 -3.0836,2.549814 -3.86897,4.719333 l -1.42794,3.944581 -0.65343,-4.375 -0.65342,-4.375 -21.17479,0.299781 c -11.64612,0.16488 -21.62997,0.754983 -22.18633,1.311339 -0.55635,0.556358 -1.57762,5.476174 -2.26947,10.932926 -1.05555,8.325376 -1.83103,10.494499 -4.82074,13.484198 -3.31406,3.31407 -4.43024,3.610626 -15.98635,4.247404 -10.44599,0.575606 -12.74866,0.35944 -14.46613,-1.358037 -2.70374,-2.703735 -3.47119,-2.576181 -3.47119,0.576927 0,3.551768 4.42556,9.519211 8.69821,11.728678 11.17498,5.778807 29.16894,10.631747 42.55179,11.476137 13.96727,0.88126 24.12444,-0.86865 30.61735,-5.27486 8.74909,-5.937299 9.95239,-3.26243 3.5184,7.8213 -2.27804,3.92436 -2.73726,5.81363 -1.823,7.5 2.34845,4.33176 13.27356,12.87921 16.46185,12.87921 2.394,0 12.4754,5.01861 12.4754,6.21036 0,1.67556 -5.19209,5.03964 -7.77814,5.03964 -3.35017,0 -2.85225,5.54942 0.70719,7.88166 1.61097,1.05555 5.97035,2.48404 9.6875,3.17441 15.91606,2.95603 17.65506,6.44393 3.21281,6.44393 -9.32507,0 -11.1856,-0.72414 -17.93724,-6.98135 -2.63843,-2.44521 -3.60775,-2.73085 -5.09071,-1.5001 -2.40052,1.99226 -6.62739,11.41117 -11.37904,25.35645 -6.32046,18.54949 -7.0884,20.40786 -9.56321,23.1425 -1.6012,1.76931 -3.28055,2.39677 -5.15537,1.92622 -2.1222,-0.53263 -3.44288,0.2322 -5.57763,3.23018 -2.45764,3.45145 -2.80672,5.53719 -2.87701,17.18959 -0.0762,12.63776 0.1185,13.6592 4.14082,21.71688 7.26607,14.55579 22.70844,27.54702 40.695,34.23552 5.82463,2.16596 10.29457,2.81867 19.64759,2.86898 10.75584,0.0579 13.2678,-0.3858 22.5,-3.97386 z M 337.98287,75.831356 c -0.39544,-3.778396 -0.28212,-7.997146 0.25184,-9.375 1.72153,-4.442275 2.56714,0.579433 1.47255,8.744811 l -1.00538,7.5 -0.71901,-6.869811 z m -10.1893,-2.379582 c -0.85687,-4.284363 -0.28741,-6.375607 1.73615,-6.375607 1.38308,0 1.40888,4.581113 0.0454,8.06649 -0.8101,2.070845 -1.08056,1.81415 -1.78156,-1.690883 z M 276.95595,214.58417 c 2.40625,-1.30455 5.58386,-2.92952 7.06136,-3.61106 7.09379,-3.27218 8.77068,-12.48077 3.42882,-18.82921 -5.59809,-6.65295 -6.97174,-6.79569 -13.12312,-1.36364 -3.02064,2.66741 -7.159,6.28066 -9.19637,8.02944 -4.02813,3.45753 -4.06852,2.59113 0.72034,15.45397 1.29283,3.47256 5.09277,3.5822 11.10897,0.3205 z m -19.32088,-4.69271 c -2.18775,-5.70118 -3.21692,-13.80313 -2.1199,-16.6885 1.35849,-3.57311 11.05042,-13.33221 14.25038,-14.34915 1.20152,-0.38185 2.50311,-1.96335 2.89241,-3.51445 1.01301,-4.03617 -14.34291,-26.25515 -26.87629,-38.88819 -5.4566,-5.5 -13.61641,-15.0625 -18.1329,-21.25 -17.62582,-24.147024 -20.54011,-26.875003 -28.71036,-26.875003 -5.68031,0 -24.23685,12.598213 -26.78091,18.181833 -2.37041,5.20248 -1.79805,19.55255 1.04435,26.18359 2.8486,6.64554 7.47126,11.27927 39.91396,40.00958 3.10534,2.75 13.95388,12.73437 24.10785,22.1875 17.67368,16.45377 22.2625,19.82666 20.41141,15.00279 z m -27.34578,-42.39863 c -1.66394,-1.66392 -0.69698,-2.87472 6.97916,-8.73906 4.29687,-3.28269 8,-6.40931 8.22916,-6.94806 0.83619,-1.96578 2.70834,-0.91189 2.70834,1.52461 0,3.31312 -11.34463,14.99585 -14.56187,14.99585 -1.3868,0 -2.89647,-0.375 -3.35479,-0.83334 z m -73.33953,22.39584 c -0.0164,-5.77596 6.89891,-22.51579 10.81923,-26.19031 1.61534,-1.51405 2.93696,-3.45638 2.93696,-4.31628 0,-2.23361 -18.80756,-19.6021 -22.26711,-20.56332 -4.3266,-1.20214 -6.73978,0.48415 -15.10948,10.55824 -6.34771,7.64033 -7.62341,9.96102 -7.62341,13.86807 0,5.80685 2.23706,8.40743 16.25,18.89046 5.84375,4.3717 10.8125,8.39677 11.04166,8.94459 0.80448,1.92311 3.95828,0.97234 3.95215,-1.19145 z m 161.25259,-3.58295 c 5.5788,-5.04013 6.48397,-9.55817 2.98484,-14.89853 -2.5425,-3.88033 -4.87133,-3.87197 -12.23622,0.044 -3.23251,1.71875 -6.62242,3.125 -7.53311,3.125 -0.91069,0 -2.33798,0.82198 -3.17176,1.82663 -1.48399,1.7881 -1.39278,2.40862 1.89056,12.86087 0.30715,0.97778 2.84306,1.5625 6.77645,1.5625 5.46638,0 6.9378,-0.58918 11.28924,-4.52045 z m -24.9964,-10.50069 c 0,-5.39375 0.57286,-6.7258 4.80645,-11.17622 5.64724,-5.93648 10.9184,-6.64677 18.94355,-2.55264 5.60805,2.86101 6.25,2.98626 6.25,1.21936 0,-3.57261 -17.69814,-28.71936 -20.21253,-28.71936 -0.71233,0 -4.07667,2.50084 -7.47632,5.55741 -4.57785,4.11588 -7.60165,5.77042 -11.65741,6.37861 -5.24623,0.78673 -8.15374,0.17435 -8.15374,-1.71732 0,-1.21158 11.98655,-8.9687 13.8587,-8.9687 2.07457,0 12.3913,-8.58856 12.3913,-10.31562 0,-3.37544 -5.47413,-7.18438 -10.32523,-7.18438 -5.33452,0 -18.63369,-2.97628 -26.54977,-5.94168 -9.0398,-3.38636 -13.20914,-5.8575 -19.86127,-11.77166 -5.59672,-4.975819 -6.81918,-6.890107 -8.27474,-12.957567 -1.75386,-7.310929 -1.69959,-7.792307 3.41268,-30.266596 0.48748,-2.143005 0.0844,-2.809708 -1.69344,-2.80077 -3.7825,0.01901 -14.58789,6.846914 -19.57992,12.372484 -8.89898,9.85011 -5.74582,19.498376 12.96842,39.681709 8.81191,9.50366 25.22569,30.76514 44.24241,57.30908 15.66531,21.86598 16.91086,22.73906 16.91086,11.85386 z M 119.30762,155.58887 c 2.14408,-2.19301 3.89833,-4.48229 3.89833,-5.08727 0,-1.8175 7.80671,-12.63353 10.88336,-15.07866 1.57665,-1.25302 2.86664,-3.03335 2.86664,-3.95626 0,-1.85879 -10.44406,-11.5198 -14.375,-13.29722 -1.375,-0.62173 -4.1875,-2.20595 -6.25,-3.52049 -6.20458,-3.95451 -8.25563,-3.20499 -13.75,5.02471 -10.056549,15.06311 -9.814409,14.48094 -7.938629,19.08621 0.92874,2.28021 3.11188,5.78731 4.85142,7.79356 4.311539,4.97261 13.471099,13.02272 14.817479,13.02272 0.60395,0 2.85233,-1.79429 4.9964,-3.9873 z m 213.93815,-14.80253 c 2.85398,-2.85397 2.64361,-3.44682 -3.90973,-11.01748 -4.32988,-5.00204 -7.26352,-6.1183 -11.65285,-4.43395 -1.08749,0.4173 -1.97724,1.97251 -1.97724,3.45601 0,2.99751 4.52741,12.14687 6.71915,13.57861 2.6932,1.75931 8.29826,0.93923 10.82067,-1.58319 z M 91.433841,128.01367 c 1.99386,-3.60937 4.19263,-7.49903 4.88616,-8.64368 0.69352,-1.14465 2.6341,-4.67593 4.312389,-7.84729 l 3.05145,-5.76611 -7.426449,-7.739959 C 74.794279,75.647435 65.173915,68.326167 57.243242,68.326167 c -6.973105,0 -12.787291,5.780687 -12.787291,12.713616 0,11.104025 7.69103,22.921977 24.166742,37.134337 6.302042,5.4363 12.821934,11.3507 14.488648,13.14311 1.66672,1.79241 3.40545,3.25894 3.86384,3.25894 0.4584,0 2.46479,-2.95312 4.45866,-6.5625 z M 273.90454,79.027297 c 2.06466,-1.530675 2.19346,-2.180419 0.86391,-4.358039 -0.85938,-1.407544 -1.5625,-5.078261 -1.5625,-8.15715 0,-6.416511 -1.21015,-7.464647 -10.16954,-8.808062 -7.41032,-1.11114 -10.2581,0.44811 -12.11051,6.630911 -3.75205,12.523241 -0.73083,15.705553 15.47864,16.30392 2.79047,0.103012 6.16547,-0.622201 7.5,-1.61158 z m 44.30141,-30.506406 c 9.53801,-2.694724 10.67732,-4.89102 5.42796,-10.463675 -3.0691,-3.258105 -8.3154,-6.078693 -31.39563,-16.879328 -3.92372,-1.836146 -4.42026,-1.753937 -12.02822,1.991452 -10.53067,5.184231 -18.55136,13.754098 -18.01681,19.250408 0.49755,5.115784 1.94971,5.531162 24.1377,6.904372 9.625,0.595688 18.90625,1.175145 20.625,1.287678 1.71875,0.112538 6.78125,-0.828375 11.25,-2.090907 z M 135.18886,362.69043 c -1.1223,-1.71284 -2.7307,-3.12437 -3.57422,-3.13672 -0.84353,-0.0125 -3.38326,-2.85074 -5.64387,-6.30753 -4.53493,-6.93459 -7.08075,-8.54197 -10.12222,-6.39102 -1.75441,1.24073 -6.29947,3.46986 -15.7676,7.73323 -17.892259,8.05664 -33.608318,8.02449 -51.454256,-0.10525 -18.382607,-8.37425 -32.715021,-36.55566 -35.398561,-69.60318 -1.634042,-20.12308 -1.638368,-66.49062 -0.0078,-83.07147 0.695438,-7.07151 1.842733,-19.0448 2.549543,-26.6073 0.706811,-7.5625 1.808069,-17.96875 2.447237,-23.125 0.63917,-5.15625 1.518607,-13.29521 1.954303,-18.0866 0.920309,-10.12066 0.967972,-10.09262 9.496818,5.5866 8.364676,15.37743 7.694297,15.13865 16.896656,6.01809 4.340106,-4.3015 7.891061,-7.51364 7.891061,-7.13811 0,0.37552 -1.157286,7.10927 -2.571746,14.96389 -1.41446,7.85461 -3.421588,20.46861 -4.460284,28.03111 -1.038695,7.5625 -2.408105,17.40625 -3.043133,21.875 -2.802534,19.72171 -3.611911,33.91685 -3.634887,63.75 -0.01993,25.87923 0.326695,32.54847 1.842751,35.45539 1.027014,1.96921 1.867299,4.14356 1.867299,4.83188 0,0.68834 2.563912,5.10819 5.697584,9.82192 6.052756,9.10463 16.031326,18.61933 19.541145,18.63273 1.162551,0.005 2.461372,0.57058 2.886271,1.25808 0.424899,0.6875 4.149179,1.25 8.276178,1.25 8.073052,0 21.098821,-4.95256 21.098821,-8.02204 0,-2.37131 -3.656599,-5.24133 -10.312499,-8.09418 -3.26562,-1.39972 -5.9375,-3.0327 -5.9375,-3.62885 0,-0.59617 8.29688,-5.76133 18.437499,-11.47815 10.14062,-5.71683 23.20597,-13.26468 29.03411,-16.773 16.73106,-10.0715 15.5061,-10.45637 14.44643,4.53891 -0.49877,7.05777 -1.43682,15.92606 -2.08458,19.70731 -2.89069,16.87405 -4.84084,30.78984 -5.61385,40.05901 -0.45959,5.51082 -1.25424,10.27837 -1.76589,10.59459 -0.51163,0.31621 -1.84851,-0.82649 -2.97081,-2.53934 z" id="path4064" inkscape:connector-curvature="0"/>
</svg>