<?xml version="1.0" encoding="UTF-8" standalone="no"?>
<!-- Created with Inkscape (http://www.inkscape.org/) -->
<svg xmlns:dc="http://purl.org/dc/elements/1.1/" xmlns:cc="http://creativecommons.org/ns#" xmlns:rdf="http://www.w3.org/1999/02/22-rdf-syntax-ns#" xmlns:svg="http://www.w3.org/2000/svg" xmlns="http://www.w3.org/2000/svg" xmlns:sodipodi="http://sodipodi.sourceforge.net/DTD/sodipodi-0.dtd" xmlns:inkscape="http://www.inkscape.org/namespaces/inkscape" id="svg2" version="1.1" inkscape:version="0.48+devel r12701" width="242.37454" height="491.24921" viewBox="0 0 242.37454 491.24921" sodipodi:docname="d.svg">

  <metadata id="metadata8">
    <rdf:RDF>
      <cc:Work rdf:about="">
        <dc:format>image/svg+xml</dc:format>
        <dc:type rdf:resource="http://purl.org/dc/dcmitype/StillImage"/>
        <dc:title>ASL letter</dc:title>
        <dc:date>11/11/2013</dc:date>
        <dc:creator>
          <cc:Agent>
            <dc:title>edited by Paul Sherman</dc:title>
          </cc:Agent>
        </dc:creator>
        <dc:rights>
          <cc:Agent>
            <dc:title>PD</dc:title>
          </cc:Agent>
        </dc:rights>
        <dc:publisher>
          <cc:Agent>
            <dc:title>WPClipart</dc:title>
          </cc:Agent>
        </dc:publisher>
        <dc:subject>
          <rdf:Bag>
            <rdf:li>sign</rdf:li>
            <rdf:li>language</rdf:li>
            <rdf:li>letter</rdf:li>
            <rdf:li>american</rdf:li>
          </rdf:Bag>
        </dc:subject>
        <cc:license rdf:resource="http://creativecommons.org/publicdomain/zero/1.0/"/>
      </cc:Work>
      <cc:License rdf:about="http://creativecommons.org/publicdomain/zero/1.0/">
        <cc:permits rdf:resource="http://creativecommons.org/ns#Reproduction"/>
        <cc:permits rdf:resource="http://creativecommons.org/ns#Distribution"/>
        <cc:permits rdf:resource="http://creativecommons.org/ns#DerivativeWorks"/>
      </cc:License>
    </rdf:RDF>
  </metadata>
  <defs id="defs6"/>
  <sodipodi:namedview pagecolor="#ffffff" bordercolor="#666666" borderopacity="1" objecttolerance="10" gridtolerance="10" guidetolerance="10" inkscape:pageopacity="0" inkscape:pageshadow="2" inkscape:window-width="731" inkscape:window-height="480" id="namedview4" showgrid="false" fit-margin-top="12" fit-margin-left="12" fit-margin-bottom="12" fit-margin-right="12" inkscape:zoom="0.43906977" inkscape:cx="126.37981" inkscape:cy="229.5" inkscape:window-x="0" inkscape:window-y="0" inkscape:window-maximized="0" inkscape:current-layer="svg2"/>
  <path style="fill:#000000" d="m 48.522481,455.18672 c -0.38942,-13.31468 -1.5879,-28.86538 -2.683191,-34.8153 C 43.000274,404.94913 36.3069,382.20233 29.549905,365.01348 22.11942,346.11137 14.772136,315.81164 12.086932,292.99732 c -0.824973,-7.00924 4.334616,-41.34174 10.68162,-71.07674 3.548141,-16.62264 3.596813,-16.65631 31.862939,-22.0488 3.49237,-0.66626 4.02254,-1.39131 5.34795,-7.31389 1.89484,-8.46705 7.73052,-20.66016 11.58411,-24.20392 3.61317,-3.32269 11.32017,-6.18109 20.90056,-7.75169 6.16493,-1.01066 7.920409,-2.01109 14.113089,-8.04287 5.70073,-5.55263 8.69603,-7.39013 15.44416,-9.47442 4.60449,-1.42217 11.30535,-2.58577 14.89081,-2.58577 l 6.51903,0 6.76782,8.4375 c 6.83945,8.52681 11.0652,17.86786 11.13998,24.625 0.0275,2.48297 0.45326,3.27505 1.30346,2.42485 0.83381,-0.83381 0.85875,-3.3925 0.0734,-7.53348 -0.65407,-3.44893 -1.56098,-19.16512 -2.01535,-34.92483 -0.75876,-26.31754 -1.27437,-31.16416 -6.32342,-59.437262 -3.02351,-16.93077 -5.48495,-32.11827 -5.46985,-33.75 0.078,-8.423462 9.67332,-21.151821 19.33845,-25.652645 13.03975,-6.0723024 24.01154,-1.896232 33.94345,12.919522 8.45234,12.60861 10.09806,19.703492 11.54384,49.766341 1.06013,22.04394 1.79403,28.152744 4.58031,38.125004 4.37093,15.64389 5.12019,26.17712 2.57012,36.13099 -2.98447,11.64958 -2.50682,23.92162 1.69878,43.64577 7.32453,34.35179 8.59326,43.71373 7.3992,54.59824 -1.79774,16.3873 -7.08892,43.94667 -11.63952,60.625 -2.72332,9.98121 -5.02512,22.6233 -6.37258,35 -3.05463,28.0573 -5.88036,34.14146 -21.73019,46.78779 -13.78965,11.00253 -15.33796,18.99652 -9.55186,49.31672 1.7559,9.20124 3.19255,20.31061 3.19255,24.6875 0,7.63889 -0.12438,7.95799 -3.10119,7.95799 -2.2156,0 -3.26222,-0.80314 -3.66515,-2.8125 -0.31019,-1.54688 -2.95731,-13.9508 -5.8825,-27.56429 -4.67824,-21.77192 -5.16597,-25.49647 -4.0514,-30.9375 1.3959,-6.81431 1.13188,-7.02635 -5.36756,-4.31071 -8.47092,3.53937 -26.91321,1.68907 -38.71519,-3.88426 -13.41684,-6.33594 -25.702849,-25.142 -28.327499,-43.36058 -1.1567,-8.02906 -0.99975,-10.05646 1.37674,-17.78367 1.47525,-4.79682 6.356669,-14.86708 10.847629,-22.37834 5.23566,-8.75684 7.90913,-14.46411 7.45126,-15.90675 -0.47309,-1.49058 -3.6378,-3.12061 -9.37712,-4.82986 -4.76467,-1.41898 -10.143669,-3.85355 -11.953329,-5.41015 l -3.2903,-2.8302 -6.98255,2.35728 c -8.31478,2.80707 -15.54553,2.1306 -21.69531,-2.02965 -6.86042,-4.641 -7.74156,-5.09871 -6.7609,-3.51196 0.63201,1.02253 -1.0677,1.44314 -5.83181,1.44314 -5.924717,0 -7.354485,0.53986 -12.030991,4.54277 -5.552661,4.75288 -6.906015,4.60113 -8.270169,-0.92731 -0.705412,-2.85878 -0.07521,-3.74245 5.125853,-7.1875 4.356504,-2.88565 7.365891,-3.92796 11.340813,-3.92796 2.975884,0 5.410694,-0.29995 5.410694,-0.66655 0,-2.96604 -18.726309,-33.10406 -21.15442,-34.04583 -0.47842,-0.18556 -2.178411,9.37694 -3.777759,21.25 -2.835027,21.04637 -2.856608,21.93198 -0.861134,35.33738 2.403762,16.14823 21.356172,74.37036 27.619763,84.84843 6.09885,10.20243 11.45596,12.47167 31.29855,13.25778 9.75945,0.38665 16.17783,1.14306 16.06931,1.89379 -0.0994,0.6875 -1.69005,2.375 -3.53485,3.75 -3.00466,2.2395 -5.30555,2.5 -22.08182,2.5 l -18.72767,0 0.68857,5.625 c 0.37872,3.09375 1.53805,15.46875 2.5763,27.5 1.03826,12.03125 2.18165,24.125 2.54088,26.875 0.64288,4.92146 0.57444,5.02455 -4.3566,6.5625 -2.75536,0.85937 -5.50316,1.5625 -6.10622,1.5625 -0.60306,0 -1.41317,-10.82813 -1.80023,-24.0625 z M 165.25578,397.81415 c 10.54502,-3.56149 23.12002,-16.66922 30.79408,-32.09862 3.92414,-7.88985 4.56524,-10.40089 4.62754,-18.125 0.0481,-5.97365 -0.65322,-10.57284 -2.10142,-13.77961 l -2.17372,-4.81329 -5.94873,4.93758 c -7.976,6.62027 -15.58023,11.51622 -18.8709,12.14995 -1.48462,0.28591 -3.95026,1.39603 -5.4792,2.46695 -8.37142,5.86357 -25.14026,-3.01223 -39.88862,-21.11314 l -6.71,-8.23531 -3.50354,4.08527 c -1.92694,2.24691 -5.28552,7.74154 -7.46354,12.21029 -3.52188,7.22611 -3.95388,9.30047 -3.9048,18.75 0.0414,7.97094 0.76133,12.43119 2.88203,17.85572 3.50791,8.9729 14.58824,21.36407 20.99462,23.47837 10.3713,3.42284 29.73605,4.59845 36.7462,2.23084 z m 3.62403,-61.35492 c 0,-0.70856 1.52341,-0.99152 3.4375,-0.63849 3.0731,0.56683 4.13318,-0.30199 10,-8.19583 3.60937,-4.85643 6.5625,-10.15263 6.5625,-11.76933 0,-3.61682 -4.92186,-13.51236 -11.67199,-23.46686 -11.4454,-16.8787 -22.27751,-25.3338 -30.48366,-23.79432 -10.70036,2.00739 -20.17325,9.99657 -22.98643,19.38611 -3.84405,12.83027 7.96324,33.99509 25.09949,44.99139 8.20268,5.26363 20.04259,7.32375 20.04259,3.48733 z M 134.1346,306.83778 c -5.99922,-6.70061 -7.75479,-9.5445 -7.75479,-12.56207 0,-12.73417 19.74294,-26.7659 29.96374,-21.29589 1.26467,0.67682 4.41468,5.0362 7.00003,9.6875 2.58537,4.65129 5.48852,9.6808 6.45144,11.17667 1.68496,2.6175 1.20481,3.07575 -12.7698,12.1875 -7.98634,5.20726 -14.65904,9.46773 -14.82822,9.46773 -0.1692,0 -3.79728,-3.89765 -8.0624,-8.66144 z m 19.89102,-9.04858 c 8.31174,-3.34737 8.78025,-3.73257 7.35149,-6.04434 -0.99936,-1.617 -1.358,-1.58414 -2.76044,0.25299 -0.88652,1.1613 -3.51677,2.28356 -5.84501,2.49391 -2.71859,0.24562 -4.89747,1.38872 -6.08996,3.19496 -2.31186,3.50176 -1.13744,3.51815 7.34392,0.1025 z m -14.43886,-1.54644 c 1.15178,-4.58908 5.98571,-8.37314 11.67019,-9.13559 2.81757,-0.37791 5.12286,-0.9141 5.12286,-1.19151 0,-0.27743 -0.94167,-1.94159 -2.09262,-3.69814 -1.72169,-2.62763 -2.75567,-3.06114 -5.83312,-2.44565 -4.82915,0.96582 -11.91003,6.38266 -13.37285,10.23014 -0.74618,1.96262 -0.64952,4.09083 0.27829,6.12716 1.79177,3.93254 3.25885,3.97195 4.22725,0.11362 z m 70.86867,-2.61854 c 6.09285,-22.44711 8.92109,-36.02331 10.28594,-49.375 0.74503,-7.28811 0.44186,-9.03392 -2.94327,-16.94929 -8.45778,-19.77652 -12.0376,-51.96178 -8.44215,-75.90105 2.80914,-18.70387 2.57426,-22.30069 -2.37827,-36.42105 -4.03156,-11.49454 -4.34945,-13.49521 -4.36953,-27.500009 -0.0266,-18.518866 -1.85488,-36.887356 -4.45462,-44.753904 -2.09888,-6.35102 -11.50783,-17.825108 -15.71077,-19.159068 -1.41615,-0.449469 -5.04794,-0.124788 -8.07064,0.721518 -6.32216,1.770097 -14.25466,9.595485 -14.22096,14.02895 0.027,3.561318 7.9722,43.09412 8.8341,43.956011 0.3532,0.353205 3.3818,-0.744776 6.73021,-2.439959 8.37825,-4.241607 12.58844,-4.071661 15.00724,0.605772 1.0489,2.028359 1.9071,3.997109 1.9071,4.375 0,0.377891 -2.42113,0.687075 -5.38027,0.687075 -3.84658,0 -7.08853,1.08334 -11.37287,3.800387 -5.50222,3.489412 -5.90582,4.077553 -4.93222,7.187503 0.5832,1.86291 1.07355,18.012114 1.08968,35.887114 0.0196,21.75165 0.59309,35.70384 1.73399,42.1875 0.93758,5.32812 1.88108,9.6875 2.09667,9.6875 0.21558,0 3.26258,-0.61564 6.77111,-1.36808 5.20098,-1.11541 7.98267,-0.97511 15.06152,0.75965 8.61873,2.11213 8.68239,2.15882 8.68239,6.36808 0,4.86327 0.13601,4.82335 -8.01116,2.35183 -3.37489,-1.02382 -10.26552,-1.86148 -15.3125,-1.86148 -7.32342,0 -9.17634,-0.37861 -9.17634,-1.875 0,-2.92608 -2.96873,-2.21116 -6.4884,1.5625 -3.6807,3.94631 -5.30856,6.94634 -6.52531,12.02567 -0.85558,3.57155 -0.83755,3.58415 3.88957,2.71813 l 4.74914,-0.87004 -5.17586,5.40686 -5.17585,5.40688 1.03635,11.875 c 0.57,6.53125 1.43163,16.46384 1.91476,22.07242 l 0.8784,10.19743 10.1361,10.44772 c 8.4422,8.70173 11.80726,13.51356 20.1361,28.79332 5.5,10.09008 10.32236,17.95602 10.71635,17.47986 0.394,-0.47616 3.31191,-10.42825 6.48427,-22.11575 z m -94.79029,-8.19035 c 6.5514,-7.25161 7.53941,-10.50771 4.45538,-14.68321 -3.02967,-4.1019 -6.18942,-18.30652 -6.21901,-27.95741 -0.0165,-5.39079 -1.3619,-10.50853 -5.63642,-21.4406 -6.29265,-16.09347 -8.769139,-25.84548 -10.057129,-39.60343 -0.48272,-5.15625 -1.5134,-9.78826 -2.29041,-10.29336 -0.777,-0.5051 -3.47895,-0.92698 -6.00433,-0.9375 -8.7693,-0.0365 -16.85283,10.30887 -18.1918,23.28209 -0.63327,6.13591 -0.23631,7.61085 4.48179,16.65197 5.1417,9.85289 5.1766,10.01128 5.1766,23.48923 l 0,13.56945 5.18726,8.1764 5.18727,8.17641 5.43742,-3.03904 5.437429,-3.03904 6.25031,4.58815 c 6.33841,4.65284 7.9587,8.4522 4.21687,9.88807 -1.11838,0.42917 -2.72768,0.20412 -3.57621,-0.50009 -1.06985,-0.8879 -2.8768,-0.723 -5.89461,0.53791 -2.3935,1.00008 -5.644229,1.48034 -7.223839,1.06726 -2.73529,-0.7153 -2.82891,-0.5188 -1.96669,4.12803 0.49794,2.68349 2.29284,6.70719 3.98868,8.94156 2.535269,3.34039 3.934939,4.0625 7.874269,4.0625 4.01353,0 5.5335,-0.82194 9.36717,-5.06535 z m -34.733829,-0.55284 c 2.99474,-1.25129 4.24265,-2.46377 3.77909,-3.67181 -0.38068,-0.992 -1.33083,-4.22944 -2.11145,-7.19431 -0.78063,-2.96488 -3.42919,-9.60399 -5.88569,-14.75359 -4.15782,-8.71609 -4.52007,-10.44506 -5.24376,-25.02813 -0.6262,-12.61848 -1.27723,-16.51065 -3.34738,-20.0121 l -2.56998,-4.34687 -10.42798,0.34821 c -16.208707,0.54124 -21.402105,4.56614 -21.702494,16.81951 -0.156878,6.39939 0.399225,7.73394 9.300409,22.31933 5.206995,8.53212 10.486545,18.18482 11.732325,21.45045 2.46052,6.44986 4.42541,7.72957 4.42541,2.8822 0,-1.68041 1.27252,-4.53468 2.82782,-6.34283 2.73095,-3.17492 3.03399,-3.23561 8.8466,-1.77198 4.60011,1.15832 6.32216,2.28508 7.30581,4.78033 4.3778,11.10517 3.19265,14.69215 -1.95317,5.91149 -6.23596,-10.64086 -11.9608,-8.5757 -12.00999,4.33245 -0.009,2.46355 0.35793,4.85418 0.81626,5.3125 1.51405,1.51405 11.66855,0.8661 16.21817,-1.03485 z m 21.073499,-16.88181 c 0.4249,-0.6875 -0.0712,-1.25 -1.10246,-1.25 -1.031249,0 -2.222639,0.5625 -2.647539,1.25 -0.4249,0.6875 0.0712,1.25 1.10246,1.25 1.031249,0 2.222639,-0.5625 2.647539,-1.25 z m 32.46585,-4.29301 c 3.14771,-1.67367 8.68766,-3.65847 12.31097,-4.41066 6.45892,-1.34087 6.57858,-1.44644 6.11419,-5.39448 -0.43221,-3.6744 -0.86547,-4.03581 -4.95024,-4.12919 -3.41387,-0.078 -5.24382,0.74566 -7.70867,3.46993 -2.1984,2.42977 -5.03111,3.8728 -8.8571,4.51193 -3.09375,0.51682 -5.48438,1.34598 -5.3125,1.84258 0.17187,0.49659 0.3125,2.30915 0.3125,4.0279 0,3.88143 0.92739,3.89082 8.09085,0.082 z m -4.71585,-10.70699 c 2.99977,0 7.875,-3.97047 7.875,-6.41355 0,-2.37336 -9.15175,-0.18564 -11.5625,2.76401 -2.55214,3.12264 -3.15173,7.61376 -0.6875,5.14954 0.825,-0.825 2.79375,-1.5 4.375,-1.5 z m 20.26596,-22.56033 c -1.50777,-14.02355 -1.42611,-16.75406 1.05383,-35.23506 l 2.68825,-20.03347 -2.61533,-5.14807 c -1.43844,-2.83143 -4.49889,-8.1012 -6.801,-11.71057 -3.90034,-6.11516 -4.52457,-6.5625 -9.1575,-6.5625 -6.7372,0 -16.44159,3.37994 -19.16619,6.67539 -1.22758,1.48478 -3.63286,5.38168 -5.34503,8.65977 -3.06034,5.85921 -3.09016,6.19798 -1.76025,20 1.64138,17.03461 1.41579,16.17915 8.23684,31.23325 3.03867,6.70638 5.87547,14.7513 6.30397,17.87761 0.63035,4.59884 1.16265,5.51907 2.78778,4.81937 1.10477,-0.47565 4.36275,-1.753 7.23994,-2.83855 l 5.23127,-1.97372 6.01873,5.13275 c 3.3103,2.82302 6.22132,4.9466 6.46893,4.71907 0.24761,-0.22753 -0.28529,-7.25439 -1.18424,-15.61527 z" id="path4064" inkscape:connector-curvature="0"/>
</svg>