<?xml version="1.0" encoding="UTF-8" standalone="no"?>
<!-- Created with Inkscape (http://www.inkscape.org/) -->
<svg xmlns:dc="http://purl.org/dc/elements/1.1/" xmlns:cc="http://creativecommons.org/ns#" xmlns:rdf="http://www.w3.org/1999/02/22-rdf-syntax-ns#" xmlns:svg="http://www.w3.org/2000/svg" xmlns="http://www.w3.org/2000/svg" xmlns:sodipodi="http://sodipodi.sourceforge.net/DTD/sodipodi-0.dtd" xmlns:inkscape="http://www.inkscape.org/namespaces/inkscape" id="svg2" version="1.1" inkscape:version="0.48+devel r12701" width="248.88156" height="515.97192" viewBox="0 0 248.88156 515.97192" sodipodi:docname="v.svg">

  <metadata id="metadata8">
    <rdf:RDF>
      <cc:Work rdf:about="">
        <dc:format>image/svg+xml</dc:format>
        <dc:type rdf:resource="http://purl.org/dc/dcmitype/StillImage"/>
        <dc:title>ASL letter</dc:title>
        <dc:date>11/11/2013</dc:date>
        <dc:creator>
          <cc:Agent>
            <dc:title>edited by Paul Sherman</dc:title>
          </cc:Agent>
        </dc:creator>
        <dc:rights>
          <cc:Agent>
            <dc:title>PD</dc:title>
          </cc:Agent>
        </dc:rights>
        <dc:publisher>
          <cc:Agent>
            <dc:title>WPClipart</dc:title>
          </cc:Agent>
        </dc:publisher>
        <dc:subject>
          <rdf:Bag>
            <rdf:li>sign</rdf:li>
            <rdf:li>language</rdf:li>
            <rdf:li>letter</rdf:li>
            <rdf:li>american</rdf:li>
          </rdf:Bag>
        </dc:subject>
        <cc:license rdf:resource="http://creativecommons.org/publicdomain/zero/1.0/"/>
      </cc:Work>
      <cc:License rdf:about="http://creativecommons.org/publicdomain/zero/1.0/">
        <cc:permits rdf:resource="http://creativecommons.org/ns#Reproduction"/>
        <cc:permits rdf:resource="http://creativecommons.org/ns#Distribution"/>
        <cc:permits rdf:resource="http://creativecommons.org/ns#DerivativeWorks"/>
      </cc:License>
    </rdf:RDF>
  </metadata>
  <defs id="defs6"/>
  <sodipodi:namedview pagecolor="#ffffff" bordercolor="#666666" borderopacity="1" objecttolerance="10" gridtolerance="10" guidetolerance="10" inkscape:pageopacity="0" inkscape:pageshadow="2" inkscape:window-width="982" inkscape:window-height="998" id="namedview4" showgrid="false" fit-margin-top="12" fit-margin-left="12" fit-margin-right="12" fit-margin-bottom="12" inkscape:zoom="1.0620717" inkscape:cx="219.63885" inkscape:cy="168.44522" inkscape:window-x="363" inkscape:window-y="0" inkscape:window-maximized="0" inkscape:current-layer="svg2"/>
  <path style="fill:#000000" d="m 78.642943,502.5564 c -1.54688,-0.74604 -2.8125,-1.85104 -2.8125,-2.45555 0,-2.45215 3.66232,-9.43207 7.36144,-14.02992 2.75097,-3.41936 3.70052,-5.67071 3.16323,-7.5 -1.60815,-5.47523 -7.13337,-12.26572 -14.61143,-17.95743 -13.42052,-10.21464 -21.75516,-18.79853 -24.5414,-25.27532 -3.660952,-8.51011 -5.75183,-19.35018 -9.487695,-49.18862 L 34.480395,360.318 23.280419,339.75151 c -11.538794,-21.18865 -13.015267,-26.06048 -9.79328,-32.31418 3.730333,-7.24037 12.775818,-17.06171 25.135528,-27.29146 7.479166,-6.19027 14.084736,-12.47766 14.679046,-13.97196 0.5943,-1.49429 1.7327,-8.62315 2.52977,-15.8419 1.69032,-15.30865 3.77035,-24.88464 8.84924,-40.7399 l 3.67757,-11.48061 6.82675,-3.23232 c 3.75471,-1.77777 8.22537,-3.58335 9.9348,-4.01238 5.51502,-1.38419 6.08331,-3.26659 5.3528,-17.7309 -0.51635,-10.22397 -2.41432,-16.72941 -3.61503,-29.04212 -2.05751,-21.09869 -2.97645,-27.58627 -2.8648,-46.373799 0.0857,-14.427023 0.10357,-14.848469 -2.32302,-35.980111 -2.08455,-18.152917 -0.66509,-22.55935 0.63176,-28.35428 1.71408,-7.659272 7.61582,-13.992498 14.08122,-18.349535 4.915487,-3.312543 11.641297,-4.116972 17.924557,-1.400902 5.84979,2.528691 17.82363,16.315575 21.15341,23.573374 2.63499,5.743375 3.9679,12.903312 4.20995,21.248484 0.69627,24.005496 0.22953,29.44778 3.06792,54.049989 1.58648,13.75103 5.72793,39.37808 6.1549,47.82501 0.39967,7.90625 1.06549,19.01562 1.47963,24.6875 0.82817,11.34209 0.90141,11.41117 10.13887,9.56369 l 3.74409,-0.74883 2.41763,-20.82428 c 2.94385,-25.35696 6.34152,-31.32311 8.50424,-44.55232 2.75606,-16.8586 4.20738,-13.85151 2.81498,-47.396331 -1.07106,-25.80342 2.13795,-35.715284 7.29414,-45.890558 5.27062,-10.401073 15.56794,-9.285982 22.05618,-8.673234 7.60184,0.717916 18.65637,14.59913 21.52698,21.685173 0.97965,2.418257 1.94181,12.504426 2.411,25.274191 0.48259,13.13462 2.77918,20.82495 3.1038,29.634069 l 0.75863,20.58636 -2.346,23.10051 c -3.44664,33.9383 -7.1657,42.92716 -7.52008,84.17906 -0.28857,33.59174 -0.50479,36.72424 -2.9484,42.717 l -2.637,6.467 8.25708,28.533 c 10.25382,35.43292 10.85738,46.43631 5.95339,64.81382 -3.05475,11.44759 -1.05322,9.20078 -4.38423,18.08228 -5.13386,13.68847 -7.23464,23.19866 -8.5161,26.74629 -3.0854,8.54166 -6.6041,14.05677 -9.31306,21.80605 -5.46634,15.63701 -6.32684,32.04111 -6.32684,41.12917 0,6.33325 2.75632,15.4178 0.6095,17.70298 -2.08628,2.22075 -9.747,-3.99248 -11.56399,-4.9649 -2.94085,-1.5739 -2.66435,-9.82625 1.5677,-32.62244 4.37604,-23.57181 8.09846,-29.0147 13.48859,-41.38188 l 5.8982,-13.53286 c 0.95724,-4.7737 3.55549,-9.42449 4.51274,-15.55186 1.87247,-11.98572 2.31263,-11.51407 4.19686,-24.85675 1.72525,-12.21687 4.93677,-29.03841 -4.10628,-50.20425 -2.81251,-6.58288 -9.05215,-17.15334 -10.35594,-23.4899 -5.05867,-24.58548 -8.33188,-29.3045 -25.06497,-36.13645 -6.35117,-2.59312 -11.66771,-4.55536 -11.81451,-4.36054 -0.1468,0.19483 -1.86512,3.33749 -3.8185,6.98368 -3.97343,7.41685 -11.88096,15.24556 -15.39906,15.24556 -3.74894,0 -23.56884,-13.48371 -24.40509,-16.60308 -1.42695,-5.32275 -0.88584,-8.39692 1.47802,-8.39692 2.83898,0 12.40035,6.09176 16.40012,10.44888 1.66672,1.81561 3.95211,3.30112 5.07863,3.30112 2.50534,0 7.7656,-5.45777 10.51729,-10.91221 l 2.03673,-4.0372 -8.45652,-4.27164 c -4.65108,-2.34939 -10.65923,-6.02974 -13.35145,-8.17854 -9.1187,-7.27813 -13.29831,-6.7774 -17.29725,2.07233 -2.09098,4.62738 -2.70281,8.45632 -2.74875,17.20226 -0.066,12.56199 1.38534,16.75127 8.8069,25.4217 5.55727,6.49241 21.43818,16.1428 29.36119,17.84199 5.88196,1.26145 6.61824,1.92221 17.02356,15.2774 5.98164,7.6774 12.87227,16.45851 15.31249,19.51357 2.44024,3.05508 3.59304,5.06049 2.56179,4.45649 -14.75739,-8.64334 -22.38364,-14.61095 -26.1272,-20.44478 -2.27338,-3.54276 -4.49665,-6.44905 -4.94061,-6.45843 -0.44395,-0.01 -2.07282,-0.35625 -3.61969,-0.7708 -2.29716,-0.61561 -2.8125,-0.24628 -2.8125,2.01566 0,4.85215 -3.98776,11.39407 -8.94536,14.67485 -2.64255,1.74876 -4.8119,4.08919 -4.82077,5.20096 -0.009,1.11177 -1.13387,5.58713 -2.5,9.94525 -3.05453,9.74435 -3.27043,24.56099 -0.49597,34.03677 3.19156,10.90028 13.02899,28.32125 20.75224,36.7498 6.39996,6.98443 15.06842,12.71401 22.65158,14.97197 3.47494,1.0347 1.21398,3.1926 -3.34506,3.1926 -18.84055,0 -50.1365,-37.60776 -52.84279,-63.50021 l -0.7767,-7.43109 -12.02608,-0.58299 c -20.185927,-0.97855 -26.456387,-5.26597 -36.321347,-24.83476 -5.65707,-11.22169 -5.85109,-11.43625 -13.11037,-14.4975 -10.30931,-4.34744 -13.30556,-6.55441 -15.26491,-11.2438 -2.39524,-5.73262 -2.2571,-20.92844 0.21272,-23.39825 1.65507,-1.65507 9.29263,-4.48349 12.16331,-4.50442 0.52553,-0.004 -0.7401,3.35198 -2.8125,7.45737 -2.07239,4.1054 -3.76799,8.6054 -3.76799,10 0,4.54129 9.18335,12.26389 17.48116,14.70054 6.77514,1.9895 7.66594,2.64681 8.92434,6.58511 0.76885,2.40625 3.32982,8.09909 5.69105,12.65076 8.54522,16.47239 27.762557,24.34436 38.606657,15.81439 3.292,-2.58949 8.04679,-10.84323 8.04679,-13.96826 0,-2.69572 -16.88246,-7.99509 -19.75054,-6.19965 -2.59445,1.62412 -3.38571,6.92827 -1.54627,10.3653 1.41451,2.64305 0.53585,8.83746 -1.25358,8.83746 -2.72229,0 -6.72544,-8.33436 -7.20809,-15.00685 -0.47493,-6.56597 -0.25672,-7.25812 3.20712,-10.17276 3.3684,-2.83431 3.54876,-3.35319 1.92443,-5.5364 -1.30675,-1.75639 -1.57361,-4.20334 -0.9851,-9.03264 l 0.8072,-6.62365 -6.27903,-6.08393 c -3.77252,-3.65528 -8.106997,-9.74345 -10.858247,-15.25135 -9.59155,-19.20187 -15.33947,-19.29507 -37.70166,-0.61137 -16.45075,13.74467 -29.89944,28.37927 -31.747264,34.54676 -1.541517,5.14513 -1.502134,5.26176 7.946515,23.53396 11.381778,22.01059 12.902155,27.08225 14.685619,48.98823 3.2001,39.30615 6.43773,48.68996 20.38104,59.07146 17.5068,13.03469 16.37703,12.50939 25.63815,11.92095 6.932857,-0.4405 9.648547,-1.32372 15.864707,-5.15966 l 7.5,-4.62819 2.8125,3.21743 c 3.3291,3.8084 3.64457,6.82801 0.71336,6.82801 -1.15452,0 -7.34202,2.65539 -13.75,5.90086 l -11.650857,5.90085 0,6.00979 c 0,4.1565 -1.12534,8.23907 -3.64921,13.23885 -2.00708,3.97599 -4.03843,9.30369 -4.51411,11.83935 -0.92154,4.91221 -2.60217,5.57905 -7.77418,3.08469 z M 140.68429,318.31945 c 0.26338,-0.22191 -1.2835,-2.41069 -3.4375,-4.86395 -4.34384,-4.94737 -4.55043,-5.93153 -2.48738,-11.8496 1.2345,-3.54129 1.12616,-4.26867 -0.79618,-5.34445 -5.80187,-3.24689 -12.02017,-10.56033 -16.2394,-19.0994 -6.4642,-13.08254 -6.86584,-19.6958 -2.49045,-41.00754 l 3.47681,-16.93495 -4.17003,-4.75628 c -6.28843,-7.1725 -12.23015,-11.47492 -17.111767,-12.39072 -6.36492,-1.19406 -17.53155,1.60065 -19.65618,4.91944 -2.05207,3.20545 -9.1256,34.92568 -10.29066,46.14702 -0.68998,6.64553 -0.54659,7.60303 0.95609,6.38458 0.97229,-0.78836 4.17391,-2.14768 7.11472,-3.02067 l 5.34693,-1.58727 -3.27153,-3.41473 c -3.16396,-3.30247 -3.20215,-3.5206 -1.16132,-6.63527 2.05467,-3.13584 2.21379,-3.16831 6.04959,-1.2344 7.0346,3.54666 10.72598,8.19249 14.69628,18.4961 5.496187,14.26351 6.704167,16.304 14.810747,25.01798 7.84689,8.43481 10.72714,14.79167 9.41299,20.77494 -0.98111,4.46701 1.56628,8.06067 7.51939,10.60778 3.1502,1.34785 10.02674,1.22554 11.72885,-0.20861 z m 8.89615,-9.18874 c 0,-2.74803 -4.79879,-7.8206 -6.4393,-6.8067 -1.77755,1.09857 -1.19756,3.32619 1.65719,6.36494 3.32352,3.53772 4.78211,3.67246 4.78211,0.44176 z m 66.34559,-79.61607 c 0.47672,-31.53303 4.93761,-52.64452 7.82842,-81.67121 0.9137,-9.17453 3.61873,-30.69288 -1.16122,-52.785239 -1.08309,-5.00565 0.13184,-16.069172 -0.35947,-25.350422 -0.80416,-15.191441 -1.84118,-19.563986 -4.74796,-24.065154 -7.2246,-11.187338 -18.6869,-12.615181 -24.03066,-6.402674 -4.99837,5.810952 -7.80085,29.481228 -6.46265,42.542868 0.71949,7.022532 -0.68858,8.814762 5.04999,6.393802 2.18878,-0.92339 7.20053,-2.841567 12.60229,-2.841567 10.21759,0 20.24836,1.127041 14.03408,3.958457 -2.30438,1.04994 -7.45132,2.2385 -10.45965,0.99241 -3.40405,-1.41 -4.17397,-1.37475 -5.36882,0.24584 -10.08097,3.80922 -17.49549,2.38954 -17.51203,13.031669 -1.31901,8.61805 -1.57117,16.32895 -4.24362,28.64662 -4.92099,22.68154 -7.61625,34.45346 -8.82967,51.71563 -0.91425,13.00636 0.5961,9.4243 8.26892,13.97181 3.63475,2.15424 3.90803,2.69018 2.51182,4.92588 -1.84925,2.96112 -4.84366,3.07997 -15.96531,0.63365 -12.99018,-2.85733 -24.42618,-2.40865 -32.32451,1.26819 l -6.6995,3.11875 0.84666,-3.44347 c 1.29342,-5.26053 4.06251,-8.84032 7.20906,-9.31967 1.77414,-0.27027 1.42641,-1.54676 2.36434,-2.27847 0,0 1.20222,-9.89202 0.75361,-25.28397 -0.45317,-15.54857 -4.09221,-31.10352 -4.64048,-48.125 -0.66434,-20.625309 -1.4623,-29.987159 -2.106,-40.624996 -2.10668,-34.814751 -4.23187,-42.167445 -21.96848,-55.271969 -4.31628,-3.189045 -2.4977,-2.398158 -6.39309,-2.478624 -5.575677,-0.115176 -12.771407,6.342617 -14.585567,19.168876 -1.29412,9.149553 -2.62295,28.304941 2.87635,36.010108 l 2.17872,3.052633 7.937577,-1.603721 c 8.09984,-1.636501 3.57388,-1.997917 6.86526,-1.396904 5.08698,0.928893 11.436,1.91293 11.436,3.839455 0,2.219016 -1.5855,3.968296 -5.87509,2.651786 -3.58746,-1.101026 -8.29151,-1.202417 -10.94262,1.288183 -2.10733,1.97973 -3.73066,-0.135288 -5.930567,-0.555834 -2.69352,-0.514897 -5.37899,-0.461918 -5.37899,2.042427 0,1.630691 0.73661,11.214611 -0.65754,17.47351 l 0.59397,10.75406 2.63489,30.69992 c 2.98924,34.82853 9.921697,47.38471 6.888347,50.41805 -1.97524,1.97526 -4.479687,-5.19228 2.18512,-2.02463 8.39994,3.99231 18.75198,12.9782 22.08823,19.17325 2.01255,3.73707 2.88375,4.31266 5.68085,3.75324 2.697,-0.5394 4.89096,0.69402 11.94607,6.71598 12.91607,11.02462 15.71723,12.6832 28.31902,16.76783 13.78127,4.46694 28.00793,12.06571 34.41998,18.38449 2.55933,2.5221 5.13331,4.2161 5.71994,3.76446 0.58664,-0.45165 3.15094,-15.14195 3.40398,-31.88031 z M 27.508069,323.39341 c -0.861736,-2.24565 3.58304,-7.459 8.572799,-10.05516 3.961447,-2.06115 14.237565,-2.34595 15.423255,-0.42748 1.48609,2.40455 -3.32052,6.17124 -7.875014,6.17124 -3.112624,0 -4.998357,0.87019 -6.771991,3.125 -2.765341,3.51556 -8.191052,4.20409 -9.349049,1.1864 z" id="path4064" inkscape:connector-curvature="0" sodipodi:nodetypes="ssssssscsssssscssssssssssssssscsssssssscssscsssssssssscssssscssssssscsssssssssscssscsssssscssssscsssssssssssssscssssssssscssscsssscssssscsssscscssssssscsssssscssssssssccsssssscsssssssssscsssssssscssssssssssssssss"/>
</svg>