<?xml version="1.0" encoding="UTF-8" standalone="no"?>
<!-- Created with Inkscape (http://www.inkscape.org/) -->
<svg xmlns:dc="http://purl.org/dc/elements/1.1/" xmlns:cc="http://creativecommons.org/ns#" xmlns:rdf="http://www.w3.org/1999/02/22-rdf-syntax-ns#" xmlns:svg="http://www.w3.org/2000/svg" xmlns="http://www.w3.org/2000/svg" xmlns:sodipodi="http://sodipodi.sourceforge.net/DTD/sodipodi-0.dtd" xmlns:inkscape="http://www.inkscape.org/namespaces/inkscape" id="svg2" version="1.1" inkscape:version="0.48+devel r12701" width="504.17429" height="234.90959" viewBox="0 0 504.17429 234.90959" sodipodi:docname="h.svg">

  <metadata id="metadata8">
    <rdf:RDF>
      <cc:Work rdf:about="">
        <dc:format>image/svg+xml</dc:format>
        <dc:type rdf:resource="http://purl.org/dc/dcmitype/StillImage"/>
        <dc:title>ASL letter</dc:title>
        <dc:date>11/11/2013</dc:date>
        <dc:creator>
          <cc:Agent>
            <dc:title>edited by Paul Sherman</dc:title>
          </cc:Agent>
        </dc:creator>
        <dc:rights>
          <cc:Agent>
            <dc:title>PD</dc:title>
          </cc:Agent>
        </dc:rights>
        <dc:publisher>
          <cc:Agent>
            <dc:title>WPClipart</dc:title>
          </cc:Agent>
        </dc:publisher>
        <dc:subject>
          <rdf:Bag>
            <rdf:li>sign</rdf:li>
            <rdf:li>language</rdf:li>
            <rdf:li>letter</rdf:li>
            <rdf:li>american</rdf:li>
          </rdf:Bag>
        </dc:subject>
        <cc:license rdf:resource="http://creativecommons.org/publicdomain/zero/1.0/"/>
      </cc:Work>
      <cc:License rdf:about="http://creativecommons.org/publicdomain/zero/1.0/">
        <cc:permits rdf:resource="http://creativecommons.org/ns#Reproduction"/>
        <cc:permits rdf:resource="http://creativecommons.org/ns#Distribution"/>
        <cc:permits rdf:resource="http://creativecommons.org/ns#DerivativeWorks"/>
      </cc:License>
    </rdf:RDF>
  </metadata>
  <defs id="defs6"/>
  <sodipodi:namedview pagecolor="#ffffff" bordercolor="#666666" borderopacity="1" objecttolerance="10" gridtolerance="10" guidetolerance="10" inkscape:pageopacity="0" inkscape:pageshadow="2" inkscape:window-width="1154" inkscape:window-height="967" id="namedview4" showgrid="false" fit-margin-top="12" fit-margin-left="12" fit-margin-right="12" fit-margin-bottom="12" inkscape:zoom="0.99674932" inkscape:cx="50.532946" inkscape:cy="112.69375" inkscape:window-x="34" inkscape:window-y="36" inkscape:window-maximized="0" inkscape:current-layer="svg2"/>
  <path style="fill:#000000" d="m 246.90679,218.88971 c -3.46361,-0.62984 -9.48836,-2.55632 -13.38834,-4.28107 l -7.09085,-3.13593 -8.4275,3.1721 c -7.50115,2.82343 -9.05229,3.01786 -14.11166,1.76892 -7.06431,-1.7439 -17.54761,-8.52883 -21.80791,-14.11437 -2.25893,-2.96161 -3.65588,-7.04046 -4.69052,-13.69551 -1.39507,-8.97345 -1.71191,-9.61265 -5.95462,-12.01294 -5.83476,-3.301 -14.60383,-12.36816 -16.28353,-16.83709 -1.67696,-4.46163 -1.69295,-10.96931 -0.0376,-15.32311 0.70674,-1.85885 1.01394,-3.65077 0.68266,-3.98204 -0.33126,-0.33127 -7.59052,3.32481 -16.92712,4.59198 -16.24897,2.20532 -9.5766,0.72404 -27.24516,4.37267 l -10.92037,2.2551 -25.077296,5.20129 c -16.505564,3.42342 -25.237774,4.88369 -28.778972,4.86616 -7.20114,-0.0356 -16.44456,-0.0857 -23.674476,-6.74997 -8.254148,-7.6084 -11.116549,-13.65816 -11.173022,-23.61449 -0.07958,-14.0284 9.283973,-29.26462 19.458449,-31.662513 2.984026,-0.70328 3.317461,-1.43934 4.0096,-8.85129 1.014116,-10.85994 5.217889,-18.6882 14.79892,-27.55855 9.382516,-8.686553 23.373224,-15.76265 38.561796,-19.503444 5.843749,-1.439257 18.781251,-6.333566 28.750001,-10.876241 17.49868,-7.973999 21.56276,-7.206543 31.51904,-9.68251 16.51297,-4.106509 4.91893,-0.939352 16.51297,-4.106509 20.31223,-5.548715 32.73317,-3.877052 44.65313,-4.154105 29.28019,-0.680552 26.02238,0.410505 60.73293,-2.021147 20.50658,-1.436592 28.32587,-0.95469 30.92594,-0.466912 5.49394,1.030668 52.07811,19.892914 66.01983,30.739605 12.32325,9.587512 14.38545,11.004823 28.807,28.381953 9.59168,11.55742 23.24309,27.61287 29.85151,30.357673 2.8229,1.17249 20.47564,4.0175 26.29894,4.69932 13.13875,1.53836 12.85763,1.75078 22.92406,3.23707 l 16.34967,2.414 -3.89476,5.29323 c -3.08524,4.19303 -6.50274,3.68001 -12.43686,3.22893 -6.03142,-0.45848 -10.43159,-2.2238 -13.86909,-3.17081 -3.4375,-0.94701 -12.65425,-1.33602 -22.22913,-3.49356 -13.76707,-3.10218 -6.60535,-1.0952 -19.49451,-3.41916 -4.54222,-0.81898 -7.87683,-0.26294 -8.55753,1.67473 -5.28083,15.03253 -9.41737,19.05113 -17.73518,27.85557 -10.55029,11.16751 -18.22792,14.46765 -41.95055,12.18606 -20.96222,-2.0161 -23.40932,-4.90254 -42.27354,-22.34441 l -11.47056,-10.60569 -0.87425,6.01587 c -0.48084,3.30873 -1.80454,7.43565 -2.94154,9.17095 -2.40541,3.67113 -2.65544,3.33242 3.83232,5.19174 11.53992,3.3072 15.41819,14.30468 9.78517,27.74734 -1.24592,2.97323 -4.12179,5.84291 -8.97185,8.95256 -9.22962,5.9176 -13.94079,7.7882 -24.63818,9.78274 -4.8125,0.89729 -13.46137,4.25335 -16.21137,5.20165 -5.28471,1.82237 -18.16363,9.77824 -18.16363,11.33262 0,0.50343 1.82813,1.91415 4.0625,3.13493 3.21579,1.75699 6.9283,4.67002 17.8125,4.62846 12.94643,-0.0494 19.15106,-0.71652 37.10541,-0.74693 27.07326,-0.0458 23.63488,-1.23531 42.48658,-1.95648 8.92296,-0.34134 19.77694,-2.86953 22.4301,-2.87007 6.07743,-0.001 11.23101,-3.18689 24.75485,-12.41034 7.05596,-4.81227 13.90019,-8.08391 15.26905,-7.49101 1.11705,0.48383 5.15844,-1.85661 7.85272,-1.44053 l 0.59132,3.83321 -2.46632,1.50841 c -3.83791,2.34727 -9.30496,6.83127 -12.39871,9.57654 l -5.625,4.99139 4.30567,3.15522 c 7.84442,5.74842 26.16958,6.5452 36.25173,6.38208 8.58764,0.92102 20.63968,0.51346 34.08181,-1.69628 0,0 -1.45302,0.3219 -1.5225,4.07438 l 2.12074,7.31844 -16.75696,-0.32096 c -20.73454,-0.39716 -19.68871,-0.8632 -30.30154,-1.18013 -16.84533,-0.50305 -17.93131,-2.44413 -28.34161,-6.12339 l -10.79731,-2.49515 -8.13312,0.40969 c -11.18422,0.56339 -8.41843,1.11621 -26.32081,3.11113 -15.95954,1.77843 -14.01126,1.77843 -15.95954,1.77843 -9.94772,0 -14.87092,0.37112 -26.28979,1.06401 -17.03941,1.03394 -19.71706,-0.15498 -35.22493,0.35749 -8.72401,0.28829 -18.6957,0.009 -22.1593,-0.621 z m -26.14131,-17.31619 c 5.35382,-2.82172 10.3034,-4.72023 15.13553,-8.35537 4.83213,-3.63514 14.87503,-7.22469 15.92483,-7.22469 4.62997,0 26.12006,-11.09362 31.59862,-13.46046 l 6.02979,-2.60499 -6.0749,-3.10894 c -4.69042,-2.40042 -6.51312,-4.22458 -7.99784,-8.0043 l -1.92295,-4.89535 -6.37716,-2.46706 c -3.28608,-1.27126 -13.80651,-0.37887 -21.02561,1.94785 -16.55709,5.33634 -25.06693,7.67533 -37.22654,15.42781 -5.15625,3.28742 -11.8328,7.2249 -14.83677,8.74997 l -5.46178,2.77283 0.5964,6.20688 c 0.68889,7.16939 4.50998,11.99676 12.70565,16.05166 5.92523,2.93156 5.9335,5.81539 18.93273,-1.03584 z m 21.08321,-55.51206 c 9.6252,-2.82869 22.91327,-3.03992 26.84732,-4.83975 l 5.75824,-2.63437 -3.92841,-1.09582 c -5.03233,-1.40375 -15.89525,-11.14145 -17.9425,-16.08397 -1.32128,-3.18983 -1.24689,-4.66805 0.45981,-9.13696 2.84868,-7.45917 -0.50848,-5.37178 -7.5838,-3.27707 -11.74752,3.47795 -5.90197,-1.80947 -26.14837,8.4707 -71.89264,36.5037 -46.12891,14.81233 -52.41855,24.98918 -3.10702,5.02727 -3.70784,10.28759 -0.55864,14.29119 3.21536,4.08767 14.36134,9.65311 19.3324,9.65311 2.22615,0 11.99783,-2.26974 20.6631,-6.65721 20.99467,-10.51707 30.42173,-12.21781 35.5194,-13.67903 z m 56.98056,10.89746 c 0,-6.32275 -2.97432,-8.50132 -10.40502,-7.62126 -3.4012,0.40283 -6.48979,1.03819 -6.86353,1.41191 -0.37372,0.37374 0.22765,2.58187 1.33641,4.90695 1.50259,3.15095 3.38988,4.69574 7.41153,6.06647 6.49455,2.21359 8.52061,1.08077 8.52061,-4.76407 z M 68.501379,148.55436 c 10.36826,-2.17443 14.808447,-4.94518 15.473537,-5.61027 2.073286,-2.07329 0.59019,-20.47298 -1.738472,-25.52668 -2.027136,-4.39931 -2.304146,-4.55305 -6.193865,-3.4375 -2.239503,0.64229 -7.534043,1.16779 -11.765645,1.16779 -6.154696,0 -9.13983,-0.76065 -14.922172,-3.80234 l -7.228353,-3.80232 -5.71108,2.9172 c -7.451828,3.80637 -13.83608,12.9844 -13.83608,19.8908 0,5.80517 2.187744,10.43073 7.075905,14.96065 9.706148,8.9948 17.140461,7.79479 38.846225,3.24267 z m 310.691961,-5.78834 c 14.7574,-7.52866 28.01386,-27.38939 24.17775,-41.28264 C 399.88414,88.854677 375.58365,60.750937 349.2235,42.968033 332.08595,31.406818 330.16491,30.408615 329.44119,32.688835 c -0.44085,1.389006 -2.08239,3.364707 -3.64786,4.390446 -2.61973,1.71651 -4.3118,1.403844 -21.25455,-3.927465 l -18.40823,-5.792447 -19.58815,5.673528 c -10.77349,3.12044 -26.90065,7.740801 -35.83815,10.26747 -8.9375,2.526669 -18.5,5.890314 -21.25,7.474768 -2.75,1.584455 -10.5521,8.138342 -17.338,14.564192 l -12.33799,11.68337 5.74724,6.9672 c 7.83574,9.49905 9.98809,14.90265 8.35366,20.972423 -0.6995,2.59777 -2.54376,5.90985 -4.09836,7.3602 -4.08239,3.80862 -23.33791,12.82518 -27.38911,12.82518 -10.20048,0 -16.74534,-9.57238 -21.61498,-31.613623 -1.39985,-6.33607 -3.56238,-2.33157 -2.86918,5.31307 1.35335,14.925053 12.5368,28.800553 23.21281,28.800553 2.01589,0 12.30409,-0.50636 21.10363,-4.15306 33.50178,-13.88375 11.66954,-6.64783 27.14012,-11.26893 7.736,-2.31075 16.51681,-5.11965 18.06231,-5.72759 4.62908,-1.82091 10.21276,-6.560823 21.35454,-10.736383 21.81431,-8.17526 15.01414,-6.24926 21.81431,-8.17526 2.75284,-0.77967 11.4215,-1.78071 17.609,-1.26333 14.92205,1.24771 20.19283,0.60707 15.27322,3.64755 -0.74364,0.45959 -1.25783,5.81099 -6.03122,6.25135 l -8.67889,0.80065 14.17522,16.250003 c 15.1011,17.31141 20.21338,21.86187 28.85617,25.685 14.66553,6.48725 38.53418,8.32857 47.39459,3.80832 z m -249.99591,-6.97036 c 6.04625,-1.56346 11.30007,-3.14955 11.67516,-3.52463 0.37509,-0.37509 -1.6549,-4.61553 -4.51108,-9.4232 -6.80511,-11.4547 -10.41532,-21.09732 -9.53912,-25.478333 0.3819,-1.90949 0.44061,-3.4718 0.13049,-3.4718 -0.5857,0 -33.881262,14.635513 -39.373631,17.307213 -1.71875,0.83607 -2.175321,1.25244 -1.014602,0.92527 4.424611,-1.24714 8.016641,14.87057 5.525831,24.79478 l -0.88594,3.52986 13.499852,-0.90826 c 7.42493,-0.49954 18.44679,-2.18745 24.49304,-3.7509 z m 157.77985,-8.19249 c 1.61432,-3.12177 1.73128,-5.04371 0.65971,-10.84041 -1.5463,-8.3647 -3.7885,-12.12769 -9.18815,-15.42006 -3.8438,-2.343713 -14.87534,-3.499203 -14.39215,-1.507503 0.12509,0.515623 -0.43428,3.187503 -1.24303,5.937503 -3.38368,11.5055 -0.96155,16.92032 10.01559,22.39046 8.64506,4.30803 11.69306,4.18738 14.14803,-0.55999 z m -115.823,-17.50551 c 12.83752,-6.91961 12.45966,-6.10154 7.31948,-15.846723 -5.12367,-9.71393 -7.29642,-11.64037 -10.71838,-9.50333 -1.28288,0.80118 -5.78483,2.13588 -10.00432,2.96601 -8.61346,1.6946 -8.8746,2.20873 -5.76193,11.34392 1.98333,5.820773 8.55857,14.840163 10.81866,14.840163 0.71309,0 4.469,-1.71001 8.34649,-3.80004 z M 80.270357,98.704117 c 6.426141,-2.16896 20.402643,-7.54497 31.058893,-11.94667 16.93408,-6.99484 20.90115,-8.15351 31.48891,-9.19704 23.606,-2.32659 38.61612,-9.66221 50.18319,-24.525104 8.93055,-11.475132 12.78793,-13.428982 38.9529,-19.730558 10.3125,-2.483664 22.67401,-5.734743 27.47004,-7.224618 7.42449,-2.306409 8.2602,-2.836963 5.625,-3.571048 -6.11448,-1.703305 9.26306,2.212266 -23.46869,2.237056 -10.16235,0.0077 0,0 -19.63523,0.220427 -29.04815,0.326098 -32.43469,-1.849699 -46.24112,3.62531 -10.54591,4.182036 -14.45409,5.077792 -25,5.730021 -12.22235,0.755911 -12.8887,0.960412 -30,9.206915 -9.625,4.638609 -17.71104,8.564635 -17.96897,8.724503 -0.25794,0.159867 0.44519,2.575387 1.5625,5.367822 1.11731,2.792434 2.03147,8.454694 2.03147,12.582794 0,6.90665 -0.25589,7.60294 -3.20637,8.72471 -1.76351,0.67048 -3.451012,1.21906 -3.750002,1.21906 -0.299,0 -0.54363,-3.43061 -0.54363,-7.62359 0,-6.99034 -2.46098,-15.182212 -5.03982,-16.776019 -1.38789,-0.857764 -22.049761,6.518959 -28.191055,10.064799 -9.006364,5.20007 -18.019124,18.15907 -18.019124,25.90882 0,11.438623 11.935523,13.987893 32.691108,6.98241 z M 322.44316,28.436673 c 1.14799,-1.383233 -0.63608,-2.697612 -9.31265,-6.860917 -9.64081,-4.625989 -11.24198,-5.035457 -15.73928,-4.02498 -2.75365,0.618703 -5.23945,1.357726 -5.524,1.642273 -0.41162,0.411619 25.34302,10.218365 28.37147,10.803169 0.43144,0.08331 1.42345,-0.618481 2.20446,-1.559545 z" id="path4064" inkscape:connector-curvature="0" sodipodi:nodetypes="cscssssssscsscssssssssssssssssssscssssssssscsssssssssssscssscsscscsscssscssssscsssscsscsssscssscscssssssssccsscssssssssscsssssssssscsssscssssssssssssssscssssssssssscsssssssssssssssssssssssssssscsssssssssssssss"/>
</svg>