<?xml version="1.0" encoding="UTF-8" standalone="no"?>
<!-- Created with Inkscape (http://www.inkscape.org/) -->
<svg xmlns:dc="http://purl.org/dc/elements/1.1/" xmlns:cc="http://creativecommons.org/ns#" xmlns:rdf="http://www.w3.org/1999/02/22-rdf-syntax-ns#" xmlns:svg="http://www.w3.org/2000/svg" xmlns="http://www.w3.org/2000/svg" xmlns:sodipodi="http://sodipodi.sourceforge.net/DTD/sodipodi-0.dtd" xmlns:inkscape="http://www.inkscape.org/namespaces/inkscape" id="svg2" version="1.1" inkscape:version="0.48+devel r12701" width="529.6734" height="316.21933" viewBox="0 0 529.6734 316.21933" sodipodi:docname="p.svg">

  <metadata id="metadata8">
    <rdf:RDF>
      <cc:Work rdf:about="">
        <dc:format>image/svg+xml</dc:format>
        <dc:type rdf:resource="http://purl.org/dc/dcmitype/StillImage"/>
        <dc:title>ASL letter</dc:title>
        <dc:date>11/11/2013</dc:date>
        <dc:creator>
          <cc:Agent>
            <dc:title>edited by Paul Sherman</dc:title>
          </cc:Agent>
        </dc:creator>
        <dc:rights>
          <cc:Agent>
            <dc:title>PD</dc:title>
          </cc:Agent>
        </dc:rights>
        <dc:publisher>
          <cc:Agent>
            <dc:title>WPClipart</dc:title>
          </cc:Agent>
        </dc:publisher>
        <dc:subject>
          <rdf:Bag>
            <rdf:li>sign</rdf:li>
            <rdf:li>language</rdf:li>
            <rdf:li>letter</rdf:li>
            <rdf:li>american</rdf:li>
          </rdf:Bag>
        </dc:subject>
        <cc:license rdf:resource="http://creativecommons.org/publicdomain/zero/1.0/"/>
      </cc:Work>
      <cc:License rdf:about="http://creativecommons.org/publicdomain/zero/1.0/">
        <cc:permits rdf:resource="http://creativecommons.org/ns#Reproduction"/>
        <cc:permits rdf:resource="http://creativecommons.org/ns#Distribution"/>
        <cc:permits rdf:resource="http://creativecommons.org/ns#DerivativeWorks"/>
      </cc:License>
    </rdf:RDF>
  </metadata>
  <defs id="defs6"/>
  <sodipodi:namedview pagecolor="#ffffff" bordercolor="#666666" borderopacity="1" objecttolerance="10" gridtolerance="10" guidetolerance="10" inkscape:pageopacity="0" inkscape:pageshadow="2" inkscape:window-width="1686" inkscape:window-height="937" id="namedview4" showgrid="false" fit-margin-top="12" fit-margin-right="12" fit-margin-left="12" fit-margin-bottom="12" inkscape:zoom="0.68614411" inkscape:cx="272.21944" inkscape:cy="194.24053" inkscape:window-x="-3" inkscape:window-y="23" inkscape:window-maximized="0" inkscape:current-layer="svg2"/>
  <path style="fill:#000000" d="m 173.16263,301.84423 c -8.19362,-4.99621 -15.64933,-18.75039 -18.03958,-33.27908 -1.20214,-7.30697 -1.09096,-11.12931 0.65445,-22.5 3.81481,-24.85201 3.81781,-27.6687 0.0471,-44.34792 -4.65508,-20.59126 -4.10178,-31.16464 2.45717,-46.9555 8.14822,-19.6171 13.2967,-33.31275 12.73437,-33.87509 -0.30069,-0.3007 -3.89632,0.14513 -7.99025,0.99071 -6.44546,1.33129 -8.14263,1.25772 -12.65736,-0.54871 -7.56513,-3.02697 -10.11748,-2.68504 -25.58557,3.42768 -18.72385,7.39932 -21.69414,7.87032 -28.31907,4.49053 -7.177871,-3.66187 -14.26852,-3.49465 -21.2601,0.5014 -13.749469,7.85854 -44.108177,1.11467 -56.048861,-12.45067 -6.353523,-7.21797 -8.815359,-16.02165 -6.001744,-21.46258 2.91659,-5.64006 10.878954,-10.16013 21.465888,-12.18575 5.169844,-0.98915 9.879951,-2.09526 10.466902,-2.45802 0.586951,-0.36275 9.743164,0.163045 19.65576,-2.546563 C 89.188227,71.962219 84.219229,74.195195 95.615672,71.212802 117.10355,65.58953 157.33304,55.328485 168.93867,52.191603 l 21.46389,-4.483345 24.57221,-7.832118 22.10557,-6.187683 24.88328,-4.142573 c 29.57263,-4.923257 46.35906,-11.409131 57.89959,-13.192167 13.4219,-2.073712 24.42192,-3.499512 32.69494,-3.562539 12.55944,-0.09568 20.96649,-1.258047 33.98334,0.0017 26.55786,2.570158 46.63651,10.250969 64.81149,24.792754 18.69725,14.959641 34.8063,35.455041 54.35621,69.15688 l 11.96424,20.625 -4.67155,2.15473 c -2.56934,1.18508 -5.23404,2.15527 -5.92154,2.15594 -0.6875,6.8e-4 -7.15625,-9.96567 -14.375,-22.14745 C 473.74187,77.529481 466.64496,67.112617 457.76053,58.238506 443.10756,43.602572 423.58823,32.79206 401.86483,27.281468 c -22.95268,-5.822424 -55.83548,-7.215027 -79.67064,-1.925503 -23.48566,5.211961 -15.15262,5.632039 -36.79608,9.784595 l -40.57081,5.836017 -33.08095,9.711942 c -6.31568,1.854163 -4.24979,1.35312 -37.36536,9.569842 l -41.3769,10.266544 -20.49166,5.112496 C 93.279441,80.435869 99.400306,80.252451 74.278017,85.66866 58.139135,89.148102 31.149431,95.47733 26.45534,97.90138 c -2.621692,1.35385 -3.049414,7.19141 -0.780625,10.65401 3.74174,5.71063 19.084056,11.21659 35.388857,12.70017 8.235193,0.74932 9.450743,0.54341 14.597587,-2.47284 3.087896,-1.80964 6.639191,-3.29885 7.891769,-3.30938 1.644307,-0.0139 1.83396,-0.30056 0.682222,-1.03147 -1.281007,-0.81295 -1.200305,-2.71505 0.409746,-9.65746 1.102716,-4.75482 2.624142,-9.39122 3.380944,-10.30311 2.210008,-2.66289 4.583964,3.03879 4.635206,11.13267 0.03839,6.06362 -0.330698,7.16802 -2.768206,8.2831 -2.544234,1.1639 -2.107442,1.49432 4.5793,3.46411 10.48154,3.08766 18.5638,1.85057 33.51056,-5.12916 l 12.15238,-5.67483 10.05141,2.60545 10.05141,2.60545 5.92123,-2.95965 c 3.25666,-1.6278 8.73371,-3.279 12.17121,-3.66932 3.4375,-0.39033 9.9711,-1.3588 14.5191,-2.15216 8.20985,-1.43213 8.31126,-1.49989 14.15386,-9.45711 5.76169,-7.84703 5.86708,-8.1563 5.03855,-14.787535 -0.752,-6.018786 -0.56185,-6.925074 1.70778,-8.139741 3.00846,-1.610077 2.85135,-1.830173 6.3903,8.952446 l 2.76926,8.43754 -2.61702,4.23443 c -1.43937,2.32895 -3.45399,4.92905 -4.47693,5.77802 -3.28177,2.72364 -2.05991,3.3515 8.03749,4.13016 12.82637,0.9891 21.13909,4.00392 36.64551,13.29046 6.9492,4.16177 13.04134,7.56685 13.53808,7.56685 1.1841,0 6.64451,-13.85261 8.73186,-22.15199 1.39237,-5.53614 1.92257,-6.29518 3.49251,-5 3.42575,2.82618 6.49424,11.57815 5.6359,16.07478 -0.98912,5.18182 -4.58814,12.53844 -9.49645,19.41134 -2.04606,2.86501 -3.32048,5.85576 -2.83202,6.6461 0.526,0.85108 0.19988,1.28208 -0.79984,1.05709 -0.92836,-0.20893 -4.44036,2.56977 -7.80444,6.17489 -3.74317,4.01139 -10.53351,9.05348 -17.5,12.99442 -18.64687,10.54852 -26.62672,16.8212 -35.29697,27.74572 -11.46799,14.44966 -17.96153,27.8069 -17.96153,36.94696 0,12.22295 8.239,25.10069 16.05909,25.10069 3.10832,0 3.01931,-0.20936 -2.52409,-5.9375 -3.16031,-3.26563 -6.37354,-7.16615 -7.14051,-8.66783 -3.15517,-6.1776 -0.76645,-19.8731 4.47668,-25.66669 1.11422,-1.23119 4.18652,-2.82033 6.82733,-3.53143 6.21856,-1.67449 12.25649,-0.0529 20.4265,5.48593 l 6.25,4.23713 6.6179,-6.04336 c 7.44363,-6.79742 23.93994,-17.34376 41.20584,-26.34351 11.34211,-5.912 11.79991,-6.03274 22.87457,-6.03274 13.11648,0 16.05339,-1.15094 25.95589,-10.17175 6.83036,-6.22221 12.9848,-8.74306 25.43013,-10.41615 9.99351,-1.34347 20.18178,-10.88767 34.89001,-32.68431 4.48596,-6.64791 9.94266,-12.34976 19.03237,-19.88744 l 12.74329,-10.56743 7.2464,-0.0115 7.24641,-0.0115 -3.86815,4.81338 c -2.12747,2.64736 -7.3571,7.70441 -11.6214,11.23788 -7.78924,6.4543 -19.22004,18.65968 -24.37907,26.03104 -4.08665,5.83912 -4.54464,10.20666 -1.74782,16.6677 3.33652,7.70781 13.37634,21.02006 17.14943,22.7392 3.74926,1.70827 3.78646,2.26324 0.5738,8.5606 -2.87871,5.64272 -2.67653,5.55639 -7.35113,3.13905 -5.58928,-2.89033 -11.43637,-10.47701 -16.65121,-21.60519 -4.66505,-9.95496 -6.20391,-11.74266 -7.83555,-9.10261 -1.69717,2.74609 -18.11514,11.3279 -27.09277,14.16162 -6.42754,2.02882 -11.9818,4.88638 -16.875,8.68188 -8.82092,6.8421 -8.42214,6.71617 -28.15076,8.88885 -14.92028,1.64314 -16.49952,2.08816 -26.73802,7.53474 -5.98465,3.18366 -16.6152,9.9672 -23.62346,15.07455 -11.48974,8.3733 -13.45838,10.4157 -20.02732,20.77781 -8.35412,13.17807 -20.16637,26.38665 -25.61588,28.6439 -2.05245,0.85016 -3.45876,1.9874 -3.12515,2.5272 0.73203,1.18445 -3.91811,16.65026 -6.53581,21.7374 -3.10504,6.03417 -13.058,15.803 -19.34873,18.99075 -7.36839,3.73385 -16.25777,3.97936 -21.79652,0.602 z m 20.02203,-14.33533 c 5.21889,-2.18058 8.37574,-6.59875 13.11412,-18.35385 l 3.74375,-9.28757 -2.7311,-1.81738 c -5.42474,-3.60983 -13.38472,-12.69245 -16.75677,-19.12006 -2.94401,-5.6117 -3.43532,-8.01149 -3.39085,-16.56256 0.0556,-10.68788 0.94185,-13.00521 11.16727,-29.19903 5.99576,-9.49538 6.9911,-15.42492 4.55016,-27.10675 l -1.99555,-9.55026 5.28482,-4.92962 c 2.90665,-2.7113 5.28483,-5.3515 5.28483,-5.86713 0,-1.11885 -26.17085,-20.74662 -26.75708,-20.06744 -0.22323,0.25863 -1.32601,3.28273 -2.45061,6.72023 -1.12461,3.4375 -4.85356,11.25629 -8.28657,17.37509 -9.64325,17.18762 -10.6728,23.8924 -6.25729,40.74991 3.86512,14.75626 4.19939,22.70597 1.86515,44.35899 -1.18488,10.9912 -1.89319,23.9287 -1.57404,28.75 0.64858,9.79771 4.82403,20.95327 8.91524,23.81887 3.2849,2.30084 10.88089,2.34216 16.27452,0.0885 z m -19.99452,-13.09898 c 0.50977,-3.84287 0.0974,-9.14213 -1.12014,-14.3917 -1.69204,-7.29594 -1.70566,-8.72625 -0.11175,-11.72994 l 1.81526,-3.4208 3.02684,6.875 c 8.40866,19.099 8.7655,23.45658 2.19895,26.85226 -5.99785,3.10161 -6.70789,2.59011 -5.80916,-4.18482 z m 62.05805,-45.25143 c 1.35144,-2.64904 2.45715,-5.10562 2.45715,-5.45911 0,-1.71864 -8.00801,-4.4569 -13.03411,-4.4569 -4.69899,0 -6.01554,0.54529 -7.76572,3.21638 -1.80026,2.74756 -1.9119,4.25072 -0.76589,10.3125 0.73785,3.90287 2.00225,8.78362 2.80977,10.84612 l 1.46822,3.75 6.18672,-6.69629 c 3.40268,-3.68296 7.29242,-8.86367 8.64386,-11.5127 z m -15.59644,-67.99645 c -1.09605,-5.48025 -2.55817,-6.20482 -5.00016,-2.47787 -1.56214,2.38411 -1.94353,4.55593 -1.35291,7.70418 l 0.82247,4.38414 3.13695,-2.947 c 2.47295,-2.32322 2.97961,-3.73366 2.39365,-6.66345 z m 22.8355,-8.04667 c 9.55941,-5.58815 20.64538,-14.3061 23.2533,-18.28628 1.71506,-2.61752 1.40046,-2.92932 -8.54095,-8.46501 -13.3196,-7.41676 -26.07006,-11.60238 -40.11926,-13.17 -10.232,-1.1417 -23.27894,-0.46433 -25.04348,1.30021 -0.38756,0.38755 3.63774,3.08789 8.9451,6.00074 13.31044,7.30519 21.15975,14.94767 26.27969,25.58719 2.30653,4.7931 4.19369,9.43372 4.19369,10.3125 0,2.55285 2.14652,1.91476 11.03191,-3.27935 z m 8.13205,42.07573 c -6.12404,-6.2925 -10.41396,-12.90377 -10.41396,-16.04911 0,-2.75289 11.21517,-0.50252 14.65909,2.9414 3.42167,3.42168 5.06465,12.01108 3.22453,16.85771 -1.03023,2.71354 -1.32148,2.56733 -7.46966,-3.75 z m 69.63644,-35.63612 c -4.63541,-12.67179 -5.16891,-13.70831 -8.89123,-17.27451 -2.01255,-1.92815 -3.65917,-3.96298 -3.65917,-4.52185 0,-1.78778 13.06089,-1.10919 15.81779,0.82182 4.85452,3.40024 10.43221,13.59794 10.43221,19.07325 0,4.74938 -0.31532,5.1935 -5.0253,7.07807 -2.76391,1.10589 -5.25474,2.01072 -5.53519,2.01072 -0.28044,0 -1.69303,-3.23438 -3.13911,-7.1875 z M 127.64943,99.59816 c -1.77622,-8.556 -0.88339,-16.57738 2.08691,-18.74932 2.73465,-1.999631 3.20662,-1.99723 5.97961,0.0304 1.87839,1.37351 2.04098,2.35198 1.01076,6.08307 -0.81306,2.9447 -0.79679,6.62542 0.0481,10.89886 0.70171,3.54892 1.0575,6.63699 0.79065,6.86239 -0.26685,0.22538 -2.27783,0.75068 -4.46883,1.16732 -3.97656,0.75619 -3.98623,0.74501 -5.44727,-6.29274 z" id="path4064" inkscape:connector-curvature="0" sodipodi:nodetypes="cssssssssssssscssccccsssssscscssssscsscsssssscssssssscccssssssscssssssssssssssssssssscssssssscccssssssssssssssssssscccscssssscsssssssssccscscssssssssscssssscsssssssssssssssssssssssscsssccscc"/>
</svg>