<?xml version="1.0" encoding="UTF-8" standalone="no"?>
<!-- Created with Inkscape (http://www.inkscape.org/) -->
<svg xmlns:dc="http://purl.org/dc/elements/1.1/" xmlns:cc="http://creativecommons.org/ns#" xmlns:rdf="http://www.w3.org/1999/02/22-rdf-syntax-ns#" xmlns:svg="http://www.w3.org/2000/svg" xmlns="http://www.w3.org/2000/svg" xmlns:sodipodi="http://sodipodi.sourceforge.net/DTD/sodipodi-0.dtd" xmlns:inkscape="http://www.inkscape.org/namespaces/inkscape" id="svg2" version="1.1" inkscape:version="0.48+devel r12701" width="310.2937" height="467.16064" viewBox="0 0 310.2937 467.16064" sodipodi:docname="m.svg">

  <metadata id="metadata8">
    <rdf:RDF>
      <cc:Work rdf:about="">
        <dc:format>image/svg+xml</dc:format>
        <dc:type rdf:resource="http://purl.org/dc/dcmitype/StillImage"/>
        <dc:title>ASL letter</dc:title>
        <dc:date>11/11/2013</dc:date>
        <dc:creator>
          <cc:Agent>
            <dc:title>edited by Paul Sherman</dc:title>
          </cc:Agent>
        </dc:creator>
        <dc:rights>
          <cc:Agent>
            <dc:title>PD</dc:title>
          </cc:Agent>
        </dc:rights>
        <dc:publisher>
          <cc:Agent>
            <dc:title>WPClipart</dc:title>
          </cc:Agent>
        </dc:publisher>
        <dc:subject>
          <rdf:Bag>
            <rdf:li>sign</rdf:li>
            <rdf:li>language</rdf:li>
            <rdf:li>letter</rdf:li>
            <rdf:li>american</rdf:li>
          </rdf:Bag>
        </dc:subject>
        <cc:license rdf:resource="http://creativecommons.org/publicdomain/zero/1.0/"/>
      </cc:Work>
      <cc:License rdf:about="http://creativecommons.org/publicdomain/zero/1.0/">
        <cc:permits rdf:resource="http://creativecommons.org/ns#Reproduction"/>
        <cc:permits rdf:resource="http://creativecommons.org/ns#Distribution"/>
        <cc:permits rdf:resource="http://creativecommons.org/ns#DerivativeWorks"/>
      </cc:License>
    </rdf:RDF>
  </metadata>
  <defs id="defs6"/>
  <sodipodi:namedview pagecolor="#ffffff" bordercolor="#666666" borderopacity="1" objecttolerance="10" gridtolerance="10" guidetolerance="10" inkscape:pageopacity="0" inkscape:pageshadow="2" inkscape:window-width="1666" inkscape:window-height="1034" id="namedview4" showgrid="false" fit-margin-top="12" fit-margin-left="12" fit-margin-right="12" fit-margin-bottom="12" inkscape:zoom="2.6049124" inkscape:cx="160.47792" inkscape:cy="128.02703" inkscape:window-x="0" inkscape:window-y="0" inkscape:window-maximized="0" inkscape:current-layer="svg2"/>
  <path style="fill:#000000" d="m 76.276993,454.69515 c -0.57083,-0.96489 1.64851,-16.26879 5.28518,-36.44515 3.20438,-17.77801 5.67083,-45.804 4.45673,-50.64138 -0.4977,-1.98296 -2.82492,-6.12076 -5.17163,-9.1951 -6.08163,-7.96737 -13.157333,-16.142 -19.841241,-26.08351 -2.42328,-3.60434 -3.959231,-8.23164 -9.954433,-21.07673 C 42.633873,293.21779 36.737545,278.35645 34.335994,245.125 33.590737,234.8125 29.562726,204.16272 29.138451,201.41272 28.343824,196.26223 16.066245,188.05384 16.556396,174.59833 16.963029,163.43556 10.842032,158.3622 22.955257,127.24016 l 4.041955,-10.38484 14.568746,-9.55025 c 12.893949,-8.45238 15.502785,-9.67382 22.693745,-10.6251 4.46875,-0.59116 10.09375,-2.02662 12.5,-3.18991 L 81.134703,91.375 82.059863,77 c 1.0246,-15.919999 13.397263,-31.949356 19.221807,-34.329452 14.75637,-6.029934 12.81591,-5.676839 23.82458,-7.972209 9.02061,-1.880849 23.21386,-2.258273 26.86537,-0.826404 1.58945,0.623273 0.56455,-2.406898 4.5177,-4.589295 11.53755,-6.369483 10.3532,-9.656534 22.11556,-10.202971 5.61937,-0.261056 13.83963,-1.695669 21.55162,-0.842033 12.9414,1.432477 14.38106,1.862613 18.6842,5.582378 l 4.66237,4.030311 5.52735,-4.869622 c 6.08063,-5.357061 15.64153,-5.606242 19.52134,-5.606242 4.18543,0 14.71396,2.55792 21.33715,7.700941 6.99269,5.429934 13.32199,12.524715 16.21369,18.174598 0.87969,1.71875 4.01475,9.856114 6.96681,18.08303 5.27515,14.701011 5.36405,15.216491 5.17424,30 -0.32145,25.03505 -0.31881,69.60961 0.52496,81.31889 0.55656,7.72358 -0.0934,7.25315 0.0462,30.18979 0.1238,20.34663 -0.74373,33.93583 -2.93592,43.90775 -4.91867,22.37424 -5.99051,28.50159 -33.4495,80.25054 -13.11081,24.70852 -21.62011,44.2643 -24.02593,55.21557 -1.40272,6.3852 -2.05103,16.04892 -2.14045,31.90582 -0.11975,21.23097 -0.25563,22.50041 -2.03967,19.05423 -1.82315,-3.52173 -2.01275,-3.59079 -4.1077,-1.49638 -3.67707,3.67612 -4.42737,0.053 -3.79388,-18.31984 1.30096,-37.73139 3.8354,-49.42189 14.52187,-66.9844 8.2798,-13.60732 33.46121,-55.57066 38.79807,-75.71195 2.9657,-11.19253 4.6404,-15.3387 6.46303,-24.95365 2.8171,-14.86114 1.90284,-17.21216 3.49402,-34.07859 1.4458,-15.32538 -1.57384,-30.35342 -1.12251,-44.72117 0.28481,-9.06659 -4.91678,-45.51484 -3.52751,-68.66486 1.03358,-17.222944 -0.63687,-25.345911 -8.18965,-39.823966 -5.3884,-10.329153 -18.08842,-24.72203 -24.94117,-28.265723 -3.53005,-1.825464 -4.9151,-1.920079 -9.46388,-0.6465 -2.93074,0.820556 -7.39047,3.191478 -9.91052,5.268714 -5.19533,4.282424 -19.58353,25.138152 -25.69507,37.245026 -3.9528,7.830456 -4.05386,8.417349 -3.33008,19.339099 0.41053,6.19496 1.67437,17.45107 2.80852,25.01357 1.33845,8.92474 1.85804,18.1366 1.4806,26.25 l -0.5815,12.5 2.14765,-5.03476 c 3.63509,-8.52175 13.14584,-10.64517 21.68629,-4.84178 6.47706,4.40128 8.82132,10.16294 6.9615,17.10975 -1.53904,5.74855 -4.90221,12.14179 -6.38723,12.14179 -0.51508,0 -1.55427,-1.1543 -2.30932,-2.56511 -1.04306,-1.94898 -0.89494,-4.00388 0.61666,-8.55488 2.29533,-6.91057 1.76039,-9.23108 -2.58439,-11.2107 -4.29127,-1.95523 -8.18098,-1.77665 -11.46928,0.52656 -2.24844,1.57488 -2.77814,3.15184 -2.77814,8.2708 0,6.85243 0.4993,6.58918 -7.57386,3.99323 -2.11709,-0.68076 -4.92614,4.09601 -4.92614,8.37685 0,1.35801 2.32164,4.98779 5.1592,8.06617 4.76795,5.17263 5.6258,5.59708 11.31207,5.59708 16.23248,0 21.05505,-10.90023 28.3611,-34.32469 3.06591,-9.82984 5.14174,-9.72819 7.4854,-19.56287 l 2.49922,-10.48744 2.70734,-17.25889 c 1.94739,-12.414342 0.70337,-17.139055 3.96759,-24.204156 4.37528,-9.469938 5.99487,-13.481353 9.72334,-12.29798 4.55014,1.44416 5.36887,6.129486 2.62398,15.016402 -3.0406,9.844324 -5.47336,14.400183 -7.10538,30.269914 -1.25165,12.17099 -0.92438,11.75913 -3.16147,18.50889 l -4.57534,13.80472 -6.88095,15.93824 c -4.37563,10.13521 -2.32638,9.90267 -9.21065,19.67572 -3.91717,5.56089 -15.19207,12.82695 -22.22344,12.80849 -5.06691,-0.0132 -12.86116,0.53518 -20.18988,-4.15898 -7.2629,-4.652 -7.45555,-3.16222 -13.61713,-1.70028 -9.38839,2.22756 -23.45364,2.07132 -29.44787,-0.32709 -4.89137,-1.95714 -5.33137,-1.93442 -9.71279,0.50146 -8.39693,4.66832 -20.58093,5.33856 -25.94651,6.52437 -4.16901,0.92136 -5.33394,-1.15314 -5.10442,-0.80592 -0.15497,0.15498 3.69404,3.75454 8.55337,7.99903 9.4934,8.29222 22.87727,15.49627 39.15822,21.07744 5.5,1.88541 7.09543,6.23319 7.29898,6.37731 0.20355,0.14414 1.77622,0.87705 -0.25879,4.91307 -6.90909,13.70283 -8.25405,23.57434 -6.44968,47.33824 0.73082,9.625 1.81206,18.21691 2.87198,21.43913 4.40118,13.37996 19.38341,35.30925 42.08903,55.15682 l 4.21261,6.69978 3.80425,4.78897 -5.40912,2.86952 -13.24854,-14.00972 c -24.528,-25.93723 -32.58912,-33.74512 -38.933,-51.98895 -2.4015,-6.90629 -9.12863,-36.28261 -9.05821,-49.33055 0.0204,-3.78125 1.16983,-9.96875 2.55425,-13.75 3.64849,-9.96495 4.05018,-11.81886 -2.95818,-14.22103 -8.73572,-2.99422 -20.37279,-9.11056 -30.87072,-17.84956 -4.82602,-4.01742 -11.63671,-8.05099 -12.78886,-8.96346 -1.92214,-1.52229 -2.07468,-0.94031 -1.85041,7.05981 0.22446,8.00739 -0.0616,9.09563 -3.50559,13.33619 -5.667497,6.97835 -13.523496,10.81131 -20.213186,10.95621 -7.10244,0.15385 -11.785041,1.51126 -23.616241,-8.46404 -4.506059,-3.79922 -4.928563,-6.84159 -8.060341,-8.69109 -2.798175,-1.6525 -5.233393,-7.01599 -5.411597,-6.75768 -0.178203,0.25831 0.109875,11.09612 0.640188,24.08404 1.208755,29.60402 2.999954,46.35032 7.900576,54.07876 2.009486,3.16902 4.797981,12.48832 8.226523,20.01702 6.052156,13.28987 8.27281,16.06712 13.47737,25.78892 10.039036,18.7523 14.341101,19.66951 26.940908,21.99871 7.89555,1.45958 10.46021,2.95082 11.95411,6.95082 2.8561,7.64743 2.89316,7.55138 -2.91402,7.55138 -6.29677,0 -11.21394,2.27857 -13.110067,6.07509 -0.73477,1.4712 -2.20343,9.98741 -3.2637,18.92491 -2.27086,19.14225 -9.36153,53.16991 -11.65397,55.92664 -1.78153,2.14235 -6.24958,3.66917 -7.00426,2.39351 z m 8.33536,-230.64763 c 6.3461,-2.68602 8.22229,-5.76833 9.74566,-16.0108 1.38814,-9.33317 1.36106,-9.52393 -2.09181,-14.74157 -3.3753,-5.10044 -3.67605,-5.25835 -8.56483,-4.4971 -9.45135,1.47172 -16.01564,5.69662 -19.19523,12.3544 l -2.87856,6.02746 2.74067,7.25111 c 3.108755,8.22497 10.45454,11.31898 13.55811,11.31898 1.465,0 4.47369,-0.76611 6.68599,-1.70248 z M 62.621003,190.125 c 0.610498,-1.45554 1.961462,-3.62671 4.21215,-2.79348 6.360278,2.35466 2.137675,-2.89067 6.21106,-2.1902 2.713689,0.46666 8.28049,-1.52748 9.54372,-1.07618 3.94437,1.40915 -3.93854,-6.16623 -17.36785,-16.69029 -10.286865,-8.06145 -13.083134,-11.01286 -16.147304,-17.04321 -5.17366,-10.18187 -5.868815,-17.5908 -2.313531,-24.65756 1.535454,-3.05199 3.660249,-6.5369 4.721765,-7.74424 3.322081,-3.77845 0.549958,-3.95783 -4.720419,-0.30545 -6.040634,4.18616 -13.447266,12.16427 -14.941466,16.09431 -0.593455,1.56091 -2.534198,9.26587 -4.312761,17.12215 l -2.849862,18.12305 9.44235,15.0179 c 8.641115,13.74355 5.691843,10.39125 16.268068,19.21477 7.28034,6.07383 6.857591,5.225 9.90167,9.1807 l 0.27969,-13.33115 c 0.07447,-3.54965 2.07272,-8.92112 2.07272,-8.92112 z m 75.138277,-7.38124 c 1.85648,-0.96592 4.6679,-3.14014 6.24759,-4.83157 2.82235,-3.022 2.84867,-3.31137 1.51717,-16.68127 -1.67367,-16.80576 -5.00441,-32.452 -6.27959,-46.68665 -0.91343,-10.19645 -0.99365,-11.92074 0.4305,-24.13389 0.84459,-7.2431 0.0368,-19.81663 1.9585,-28.41038 1.9217,-8.59375 3.36647,-15.791656 3.21061,-15.995346 -0.67173,-0.877863 -27.13707,2.469991 -32.78525,4.147318 C 98.619023,54.143163 95.429443,59.733006 94.599493,80.75 c -0.53579,13.56761 -0.3058,15.35791 4.0948,31.875 3.617347,13.57724 4.738797,20.30197 5.002967,30 0.23404,8.59161 1.11518,14.64961 2.81808,19.375 4.95267,13.74319 7.5732,18.58025 11.1025,20.49345 4.44833,2.4114 15.7187,2.55146 20.14143,0.25031 z m -4.12458,-35.78395 c -7.8497,-5.60237 -11.06611,-5.83634 -18.3121,-1.33199 -3.42595,2.1297 -6.436,3.87218 -6.68899,3.87218 -0.25299,0 0.66371,-3.32743 2.03711,-7.39429 2.46217,-7.29086 2.58398,-7.41514 8.70928,-8.88457 4.87981,-1.17065 7.01786,-1.15655 9.96871,0.0658 4.24718,1.75924 10.31919,11.03707 9.69125,14.8079 -0.37811,2.27051 -0.74027,2.19446 -5.40526,-1.13497 z M 98.731203,172.9631 c -1.68348,-3.80665 -4.2768,-10.92436 -5.76294,-15.81714 -1.48614,-4.89277 -2.85702,-8.89596 -3.04641,-8.89596 -0.1894,0 -3.0539,1.19856 -6.36558,2.66347 l -6.02121,2.66347 -2.96145,-3.60097 c -8.41595,-10.23336 -10.31391,-13.97031 -10.31391,-20.30732 0,-8.83245 3.02704,-12.58111 10.33778,-18.35991 7.41437,-5.86073 4.1013,-6.02079 -4.31523,-0.68319 -6.1401,3.89394 -11.694,13.09069 -13.08614,21.66945 -0.835902,5.15106 2.97945,11.59322 13.06178,22.05461 6.98634,7.249 30.261497,26.80736 31.010457,26.05841 0.28805,-0.28806 -0.85366,-3.63826 -2.537147,-7.44492 z m 81.686917,4.49271 c 3.17297,-0.63459 4.59209,-2.01999 7.06203,-6.89419 1.70011,-3.355 3.88262,-9.32573 4.85004,-13.26831 3.5632,-14.5214 3.55503,-21.55329 -0.059,-50.83402 l -3.47284,-28.136721 3.04317,-6.546153 c 1.67374,-3.600382 5.20159,-9.899074 7.83965,-13.997091 5.02623,-7.807784 10.82853,-19.963318 10.82853,-22.685187 0,-1.908065 -8.3049,-4.022937 -21.58115,-5.495716 -10.08236,-1.118471 -17.09531,-0.252976 -20.43959,2.522527 -3.24557,2.693586 -14.66182,21.816944 -17.36042,36.857454 -3.84808,21.447041 -2.77246,25.668517 -0.72628,51.315737 0.95006,11.90827 2.95835,24.30169 3.46491,26.36146 0.9068,3.6872 3.64631,2.10336 6.07147,-4.66056 l 2.46322,-6.87004 5.81974,-0.37653 c 9.43581,-0.61048 13.78053,1.10747 16.95504,6.70424 2.83411,4.99665 3.67081,9.29729 1.80882,9.29729 -0.56333,0 -4.03992,-2.25 -7.72576,-5 -3.68584,-2.75 -7.20214,-5 -7.814,-5 -0.61186,0 -3.89015,2.34216 -7.28507,5.2048 l -7.70815,9.04371 0.39891,9.29546 c 0.37361,8.70587 3.24187,11.25969 4.6692,12.39353 2.09675,1.66561 12.33064,2.0817 18.89754,0.76831 z M 86.092293,144.40184 c 3.84626,-1.83417 4.4143,-8.441 4.3933,-12.32085 -0.0317,-5.86617 -2.8727,-16.67159 -4.52839,-17.22349 -0.71888,-0.23962 -5.902985,-1.01962 -8.70504,2.02025 -4.72695,5.12814 -2.687231,0.38389 -5.936061,11.36049 -2.911756,9.83775 6.943341,19.89882 14.776191,16.1636 z" id="path4064" inkscape:connector-curvature="0" sodipodi:nodetypes="sssssssssscssscsssssssscssssssssssssssssssssssssssssscssssssssssssssscsssssscsscssssscsscsssscccssssssssssssssssssssssssssssscsssscssssssssscsscssccssssssssssscccsssscsccscsscsssssscscssscssssssssscsssssscssccsssssss"/>
</svg>