<?xml version="1.0" encoding="UTF-8" standalone="no"?>
<!-- Created with Inkscape (http://www.inkscape.org/) -->
<svg xmlns:dc="http://purl.org/dc/elements/1.1/" xmlns:cc="http://creativecommons.org/ns#" xmlns:rdf="http://www.w3.org/1999/02/22-rdf-syntax-ns#" xmlns:svg="http://www.w3.org/2000/svg" xmlns="http://www.w3.org/2000/svg" xmlns:sodipodi="http://sodipodi.sourceforge.net/DTD/sodipodi-0.dtd" xmlns:inkscape="http://www.inkscape.org/namespaces/inkscape" id="svg2" version="1.1" inkscape:version="0.48+devel r12701" width="232.66739" height="478.116" viewBox="0 0 232.66739 478.116" sodipodi:docname="r.svg">

  <metadata id="metadata8">
    <rdf:RDF>
      <cc:Work rdf:about="">
        <dc:format>image/svg+xml</dc:format>
        <dc:type rdf:resource="http://purl.org/dc/dcmitype/StillImage"/>
        <dc:title>ASL letter</dc:title>
        <dc:date>11/11/2013</dc:date>
        <dc:creator>
          <cc:Agent>
            <dc:title>edited by Paul Sherman</dc:title>
          </cc:Agent>
        </dc:creator>
        <dc:rights>
          <cc:Agent>
            <dc:title>PD</dc:title>
          </cc:Agent>
        </dc:rights>
        <dc:publisher>
          <cc:Agent>
            <dc:title>WPClipart</dc:title>
          </cc:Agent>
        </dc:publisher>
        <dc:subject>
          <rdf:Bag>
            <rdf:li>sign</rdf:li>
            <rdf:li>language</rdf:li>
            <rdf:li>letter</rdf:li>
            <rdf:li>american</rdf:li>
          </rdf:Bag>
        </dc:subject>
        <cc:license rdf:resource="http://creativecommons.org/publicdomain/zero/1.0/"/>
      </cc:Work>
      <cc:License rdf:about="http://creativecommons.org/publicdomain/zero/1.0/">
        <cc:permits rdf:resource="http://creativecommons.org/ns#Reproduction"/>
        <cc:permits rdf:resource="http://creativecommons.org/ns#Distribution"/>
        <cc:permits rdf:resource="http://creativecommons.org/ns#DerivativeWorks"/>
      </cc:License>
    </rdf:RDF>
  </metadata>
  <defs id="defs6"/>
  <sodipodi:namedview pagecolor="#ffffff" bordercolor="#666666" borderopacity="1" objecttolerance="10" gridtolerance="10" guidetolerance="10" inkscape:pageopacity="0" inkscape:pageshadow="2" inkscape:window-width="1112" inkscape:window-height="995" id="namedview4" showgrid="false" fit-margin-top="12" fit-margin-right="12" fit-margin-bottom="12" fit-margin-left="12" inkscape:zoom="0.64167939" inkscape:cx="132.03956" inkscape:cy="96.517569" inkscape:window-x="0" inkscape:window-y="0" inkscape:window-maximized="0" inkscape:current-layer="svg2"/>
  <path style="fill:#000000" d="M 68.466945,454.8125 C 66.034665,448.10937 62.213251,436.71875 59.974914,429.5 56.917555,419.63986 54.132337,413.71975 48.778128,405.70069 35.017925,385.09188 25.338519,362.3797 17.619861,332.58957 c -7.7130997,-29.76866 -7.515594,-48.00236 0.771182,-71.19553 2.460136,-6.88548 5.571708,-18.68587 6.914606,-26.2231 3.783154,-21.23357 5.548327,-23.92935 18.555946,-28.33873 l 9.375,-3.17797 -0.385084,-16.8343 -0.385082,-16.83429 12.421935,-6.49609 c 14.392221,-7.52646 22.634861,-9.33825 26.513751,-5.8279 4.2405,3.83761 10.872285,14.71919 12.947575,21.24468 1.89945,5.97261 1.96016,5.03167 1.53433,-23.78134 -0.46986,-31.79296 -0.4963,-31.96653 -7.901805,-51.875 -3.22898,-8.68059 -4.59218,-14.63829 -5.06762,-22.14735 -0.8817,-13.925811 0.96459,-20.009601 8.253165,-27.19546 5.72281,-5.642145 5.75798,-5.728986 6.57521,-16.239118 C 109.12219,19.930571 115.64036,12 128.83967,12 c 14.86959,0 24.89364,9.33161 30.74983,28.625716 2.01324,6.632886 2.39485,37.805924 0.55971,45.721464 -1.40459,6.05847 2.52165,8.18439 11.57208,29.04908 9.46547,21.82151 9.42419,21.14633 16.30529,41.2417 5.88059,17.17349 9.88922,20.53311 13.58325,32.03977 9.29553,28.95497 13.83841,38.53995 17.37677,56.07291 3.92315,19.4397 1.39822,34.83818 -12.04833,72.28931 -6.75046,18.80131 -8.5055,25.3506 -10.00056,37.31909 -0.99731,7.98377 -3.50367,23.44669 -5.5697,34.36201 -3.18546,16.8296 -3.75641,22.86651 -3.75641,39.71844 l 2.66435,21.94466 -5.87073,-0.85321 c -7.94408,-1.15454 -7.24461,4.0172 -6.26063,-28.15594 0.49411,-16.15625 0.4357,-29.36891 -0.1298,-29.36147 -0.5655,0.007 -3.78946,0.8512 -7.16435,1.875 -9.54242,2.8948 -10.81839,2.61131 -9.9067,-2.20103 1.14703,-6.05452 2.75912,-7.49551 7.40952,-6.62309 2.57203,0.48252 5.5955,0.007 8.36828,-1.31475 3.65053,-1.74082 4.66972,-3.18836 6.40536,-9.09745 3.76164,-12.80673 4.33039,-19.06145 3.08276,-33.90221 -0.66465,-7.90625 -1.6397,-25.90625 -2.16679,-40 -1.12691,-30.13313 -0.81628,-29.24041 -15.62701,-44.9123 -5.5986,-5.92411 -14.6053,-17.38205 -20.01491,-25.46206 -5.43008,-8.11062 -12.70875,-17.20655 -16.25,-20.30714 -6.69043,-5.8579 -17.05393,-10.5685 -23.25113,-10.5685 -2.68655,0 -4.32327,-1.04589 -6.35752,-4.0625 -1.50675,-2.23438 -4.748835,-5.84229 -7.204605,-8.0176 l -4.46506,-3.95509 -8.4455,4.25308 c -11.99233,6.03925 -17.31554,11.00163 -17.31554,16.14186 0,5.23827 8.96031,23.23224 14.7722,29.6653 2.43775,2.6983 6.5623,5.99265 9.16568,7.3208 6.02546,3.07396 18.840525,6.11177 25.883365,6.13567 4.72698,0.016 5.31568,0.30737 4.4577,2.20598 -2.27849,5.042 -2.02705,14.92576 0.50602,19.891 3.17289,6.21936 10.71884,14.01076 18.91535,19.53061 l 6.39438,4.30623 -5.12519,0.81955 c -5.89563,0.94275 -14.09416,-0.94137 -18.85853,-4.33389 l -3.28696,-2.34051 -7.70262,14.18958 c -6.91052,12.73037 -8.03083,15.8445 -10.894105,30.28226 -5.31279,26.78921 -2.57713,39.96887 13.167025,63.43514 9.63346,14.35844 9.83315,15.5357 2.98318,17.58698 -2.19765,0.6581 -3.13499,0.0735 -4.68364,-2.92133 -1.06489,-2.05923 -4.63169,-7.00973 -7.92624,-11.0011 -9.860855,-11.94648 -11.470185,-14.79666 -14.049715,-24.88251 -3.16849,-12.38869 -3.15387,-26.01632 0.0452,-42.17816 2.10708,-10.64488 4.19803,-16.13138 12.940635,-33.95543 l 10.42747,-21.25908 -2.33961,-3.13364 c -1.28678,-1.72351 -2.67885,-5.99806 -3.09349,-9.49903 l -0.75389,-6.36537 -6.192485,-1.4294 c -3.40588,-0.78618 -6.64719,-1.4294 -7.20293,-1.4294 -0.55573,0 0.84945,3.51562 3.12264,7.8125 5.620205,10.6236 7.659875,24.65143 4.806415,33.05608 -2.657935,7.82876 -4.923555,11.08492 -9.817285,14.10941 -5.2451,3.24165 -13.09492,3.24405 -19.44214,0.006 -6.223624,-3.17507 -8.43805,-6.57193 -10.735839,-16.46845 -1.605589,-6.91523 -2.756706,-8.82549 -9.313425,-15.45548 l -7.481401,-7.56501 -8.367774,0.30227 -8.367774,0.30228 -2.360343,6.63772 c -2.177184,6.12266 -2.252762,8.09273 -0.973946,25.38774 2.178839,29.46717 7.888934,51.31108 19.237805,73.59408 6.606413,12.97138 17.521537,28.52065 24.997117,35.60991 5.51356,5.22864 13.9787,6.71552 19.10607,3.35594 4.13437,-2.70894 4.73897,-2.03562 3.69907,4.11952 -1.18297,7.00195 -4.27446,9.43918 -10.93991,8.62466 -2.93872,-0.35911 -6.21514,-1.01337 -7.28092,-1.45393 -3.44671,-1.42474 -0.8575,16.68836 3.96743,27.75448 3.92881,9.01087 3.98803,9.39175 1.71829,11.05143 -1.29291,0.94509 -5.68887,0.83048 -6.51235,0.83048 -0.82349,0 -0.82295,-4.59626 -3.25523,-11.29938 z M 203.15811,297.07224 c 11.55953,-35.75719 -1.35939,-71.39992 -6.38785,-87.95632 -6.14891,-20.24553 -11.4013,-32.66731 -13.96279,-40.57544 -3.76728,-11.63076 -10.69664,-31.25833 -19.92276,-47.78523 -5.18283,-9.28414 -10.75431,-19.00183 -12.38104,-21.59487 -1.62671,-2.59304 -5.70652,-10.46804 -9.06625,-17.5 -7.14067,-14.945605 -12.79897,-21.290274 -20.77911,-23.299696 -11.77396,-2.964719 -18.04671,3.626013 -18.04671,18.961545 0,14.410131 6.77228,29.302121 12.99517,42.675221 2.03828,4.38029 2.44915,6.33044 4.69546,10.35774 1.70686,3.06017 6.60006,16.2445 10.7427,24.38889 3.62723,7.1311 5.33679,15.22495 8.60723,23.5416 4.33841,11.03248 11.32548,35.59354 13.68943,40.18987 2.83368,5.50969 10.77342,15.6601 21.82316,27.89945 18.36136,20.33811 19.91629,24.55544 19.99577,54.23311 0.0561,20.9386 0.0904,20.92342 7.99759,-3.53587 z M 165.7366,196.95226 c -4.125,-1.23871 -9.29492,-2.29721 -11.48873,-2.35223 -3.74811,-0.094 -6.44861,-1.95435 -4.97542,-3.42754 0.36365,-0.36366 6.02292,-1.34819 12.57615,-2.18784 l 6.29022,1.1377 3.72773,2.3533 c 1.81825,1.14786 3.70885,3.63373 4.0476,4.83685 0.74359,2.64093 -0.30736,2.60373 -10.17755,-0.36024 z m -25.625,-42.192 c 0,-2.04038 8.58979,-11.84756 13.20008,-10.3657 13.79771,4.43494 6.10934,-1.21607 8.47765,3.69082 2.33783,4.84375 1.91276,2.66462 -1.56637,2.66462 -2.00124,0 -7.20436,1.11774 -11.5625,2.48387 -9.25926,2.90248 -8.54886,2.77564 -8.54886,1.52639 z m -12.50344,-35.25544 c 3.37218,-4.73578 9.22858,-5.58017 12.94393,-5.04847 2.8184,0.40335 9.64196,1.62787 7.96506,3.30477 -0.87741,0.87742 -19.23014,5.46315 -21.92816,5.47913 -1.13442,0.006 -0.81695,-1.15683 1.01917,-3.73543 z M 87.239585,298.00479 c 3.79613,-3.67934 4.12201,-4.61235 4.12201,-11.80123 0,-4.29331 -0.57448,-8.16107 -1.27663,-8.59501 -0.70214,-0.43395 -3.37401,0.23598 -5.9375,1.48872 -4.39347,2.14705 -6.7256,4.37667 -6.60175,9.67896 0.0723,3.09375 0.24952,7.13244 0.75573,8.61304 0.72476,2.1198 1.21774,1.69535 -0.97092,2.39 -2.16961,0.68861 -0.92019,0.23412 0.42841,1.08824 3.01928,1.91225 5.24867,1.23908 9.48065,-2.86272 z m -16.10205,-8.48717 c -0.76918,-4.23193 -0.6888,-7.06193 0.25042,-8.81688 1.99166,-3.72144 8.69032,-7.44064 13.41114,-7.44606 2.23438,-0.002 4.0625,-0.58959 4.0625,-1.30448 0,-2.4644 -5.32178,-11.84725 -11.39993,-20.09927 -3.35192,-4.55074 -9.975351,-14.67574 -14.718734,-22.5 -4.743384,-7.82425 -9.56572,-14.41547 -10.716304,-14.64712 -2.682112,-0.54001 -11.291393,5.40944 -14.646818,10.1217 -2.339774,3.28592 -2.481899,4.50218 -1.47159,12.59334 0.999652,8.00581 0.817765,9.65628 -1.714154,15.55429 -1.557859,3.62898 -2.83247,6.80181 -2.83247,7.05075 0,0.24892 1.928311,0.67771 4.285136,0.95286 l 4.285137,0.50026 -0.682195,-5.76006 c -0.510582,-4.31108 -0.05199,-6.98848 1.823011,-10.64323 l 2.505206,-4.88315 3.369729,11.21722 c 2.998686,9.98207 3.925066,11.63012 8.413199,14.96721 7.453993,5.54231 10.975663,10.81692 12.991537,19.4582 1.69234,7.25441 2.64203,9.9168 3.53737,9.9168 0.20932,0 -0.12916,-2.80456 -0.75219,-6.23238 z M 136.3616,190.99271 c -2.84074,-10.91498 -5.90573,-19.83586 -9.85834,-26.88895 -1.63581,-2.91896 -3.37843,-7.45773 -5.7669,-10.22073 l -4.65927,-5.38989 -2.5e-4,19.8949 c -1.8e-4,14.31266 -0.16388,20.95818 0.82793,22.04903 1.4741,1.62129 15.1514,7.50858 17.89433,7.70248 1.08326,0.0766 2.82976,-2.27765 1.5625,-7.14684 z M 73.261185,178.90686 c 4.11148,-3.07622 9.05208,-5.93996 10.97912,-6.36386 3.6961,-0.81304 3.92845,-2.64985 0.60074,-4.74891 -5.49806,-3.46809 -23.096861,7.9258 -21.459534,13.89341 0.424414,1.54688 1.138999,2.8125 1.587967,2.8125 0.448966,0 4.180237,-2.51691 8.291707,-5.59314 z M 148.61337,41.422364 C 144.76724,31.017671 136.03301,22 129.80151,22 c -3.51687,0 -5.05082,0.762691 -6.9136,3.4375 -3.26465,4.687779 -5.27631,11.010834 -5.27631,16.584442 0,4.492495 0.17127,4.671858 5.09135,5.331779 7.19092,0.964504 14.35781,6.414901 21.03545,15.997381 l 5.7482,8.248734 0.94084,-11.362417 C 151.25975,50.185667 151.0505,48.01533 148.61337,41.422364 Z M 122.1105,231.52546 c 1.07563,-3.59918 8.79679,-9.78068 4.17168,-8.96967 -4.22566,0.74097 6.24413,-3.55774 7.24111,-2.56078 0.86745,0.86747 -3.42017,9.54474 -7.17768,14.52618 -2.03627,2.69955 -5.97371,2.82181 -4.23511,-2.99573 z M 76.844735,218.36747 c -5.01155,-3.05594 -13.487441,-16.95955 -10.01395,-16.95955 0.54748,0 5.83934,2.54643 9.58873,4.93508 3.7494,2.38866 8.58204,7.90987 9.65374,7.92746 1.07169,0.0176 7.33539,-2.85206 11.38657,-5.29156 5.478055,-3.2987 6.726365,-4.6359 10.025255,-4.35854 3.91799,0.32942 3.29463,-1.55609 3.62095,1.76853 0.32956,3.35772 -0.34489,4.19027 -6.25,7.71512 -11.485135,6.85565 -21.308345,8.35079 -28.011295,4.26346 z" id="path4064" inkscape:connector-curvature="0" sodipodi:nodetypes="csssssscccssssssssssssssssssscsscssscssssssssscsssssssscsscsssscsssscsscsssssssscccssssssssscsccsssssssssssssssssssscsssssssssssscssscscsssssscssssssssscsscsssssssscsscssssssssssssscsssscsssssssssss"/>
</svg>