<?xml version="1.0" encoding="UTF-8" standalone="no"?>
<!-- Created with Inkscape (http://www.inkscape.org/) -->
<svg xmlns:dc="http://purl.org/dc/elements/1.1/" xmlns:cc="http://creativecommons.org/ns#" xmlns:rdf="http://www.w3.org/1999/02/22-rdf-syntax-ns#" xmlns:svg="http://www.w3.org/2000/svg" xmlns="http://www.w3.org/2000/svg" xmlns:sodipodi="http://sodipodi.sourceforge.net/DTD/sodipodi-0.dtd" xmlns:inkscape="http://www.inkscape.org/namespaces/inkscape" id="svg2" version="1.1" inkscape:version="0.48+devel r12701" width="367.7569" height="561.5" viewBox="0 0 367.7569 561.5" sodipodi:docname="z.svg">

  <metadata id="metadata8">
    <rdf:RDF>
      <cc:Work rdf:about="">
        <dc:format>image/svg+xml</dc:format>
        <dc:type rdf:resource="http://purl.org/dc/dcmitype/StillImage"/>
        <dc:title>ASL letter</dc:title>
        <dc:date>11/11/2013</dc:date>
        <dc:creator>
          <cc:Agent>
            <dc:title>edited by Paul Sherman</dc:title>
          </cc:Agent>
        </dc:creator>
        <dc:rights>
          <cc:Agent>
            <dc:title>PD</dc:title>
          </cc:Agent>
        </dc:rights>
        <dc:publisher>
          <cc:Agent>
            <dc:title>WPClipart</dc:title>
          </cc:Agent>
        </dc:publisher>
        <dc:subject>
          <rdf:Bag>
            <rdf:li>sign</rdf:li>
            <rdf:li>language</rdf:li>
            <rdf:li>letter</rdf:li>
            <rdf:li>american</rdf:li>
          </rdf:Bag>
        </dc:subject>
        <cc:license rdf:resource="http://creativecommons.org/publicdomain/zero/1.0/"/>
      </cc:Work>
      <cc:License rdf:about="http://creativecommons.org/publicdomain/zero/1.0/">
        <cc:permits rdf:resource="http://creativecommons.org/ns#Reproduction"/>
        <cc:permits rdf:resource="http://creativecommons.org/ns#Distribution"/>
        <cc:permits rdf:resource="http://creativecommons.org/ns#DerivativeWorks"/>
      </cc:License>
    </rdf:RDF>
  </metadata>
  <defs id="defs6"/>
  <sodipodi:namedview pagecolor="#ffffff" bordercolor="#666666" borderopacity="1" objecttolerance="10" gridtolerance="10" guidetolerance="10" inkscape:pageopacity="0" inkscape:pageshadow="2" inkscape:window-width="1077" inkscape:window-height="989" id="namedview4" showgrid="false" fit-margin-top="12" fit-margin-right="12" fit-margin-left="12" fit-margin-bottom="12" inkscape:zoom="0.56568542" inkscape:cx="188.12491" inkscape:cy="138.71512" inkscape:window-x="0" inkscape:window-y="0" inkscape:window-maximized="0" inkscape:current-layer="svg2"/>
  <path style="fill:#000000" d="m 236.27694,547.9375 c -0.68369,-0.85938 -3.62693,-10.12412 -6.54053,-20.58834 -2.91361,-10.46421 -6.21998,-20.67601 -7.3475,-22.6929 -1.12751,-2.01687 -4.9429,-6.1115 -8.47862,-9.09916 -13.28663,-11.22705 -26.75126,-28.62444 -44.01053,-56.86507 -4.94447,-8.09045 -13.11372,-18.57387 -22.56065,-28.95159 -14.22271,-15.62408 -14.84294,-16.53669 -15.65481,-23.03468 -1.16627,-9.33453 3.35825,-44.60545 6.86328,-53.50261 1.36537,-3.4659 12.82433,-10.36679 19.5766,-11.78956 3.15366,-0.6645 4.74258,-2.14983 7.2727,-6.79846 3.81318,-7.00609 19.74239,-21.87587 26.42601,-24.66845 2.82176,-1.17902 6.56154,-1.70119 9.42911,-1.31657 4.585,0.61498 5.00068,0.34414 11.79265,-7.68383 16.31919,-19.28893 17.20931,-20.0807 24.35333,-21.66247 3.68,-0.81478 6.85434,-1.59102 7.05408,-1.72496 0.19975,-0.13395 -1.26026,-5.29184 -3.24447,-11.46199 -3.4948,-10.86752 -24.003,-47.99641 -44.03449,-79.72186 -10.61678,-16.81464 -12.34085,-20.78921 -13.24701,-30.53916 l -0.82045,-8.82777 4.3771,-4.12814 c 5.20069,-4.90488 11.85952,-7.12993 21.33746,-7.12993 6.47894,0 7.40091,0.39548 13.84215,5.9375 9.73589,8.37673 25.473,25.63221 32.75039,35.91024 3.39688,4.7975 10.01409,13.235 14.70491,18.75 4.69082,5.51498 10.79969,13.96476 13.57529,18.77726 2.7756,4.8125 6.86248,11.5625 9.08195,15 2.21948,3.4375 8.97882,18.0625 15.02079,32.5 6.04195,14.4375 14.32001,34.125 18.39569,43.75 14.83456,35.03286 16.98807,41.0603 17.86622,50.00532 0.47216,4.80958 2.86281,23.36968 5.31256,41.24468 5.45123,39.77577 6.11509,63.34551 2.29672,81.54252 l -2.42204,11.54252 2.87251,17.83248 c 4.49897,27.92947 4.56776,29.23354 1.62505,30.80843 -3.67701,1.96788 -5.25365,-0.62645 -7.3066,-12.02283 -4.64965,-25.81132 -5.73033,-38.40797 -5.01471,-58.45312 0.51468,-14.41673 0.34641,-19.26793 -0.60278,-17.37763 -1.6967,3.37899 -17.6033,11.15427 -20.52535,10.03297 -2.04067,-0.78308 -2.03338,-0.9827 0.12275,-3.36523 1.26067,-1.39301 4.45876,-3.75049 7.1069,-5.23882 8.49512,-4.77452 10.25255,-9.2347 10.74893,-27.27953 l 0.43263,-15.72824 -6.47447,-7.77986 C 325.03138,373.48899 322.2928,372 313.58247,372 c -9.12587,0 -23.36493,-4.13609 -46.86558,-13.61326 -28.53526,-11.5075 -36.78375,-13.93367 -50.21797,-14.77084 -21.79235,-1.35801 -29.72677,4.69514 -31.3517,23.91814 -0.64899,7.67753 -0.4042,9.94923 1.36266,12.64581 2.72457,4.15822 3.40516,3.42139 4.53586,-4.91075 1.63084,-12.0177 9.31614,-23.5548 17.13712,-25.72608 3.73528,-1.03697 4.77458,-0.62257 11.86145,4.72955 4.2721,3.22637 8.53751,7.47277 9.47867,9.43644 1.59579,3.32951 1.36273,4.27354 -3.45563,13.99739 -7.19556,14.52125 -10.19197,17.80482 -16.71877,18.32092 l -5.25969,0.41593 8.75,4.13739 c 17.5596,8.30295 29.60644,11.53008 46.9759,12.58405 18.36016,1.11406 18.15985,1.02521 31.11504,13.80172 9.5617,9.42981 9.38322,10.95005 -0.59094,5.03359 -3.4375,-2.03905 -6.69166,-3.71696 -7.23148,-3.72869 -1.56956,-0.0341 0.94473,3.87576 6.79702,10.56974 4.5572,5.21261 4.82911,5.78545 1.68446,3.54862 -2.0625,-1.46707 -7.35811,-5.80576 -11.76801,-9.64152 -12.4919,-10.86553 -25.12072,-15.87509 -28.81093,-11.42865 -2.51095,3.02551 -4.82207,17.06397 -3.84534,23.35777 1.16447,7.50345 3.19534,10.87654 12.23678,20.32412 7.35726,7.68773 9.78597,11.74442 6.25,10.43942 -0.85938,-0.31717 -4.52346,-1.55016 -8.14243,-2.73999 -12.22346,-4.01877 -17.79507,-15.88253 -17.79507,-37.89146 0,-15.41869 -1.42771,-19.05936 -7.47423,-19.05936 -2.8023,0 -4.87702,1.5153 -9.52701,6.95816 -3.2695,3.82699 -7.66925,7.85004 -9.77722,8.94011 -4.57969,2.36825 -22.42075,2.58691 -30.63355,0.37542 -2.93719,-0.7909 -5.61039,-1.16795 -5.94044,-0.8379 -1.85985,1.85985 14.31557,23.74997 36.22929,49.02892 l 17.41528,20.08971 6.81939,21.65234 c 6.98717,22.18504 7.57423,27.54324 3.01773,27.54324 -1.27772,0 -2.8825,-0.70313 -3.56619,-1.5625 z M 214.24038,425.50489 c 0.4229,-0.68428 -0.74793,-1.02178 -2.73458,-0.78825 -1.91076,0.2246 -3.68041,1.03775 -3.93256,1.80698 -0.55616,1.6968 5.5671,0.76115 6.66714,-1.01873 z m -6.64249,-2.5013 c 7.17255,-4.60262 8.28,-2.95633 -9.82325,-14.60272 -14.89151,-9.58016 -26.97307,-20.10678 -37.3343,-32.52925 -4.6432,-5.5669 -9.2481,-10.12162 -10.23312,-10.12162 -1.19522,0 -1.59869,-0.93555 -1.21297,-2.8125 0.3179,-1.54688 0.91933,-7.03125 1.33652,-12.1875 0.41717,-5.15625 1.04945,-10.35938 1.40504,-11.5625 0.49318,-1.6686 -0.0879,-2.1875 -2.44974,-2.1875 -2.87341,0 -3.20352,0.6524 -4.58558,9.0625 -0.81911,4.98437 -2.18941,12.85937 -3.04512,17.5 -1.40085,7.597 -0.9104,10.57554 1.18352,7.1875 0.4249,-0.6875 1.41435,-1.25 2.19878,-1.25 1.02731,0 1.00668,0.41954 -0.0737,1.5 -2.1376,2.1376 -1.85497,3.90369 0.48126,3.00719 1.1704,-0.44913 0.40302,1.2324 -1.875,4.10865 -5.83899,7.37232 -5.22398,9.81414 5.51077,21.87952 11.646,13.08962 19.30988,19.89113 26.13718,23.19617 6.57764,3.18418 11.38492,3.2377 17.35649,0.19322 l 4.63922,-2.36525 0,2.99025 c 0,4.11435 2.83199,3.83995 10.384,-1.00616 z m 9.51184,-12.76839 c -0.28647,-0.28315 -3.4737,-1.63525 -7.08275,-3.00469 -6.90688,-2.62077 -7.81464,-1.20287 -1.10053,1.719 3.60554,1.56908 9.38933,2.47778 8.18328,1.28569 z M 213.63674,387 c 1.27451,-1.71875 2.93443,-6.48865 3.68869,-10.59979 0.75426,-4.11112 2.20361,-9.08415 3.2208,-11.05115 1.66512,-3.22 1.63826,-3.80969 -0.26954,-5.9178 -1.16543,-1.28777 -4.58969,-3.285 -7.60946,-4.43826 -5.17155,-1.97502 -5.62994,-1.97065 -7.89084,0.0754 -5.98174,5.4134 -11.7556,25.34636 -9.05733,31.2684 0.81098,1.77992 2.67857,3.68162 4.15019,4.22602 4.40039,1.6278 11.2288,-0.1393 13.76749,-3.56285 z m 127.81929,-2.8125 c -0.33038,-2.23438 -2.21412,-16.4375 -4.1861,-31.5625 -3.2808,-25.16361 -4.01173,-28.50628 -8.60317,-39.34415 -2.75976,-6.51428 -5.61572,-12.04346 -6.34658,-12.28709 -2.4669,-0.8223 -15.356,7.56229 -22.4756,14.62076 -3.88915,3.85577 -12.3389,13.10302 -18.77724,20.54946 -11.473,13.26942 -11.659,13.58577 -9.34225,15.89007 2.96331,2.94739 17.17535,6.67114 21.40729,5.60899 1.74301,-0.43748 9.11051,-6.81249 16.37222,-14.16673 l 13.20312,-13.37131 -4.13984,7.5 c -2.27691,4.125 -5.5681,9.40377 -7.31375,11.73061 -1.74567,2.32684 -2.66572,3.99629 -2.04458,3.70989 0.62114,-0.28639 2.67859,-1.29716 4.57213,-2.24616 5.3563,-2.68445 5.60723,-0.49706 0.53848,4.69381 -2.53344,2.59449 -4.60627,5.0984 -4.60627,5.56423 0,0.46583 2.67187,1.62868 5.9375,2.58411 7.1941,2.10477 10.84141,0.85189 13.73274,-4.71735 3.0988,-5.96884 3.2932,-1.6099 0.2443,5.47749 l -2.73319,6.35345 5.6311,6.02011 c 3.09711,3.31105 6.01921,7.24291 6.49356,8.73745 1.33124,4.19435 3.10998,3.2122 2.43613,-1.34514 z m -159.4095,-25.22529 c 1.3796,-3.1188 3.99865,-7.62441 5.82011,-10.01247 l 3.31175,-4.34193 -2.1753,-15.99141 -2.1753,-15.9914 4.66924,-7.28564 c 5.11233,-7.97702 4.69628,-7.93682 -7.31194,0.7065 -5.09739,3.66901 -8.91579,7.806 -12.2574,13.28008 -4.46889,7.32075 -5.48219,11.44245 -1.94296,7.90322 2.02222,-2.02222 3.47916,-1.85646 3.47916,0.39584 0,1.03125 -0.62268,1.875 -1.38374,1.875 -0.76105,0 -1.06771,0.82354 -0.68146,1.83009 0.69267,1.80508 -3.64626,5.6419 -8.26606,7.30947 -2.87863,1.03908 -4.41115,5.27579 -5.40013,14.9288 -0.79945,7.80308 -0.77459,7.88399 4.51811,14.70145 2.9271,3.77035 7.63191,8.90288 10.45514,11.4056 l 5.13314,4.55041 0.84964,-9.79652 c 0.46731,-5.3881 1.97841,-12.34828 3.358,-15.46709 z m 42.16295,10.8667 c -1.52917,-1.52915 -4.49199,2.73234 -4.44034,6.38664 l 0.0553,3.90945 2.53514,-4.80545 c 1.39432,-2.64301 2.2268,-5.11379 1.84996,-5.49064 z m 30.95547,-28.76641 c -2.23637,-9.08085 -6.98479,-21.0735 -9.81106,-24.77895 -1.727,-2.26421 -3.14,-4.48497 -3.14,-4.93503 0,-0.45005 2.31542,-0.42707 5.1454,0.051 l 5.1454,0.86932 -0.90711,-13.88595 c -0.49893,-7.63728 -1.26748,-16.79865 -1.7079,-20.3586 -0.85713,-6.92808 -0.80298,-6.88457 -11.08694,-8.90739 -4.26089,-0.8381 -3.92906,-1.179 -24.59194,25.26372 -1.09459,1.40077 -0.61387,1.36803 2.37809,-0.16195 6.67666,-3.4142 11.17334,-3.81262 14.31534,-1.26837 l 2.85117,2.30874 -7.76076,2.15768 c -10.50925,2.92183 -19.15623,7.47566 -25.76851,13.57064 -5.1802,4.77494 -5.50645,5.46671 -5.41618,11.4843 0.0529,3.52181 0.76843,8.6335 1.5902,11.35929 l 1.49414,4.956 19.9723,0.17021 c 16.25681,0.13854 21.48381,0.64359 28.0973,2.71482 10.60582,3.32156 10.1762,3.35002 9.20106,-0.60952 z m 22.1438,-10 c 5.86727,-6.01563 13.14305,-13.72226 16.16841,-17.12585 3.02537,-3.4036 6.42218,-6.25625 7.54848,-6.33923 2.40806,-0.1774 17.35271,-11.42005 18.23429,-13.71738 0.47361,-1.23424 -2.26567,-8.97399 -7.60055,-21.47508 -0.0516,-0.121 -3.18239,0.81113 -6.9572,2.07144 -3.7748,1.26031 -13.48768,2.88653 -21.58416,3.61381 -9.64432,0.86631 -16.71034,2.20236 -20.48989,3.87424 l -5.76902,2.55191 0.86373,14.05431 C 258.75771,315.40989 259.68875,322 261.03288,322 c 0.5497,0 2.50247,-3.1771 4.33948,-7.06024 2.18594,-4.62069 3.67363,-6.52045 4.3055,-5.49805 1.29267,2.09156 -0.23919,8.42659 -4.41137,18.24335 -2.87651,6.76818 -3.20809,8.60441 -2.02325,11.20484 0.77938,1.71055 1.86271,3.1101 2.40741,3.1101 0.5447,0 5.79085,-4.92187 11.6581,-10.9375 z m -10.26034,-58.37956 c 4.16489,-1.54248 9.20398,-1.95108 21.25,-1.72312 10.72041,0.20288 16.6931,-0.19808 18.60167,-1.24877 2.72093,-1.49793 2.74851,-1.69671 0.85863,-6.19183 -1.07391,-2.55432 -5.33603,-12.80047 -9.47138,-22.76922 -4.13535,-9.96875 -8.92201,-20.54496 -10.63703,-23.5027 l -3.11821,-5.3777 -3.9716,2.66716 c -4.89665,3.28839 -31.40468,16.21324 -33.25229,16.21324 -2.27625,0 -1.53677,3.91922 3.65569,19.375 2.82992,8.42351 5,17.27726 5,20.39967 0,6.19724 0.11713,6.22006 11.08452,2.15827 z m -10.92597,-53.39543 c 4.55595,-1.34062 11.28699,-4.3725 14.95785,-6.7375 3.67086,-2.36501 7.11514,-4.30001 7.65395,-4.30001 2.18674,0 0.54125,-3.06093 -8.70785,-16.19834 -5.32813,-7.56806 -10.55556,-13.76946 -11.61654,-13.78089 -6.24583,-0.0673 -30.98896,9.02217 -36.04636,13.24172 -0.59321,0.49493 14.46865,26.57358 17.05509,29.5298 2.07505,2.37171 3.01667,2.27278 16.70386,-1.75478 z m -13.59605,-39.97575 c 8.07812,-2.13546 14.6875,-4.28571 14.6875,-4.77835 0,-2.65535 -20.12593,-27.29883 -30.78451,-37.69453 -13.51934,-13.18591 -16.88287,-14.76261 -25.79588,-12.09221 -3.78725,1.13469 -5.41467,2.4812 -6.69111,5.53616 -3.23669,7.74648 -1.24745,12.68988 18.4018,45.72952 2.33459,3.92554 5.08845,7.39567 6.1197,7.7114 2.72606,0.83464 7.5867,-0.0566 24.0625,-4.41199 z m 24.16935,221.50098 c 1.8427,-2.7845 3.59006,-5.06274 3.88302,-5.06274 0.29298,0 0.18503,0.5625 -0.23987,1.25 -1.73326,2.80449 3.13475,1.00694 5.53428,-2.04358 1.4249,-1.81146 2.59072,-2.69848 2.59072,-1.97115 0,1.90824 -7.13724,8.76293 -11.44191,10.98897 l -3.6766,1.90125 3.35036,-5.06275 z m 5.73654,-18.50024 c -0.23585,-3.0374 -2.11715,-3.7862 -3.14054,-1.25 -0.34676,0.85937 -0.67489,-1.74774 -0.72916,-5.79358 l -0.0987,-7.35607 2.57297,3.27101 c 1.93079,2.4546 2.45328,4.60258 2.09339,8.60608 -0.26377,2.93428 -0.57786,4.06943 -0.69797,2.52256 z m 6.2189,-1.77276 c -0.103,-1.8344 -0.51101,-4.36565 -0.90668,-5.625 -0.67997,-2.16434 -0.64137,-2.1682 0.70497,-0.0704 0.78337,1.22066 1.19137,3.75191 0.90666,5.625 l -0.51766,3.40563 -0.18729,-3.33527 z M 127.11249,137.3125 c -0.0558,-1.20312 -0.1964,-4.4375 -0.3125,-7.1875 l -0.2111,-5 -38.125001,-0.94906 C 67.495139,123.65396 41.71264,122.88936 31.169444,122.47683 L 12,121.72676 51.794444,101.14414 C 95.4929,78.542262 106.92816,72.214651 120.96389,62.86976 134.02943,54.170817 150.8277,41.566682 150.90193,40.406561 151.05936,37.945732 142.08896,37.299126 97.213889,36.53661 70.745139,36.086855 41.39513,35.36285 31.991644,34.927711 15.006977,34.14176 14.905211,34.119229 16.536605,31.505775 17.439819,30.058849 19.413815,25.078125 20.923264,20.4375 22.432712,15.796875 24.031901,12 24.477017,12 c 0.445116,0 24.446131,3.348103 53.335587,7.440229 57.747246,8.179765 74.737236,10.005328 94.401286,10.143356 19.6472,0.137909 20.00992,0.589687 7.54491,9.397181 -11.67817,8.251538 -48.35935,32.41956 -73.16991,48.209258 -15.251794,9.706397 -26.875001,18.847076 -26.875001,21.134946 0,0.55361 0.984375,1.30994 2.1875,1.68073 2.097704,0.64649 25.026311,3.58495 38.750001,4.96608 l 6.5625,0.66043 0,-9.3161 c 0,-5.14959 0.53927,-9.31611 1.20577,-9.31611 0.66317,0 6.42881,3.00132 12.81251,6.6696 6.3837,3.66828 16.55978,9.35583 22.61353,12.63901 6.05376,3.28318 10.81829,6.15796 10.58785,6.38839 -0.7631,0.7631 -44.60022,16.803 -45.92268,16.803 -0.71334,0 -1.34261,-0.98438 -1.39838,-2.1875 z" id="path4064" inkscape:connector-curvature="0"/>
</svg>