<?xml version="1.0" encoding="UTF-8" standalone="no"?>
<!-- Created with Inkscape (http://www.inkscape.org/) -->
<svg xmlns:dc="http://purl.org/dc/elements/1.1/" xmlns:cc="http://creativecommons.org/ns#" xmlns:rdf="http://www.w3.org/1999/02/22-rdf-syntax-ns#" xmlns:svg="http://www.w3.org/2000/svg" xmlns="http://www.w3.org/2000/svg" xmlns:sodipodi="http://sodipodi.sourceforge.net/DTD/sodipodi-0.dtd" xmlns:inkscape="http://www.inkscape.org/namespaces/inkscape" id="svg2" version="1.1" inkscape:version="0.48+devel r12701" width="285.68668" height="499.6116" viewBox="0 0 285.68668 499.6116" sodipodi:docname="i.svg">

  <metadata id="metadata8">
    <rdf:RDF>
      <cc:Work rdf:about="">
        <dc:format>image/svg+xml</dc:format>
        <dc:type rdf:resource="http://purl.org/dc/dcmitype/StillImage"/>
        <dc:title>ASL letter</dc:title>
        <dc:date>11/11/2013</dc:date>
        <dc:creator>
          <cc:Agent>
            <dc:title>edited by Paul Sherman</dc:title>
          </cc:Agent>
        </dc:creator>
        <dc:rights>
          <cc:Agent>
            <dc:title>PD</dc:title>
          </cc:Agent>
        </dc:rights>
        <dc:publisher>
          <cc:Agent>
            <dc:title>WPClipart</dc:title>
          </cc:Agent>
        </dc:publisher>
        <dc:subject>
          <rdf:Bag>
            <rdf:li>sign</rdf:li>
            <rdf:li>language</rdf:li>
            <rdf:li>letter</rdf:li>
            <rdf:li>american</rdf:li>
          </rdf:Bag>
        </dc:subject>
        <cc:license rdf:resource="http://creativecommons.org/publicdomain/zero/1.0/"/>
      </cc:Work>
      <cc:License rdf:about="http://creativecommons.org/publicdomain/zero/1.0/">
        <cc:permits rdf:resource="http://creativecommons.org/ns#Reproduction"/>
        <cc:permits rdf:resource="http://creativecommons.org/ns#Distribution"/>
        <cc:permits rdf:resource="http://creativecommons.org/ns#DerivativeWorks"/>
      </cc:License>
    </rdf:RDF>
  </metadata>
  <defs id="defs6"/>
  <sodipodi:namedview pagecolor="#ffffff" bordercolor="#666666" borderopacity="1" objecttolerance="10" gridtolerance="10" guidetolerance="10" inkscape:pageopacity="0" inkscape:pageshadow="2" inkscape:window-width="1235" inkscape:window-height="994" id="namedview4" showgrid="false" fit-margin-top="12" fit-margin-left="12" fit-margin-bottom="12" fit-margin-right="12" inkscape:zoom="0.71617608" inkscape:cx="-15.487335" inkscape:cy="108.14265" inkscape:window-x="0" inkscape:window-y="0" inkscape:window-maximized="0" inkscape:current-layer="svg2"/>
  <path style="fill:#000000" d="m 51.935952,480.09676 c 1.79941,-3.56988 3.653248,-8.57617 5.317878,-14.32047 2.80305,-9.67276 3.977642,-10.5138 3.609682,-31.87536 -0.21852,-12.68583 -1.356139,-32.12706 -2.169262,-41.68325 l -4.386332,-16.00371 -8.44281,-25.7038 C 41.38731,336.87769 34.002074,331.93601 32.94999,326.00327 l -2.511524,-14.16258 -1.50006,-22.84166 c -0.711508,-10.83426 -2.10588,-44.41831 -3.220222,-59.98774 -1.283668,-17.93524 -0.17273,-17.27034 -2.475994,-34.53988 L 21.290406,179.8372 20.228807,165.91602 C 16.8416,121.49817 11.999046,95.708478 12.82944,81.058643 14.874944,44.971804 12.819154,38.612821 15.615749,32.265406 18.699302,25.266689 26.442319,17.452354 33.711659,14.002825 36.033009,12.901271 40.862129,12 44.443039,12 c 6.33353,0 6.71077,0.207618 13.85992,7.628167 8.65251,8.980974 9.00149,10.055215 11.7347,36.121833 1.11734,10.65625 3.73538,26.96875 5.81786,36.25 2.17175,9.67918 4.04625,22.20523 4.39591,29.375 0.7672,15.73127 1.27607,17.4026 3.80589,12.5 4.37866,-8.48551 6.8141,-9.86481 22.247161,-12.59958 17.7907,-3.15252 24.14444,-1.67233 27.02584,6.29604 l 1.57132,4.34543 4.49218,-8.39595 c 6.15023,-11.4949 11.49546,-14.21814 29.47736,-15.01788 11.4174,-0.50778 13.50146,-0.26155 18.57555,2.19478 3.14341,1.5217 6.8839,4.40787 8.31219,6.41372 l 2.59689,3.64699 6.21457,-6.79974 c 7.38135,-8.07637 11.99399,-9.8932 24.51318,-9.65524 10.74208,0.20418 15.72248,2.03454 22.70787,8.34542 4.75381,4.29477 5.13805,5.12426 5.13805,11.09176 0,13.52204 2.72132,28.06244 8.6811,46.38425 5.46469,16.79979 6.20379,20.44019 7.10596,35 1.78512,28.80931 1.32648,35.9868 -3.23486,50.625 -3.92342,12.59099 -4.12211,14.2295 -4.88351,40.27167 l -0.79369,27.14668 -6.875,6.99409 c -3.78125,3.84675 -13.89817,12.44323 -22.48206,19.10332 -18.22423,14.13985 -24.36214,20.2223 -30.59208,30.31559 -9.22754,14.94981 -8.90981,29.27109 1.62563,73.2711 6.29042,26.27129 6.7973,32.89755 2.51649,32.89755 -5.34268,0 -10.77513,-3.4477 -12.11937,-7.69154 -4.38657,-13.84861 -8.30515,-36.61821 -11.52977,-66.99596 -0.82102,-7.73438 2.25152,-19.93653 2.04159,-19.93653 -0.20991,0 -2.49574,0.55563 -4.28192,1.23472 -8.93784,2.6508 -17.21498,4.93699 -27.58521,3.71187 -10.88106,-3.23133 -27.84285,-9.98615 -38.95304,-30.32256 -9.10912,-16.67358 -10.71906,-25.64024 -5.91264,-39.90792 2.88033,-8.5501 8.64596,-21.01832 14.91473,-26.91174 7.47453,-7.02702 3.2969,-9.10247 -6.16066,-7.91277 -10.66423,1.34151 -14.99339,0.53883 -21.150751,-3.92155 -6.05456,-4.3859 -7.40165,-8.99584 -12.19755,-41.74222 -1.9197,-13.10761 -4.77908,-26.91435 -6.94944,-33.55591 -3.8796,-11.87204 -5.85865,-25.82828 -9.27724,-65.42289 -1.06845,-12.375 -3.31606,-29.53125 -4.9947,-38.125 -1.67862,-8.59375 -3.67846,-19 -4.44408,-23.125 C 58.631789,81 57.569279,68.90625 57.036259,58.25 56.305319,43.637051 55.521589,37.799699 53.847569,34.5 c -3.74245,-7.376791 -5.56026,-8.75 -11.58298,-8.75 -11.48027,0 -14.960979,9.615685 -18.291009,30.570741 -0.913358,5.747535 0.01549,9.970503 -0.531783,16.938936 -1.493724,19.019599 1.378474,39.400483 2.170817,51.877573 0.249092,3.92247 2.945735,23.38338 4.961915,31.97713 0.984525,15.05552 2.992391,20.50718 5.347781,31.97304 -0.52343,3.4375 2.950149,9.10008 2.926019,9.78758 -0.0241,0.6875 1.264915,0.55086 3.663365,0.89461 6.6879,0.95852 -0.822815,6.41678 -3.916874,9.56541 -5.129077,5.21954 -4.347781,4.56527 -3.750831,7.55003 0.36772,1.83861 1.35396,8.38226 2.19163,14.54144 0.83768,6.15918 1.67945,11.39336 1.87061,11.6315 0.19116,0.23815 2.77772,-1.22963 5.7479,-3.26172 8.42671,-5.76522 13.43746,-7.99263 16.08782,-7.15145 4.46278,1.41644 2.77998,5.30929 -4.23486,9.79663 -3.6698,2.34755 -8.71066,6.75574 -11.2019,9.79596 l -4.52953,5.52769 -0.98559,17.60102 c -0.54207,9.68057 -0.66045,23.4303 -0.26306,30.55495 l 4.970906,23.41145 4.877539,9.11764 c 8.673799,16.21405 8.119822,18.71662 10.557564,24.45742 3.897836,9.17927 4.275971,8.24081 6.888332,18.49806 2.630067,10.32677 3.132267,14.482 5.253867,17.4615 2.923048,4.10503 4.862332,2.10657 19.474252,-0.10142 3.08096,-0.46556 4.29642,-0.0405 5.3125,1.85813 1.79575,3.3554 -1.607404,6.04588 -3.512964,5.40717 -0.85938,-0.28805 -0.794139,3.59214 -4.544526,3.03722 -9.424532,-1.39449 -9.765312,2.25924 -11.265842,2.26596 -3.90067,0.0175 -5.020675,3.58602 -5.355645,27.07227 -0.20077,14.07558 -0.639672,21.66199 -2.042792,27.58454 -1.14015,4.8125 -1.384321,16.01276 -1.384321,16.01276 2.740554,0.52449 -4.83468,2.49623 -9.727,2.49623 -1.39015,0 1.926446,-2.9372 0.580076,-1.73407 -2.06616,1.84635 -10.434433,2.80925 -7.673003,-2.66917 z M 172.37929,384.93835 c 7.46615,-2.3158 14.03225,-4.49325 14.59133,-4.83877 0.55908,-0.34554 1.38537,-2.30763 1.8362,-4.36022 2.44917,-11.15104 32.96111,-25.80729 49.23431,-44.15293 l 13.42937,-10.07222 1.66766,-26.59061 c 1.25356,-19.98787 1.32866,-31.7028 3.95182,-40.26484 3.02666,-9.87912 3.5895,-13.876 3.5895,-25.49024 l 0,-13.77398 -5.90611,-7.00978 c -3.24835,-3.85536 -9.15197,-10.17987 -13.11912,-14.05445 -6.04405,-5.903 -8.17622,-7.1884 -13.1564,-7.93146 -3.26885,-0.48773 -7.85876,-1.68475 -10.19978,-2.66005 l -4.25643,-1.77328 -9.49357,9.84959 c -9.72998,10.09484 -16.07032,13.65823 -21.76082,12.23 -1.51771,-0.38091 -5.69692,-3.56897 -9.28713,-7.08457 -6.7697,-6.62899 -10.32064,-14.5742 -10.32064,-23.09239 0,-6.66158 9.08485,-17.5836 22.25947,-26.76086 2.27396,-1.58402 3.88032,-3.13417 3.56971,-3.44479 -0.97785,-0.97784 -18.3336,4.77049 -20.27996,6.71684 -3.19958,3.1996 -5.19898,8.17353 -7.18334,17.87025 -1.80812,8.83538 -1.78064,9.76668 0.47768,16.19201 3.29529,9.37571 8.59185,14.3001 27.73231,25.78367 18.79175,11.27438 26.72672,17.2161 31.70123,23.73803 3.37069,4.4192 3.40754,4.62742 1.11545,6.30344 -1.3037,0.95328 -3.88359,1.73326 -5.73306,1.73326 -2.94998,0 -3.53928,0.70126 -4.80138,5.71351 -0.79127,3.14243 -2.11475,11.36686 -2.94105,18.27653 -1.73822,14.53525 -3.21765,16.19935 -8.63386,9.71161 l -3.5332,-4.23221 0,5.29321 c 0,4.46815 -0.80691,6.16861 -5.1768,10.90937 -5.87764,6.37649 -20.35193,14.1338 -28.38166,15.21082 -4.86305,0.65227 -5.60879,0.31897 -11.39404,-5.09244 -3.40471,-3.18472 -6.64884,-5.7904 -7.20915,-5.7904 -4.37054,0 -13.66346,10.76213 -22.0742,27.03204 -6.25189,12.09378 -9.53641,21.68349 -3.39959,33.3358 10.14696,19.26659 22.15842,28.98522 30.11234,33.09224 4.32386,2.23262 4.72804,5.13733 22.97291,-0.52173 z m 3.62021,-101.28512 c 2.65617,-1.84073 5.49891,-4.51261 6.31719,-5.9375 0.99147,-1.72647 1.51084,-10.09669 1.55688,-25.09073 0.038,-12.375 0.48348,-23.38906 0.98996,-24.4757 0.69005,-1.48047 -0.85298,-3.15346 -6.15598,-6.67445 -12.09225,-8.0288 -17.56593,-14.02006 -24.46752,-26.78114 -7.4766,-13.82425 -7.82985,-16.92968 -4.07592,-35.83186 1.67812,-8.44985 3.02644,-11.96115 5.81077,-15.13231 5.40755,-6.15886 15.69791,-10.72823 24.97679,-11.09075 4.43346,-0.17323 7.94381,-0.91178 8.21608,-1.72863 0.26148,-0.7844 -2.5258,-2.82332 -6.19393,-4.53096 -7.96823,-3.70945 -21.38115,-4.31202 -27.34415,-1.22844 -8.45875,4.37419 -12.40594,19.50254 -12.43172,47.6469 -0.0161,17.63793 0.36058,21.48604 2.99813,30.625 6.54784,22.68783 6.84629,24.39845 5.21855,29.91125 -1.21663,4.12043 -1.17479,6.77254 0.21235,13.46125 1.62557,7.83849 1.58042,10.27993 -0.40089,21.67821 -1.0285,5.91682 1.26892,12.80677 5.33745,16.00708 4.78535,3.76416 13.33571,3.40025 19.43596,-0.82722 z m -20.32002,-24.68751 c 0,-7.52185 8.85904,-11.99933 19.375,-9.79242 4.45065,0.93402 5.04304,1.4903 5.3917,5.06301 0.43192,4.42594 0.70977,4.31095 -9.7667,4.04184 -5.37579,-0.1381 -7.47691,0.38475 -9.63524,2.39762 -3.92604,3.66148 -5.36476,3.20288 -5.36476,-1.71005 z m -25,15.60965 c 1.71875,-1.19913 4.35715,-3.99016 5.86312,-6.2023 2.59143,-3.80657 2.71439,-5.10626 2.2952,-24.26006 -0.24361,-11.1309 -1.05987,-22.20676 -1.81392,-24.61301 -2.24936,-7.17798 -6.40016,-33.23611 -7.65308,-48.04496 -1.50931,-17.8394 -4.37538,-30.87618 -7.53313,-34.26563 -2.06135,-2.21258 -3.92705,-2.68941 -10.52306,-2.68941 -11.454231,0 -13.497641,1.32961 -19.359561,12.59695 -8.9441,17.19168 -9.42389,34.96705 -1.60007,59.27805 3.77909,11.74277 4.65763,16.80795 6.01823,34.69775 2.13126,28.02272 4.490901,33.01889 16.957421,35.90479 5.73006,1.32646 13.55809,0.24257 17.34885,-2.40217 z m -28.26995,-24.37736 c -2.464081,-6.42126 4.06535,-11.12522 16.30019,-11.74306 9.85602,-0.4977 14.46976,0.96552 14.46976,4.58903 0,3.86816 -2.75546,5.20602 -10.72235,5.20602 -4.24729,0 -9.74171,0.84375 -12.20985,1.875 -5.59161,2.33632 -6.96433,2.34911 -7.83775,0.073 z m 97.85118,-12.88551 c -2.53133,-3.47759 -3.32623,-1.01348 -3.22589,10 l 0.10537,11.5625 2.12894,-10 c 1.32345,-6.21644 1.69862,-10.59118 0.9916,-11.5625 z m -4.8622,-56.83224 c 4.62328,-4.27335 8.56899,-8.13744 8.76826,-8.58685 0.27507,-0.62041 -5.18953,-10.5524 -8.14571,-14.80494 -0.20513,-0.2951 -2.29545,0.38023 -4.64514,1.50073 -4.63854,2.21196 -14.44644,14.1941 -14.44644,17.64896 0,4.7082 5.40839,11.82925 9.09402,11.97383 0.53298,0.0209 4.75173,-3.45837 9.37501,-7.73173 z m 55.93802,-8.79276 C 248.12214,162.38967 245.202,150.79664 243.90225,142.17327 240.65487,120.62784 241.80635,122 226.97319,122 l -12.51817,0 -4.43454,6.67889 c -7.75548,11.6806 -7.30125,15.42471 3.784,31.19105 4.40855,6.2702 5.81324,7.35086 11.875,9.13576 8.84431,2.60425 19.28967,8.14724 25.625,13.59831 2.75,2.36616 5.0733,4.32324 5.1629,4.34905 0.0896,0.0259 -2.21929,-6.84369 -5.13085,-15.26556 z M 36.894129,121.28204 c -0.66806,-1.75714 -1.21465,-3.99383 -1.21465,-4.97042 0,-2.72965 14.10937,-9.31162 19.96077,-9.31162 4.50203,0 5.20758,0.42791 6.69849,4.0625 l 1.66643,4.0625 -6.35034,0.75933 c -3.77137,0.45095 -9.02984,2.34991 -12.9482,4.67591 l -6.59784,3.91657 z" id="path4064" inkscape:connector-curvature="0" sodipodi:nodetypes="sssscsscssscsssssssssssscsssscsssssssscssssssssccsssssssssssssssscccsssscsssscsscssssscsssssssssscsscssscsssscssssscsssssssssscsssssssssssssssssscssssssssssssssssssssssssssssssssscscsccsccsscsssscsssscssssscsscs"/>
</svg>