<?xml version="1.0" encoding="UTF-8" standalone="no"?>
<!-- Created with Inkscape (http://www.inkscape.org/) -->
<svg xmlns:dc="http://purl.org/dc/elements/1.1/" xmlns:cc="http://creativecommons.org/ns#" xmlns:rdf="http://www.w3.org/1999/02/22-rdf-syntax-ns#" xmlns:svg="http://www.w3.org/2000/svg" xmlns="http://www.w3.org/2000/svg" xmlns:sodipodi="http://sodipodi.sourceforge.net/DTD/sodipodi-0.dtd" xmlns:inkscape="http://www.inkscape.org/namespaces/inkscape" id="svg2" version="1.1" inkscape:version="0.48+devel r12701" width="243.99614" height="495.45544" viewBox="0 0 243.99614 495.45544" sodipodi:docname="f.svg">

  <metadata id="metadata8">
    <rdf:RDF>
      <cc:Work rdf:about="">
        <dc:format>image/svg+xml</dc:format>
        <dc:type rdf:resource="http://purl.org/dc/dcmitype/StillImage"/>
        <dc:title>ASL letter</dc:title>
        <dc:date>11/11/2013</dc:date>
        <dc:creator>
          <cc:Agent>
            <dc:title>edited by Paul Sherman</dc:title>
          </cc:Agent>
        </dc:creator>
        <dc:rights>
          <cc:Agent>
            <dc:title>PD</dc:title>
          </cc:Agent>
        </dc:rights>
        <dc:publisher>
          <cc:Agent>
            <dc:title>WPClipart</dc:title>
          </cc:Agent>
        </dc:publisher>
        <dc:subject>
          <rdf:Bag>
            <rdf:li>sign</rdf:li>
            <rdf:li>language</rdf:li>
            <rdf:li>letter</rdf:li>
            <rdf:li>american</rdf:li>
          </rdf:Bag>
        </dc:subject>
        <cc:license rdf:resource="http://creativecommons.org/publicdomain/zero/1.0/"/>
      </cc:Work>
      <cc:License rdf:about="http://creativecommons.org/publicdomain/zero/1.0/">
        <cc:permits rdf:resource="http://creativecommons.org/ns#Reproduction"/>
        <cc:permits rdf:resource="http://creativecommons.org/ns#Distribution"/>
        <cc:permits rdf:resource="http://creativecommons.org/ns#DerivativeWorks"/>
      </cc:License>
    </rdf:RDF>
  </metadata>
  <defs id="defs6"/>
  <sodipodi:namedview pagecolor="#ffffff" bordercolor="#666666" borderopacity="1" objecttolerance="10" gridtolerance="10" guidetolerance="10" inkscape:pageopacity="0" inkscape:pageshadow="2" inkscape:window-width="1411" inkscape:window-height="982" id="namedview4" showgrid="false" fit-margin-top="12" fit-margin-left="12" fit-margin-bottom="12" fit-margin-right="12" inkscape:zoom="1.16" inkscape:cx="117.24796" inkscape:cy="300.87693" inkscape:window-x="0" inkscape:window-y="0" inkscape:window-maximized="0" inkscape:current-layer="svg2"/>
  <path style="fill:#000000" d="m 40.78553,482.50839 c -1.33453,-0.98206 -3.4107,-1.78557 -4.61373,-1.78557 -3.26053,0 -3.76381,-1.76014 -1.83846,-6.42971 1.0698,-2.5946 2.06626,-12.06463 2.61165,-24.82029 0.48502,-11.34375 1.62725,-25.6875 2.53829,-31.875 l 1.65643,-11.25 c -3.99086,-9.45412 -8.59981,-17.87321 -8.59981,-17.87321 -1.05792,-11.65695 -1.56863,-6.49416 -6.8173,-23.41445 -3.119,-10.05483 -7.72868,-22.78656 -10.63566,-36.53125 -1.53632,-7.26399 -4.08321,-23.38448 -2.67846,-33.33444 2.19226,-15.52789 0.0296,-11.15835 1.08165,-18.7013 1.48972,-10.68065 3.14951,-30.37799 7.13563,-39.52035 3.52019,-8.07373 3.53809,-8.24758 2.83579,-27.54674 -0.66161,-18.18102 -0.51732,-19.97772 2.25855,-28.125 2.78443,-8.17232 2.88045,-9.39128 1.57405,-19.98167 -1.17289,-9.50808 -1.0434,-13.53033 0.82495,-25.625 1.21893,-7.89063 2.43688,-18.56534 2.70655,-23.72159 1.06244,-20.313704 4.81565,-27.686264 15.89441,-31.221984 4.85848,-1.55054 13.38297,-1.27155 17.57847,0.57531 2.23273,0.98285 2.29625,0.41093 1.42887,-12.866677 -0.82821,-12.677987 -0.67555,-14.374863 1.74265,-19.370203 3.02374,-6.246189 10.04575,-12.369689 18.44558,-16.085332 7.12656,-3.152419 20.12337,-2.819448 23.91587,0.612712 2.3053,2.086271 2.52376,1.879658 6.45434,-6.104485 5.57192,-11.318177 12.04825,-15.551047 23.73332,-15.511892 24.08837,0.08071 31.98679,15.800918 27.41518,54.564297 -1.16425,9.871801 -1.06089,14.05024 0.60824,24.58805 1.10595,6.98236 2.34252,16.474644 2.74793,21.093954 0.82715,9.42464 -0.41972,8.55992 14.84023,10.29175 11.01976,1.25061 14.60615,5.6497 16.19052,19.85941 0.44767,4.01495 2.27587,13.2962 4.06268,20.625 2.72415,11.17348 3.22462,15.9747 3.0995,29.7343 -0.0971,10.6819 -0.77364,18.17897 -1.9382,21.4797 -1.57064,4.45165 -1.56041,5.2602 0.0838,6.62475 4.86535,4.03789 5.83892,8.62444 5.07132,23.89118 l -0.74012,14.72034 7.47594,7.80787 c 16.37435,17.10139 16.88545,25.10249 4.14141,64.83358 -4.23324,13.19765 -4.34955,13.38476 -22.37299,35.98953 l -18.11761,22.72291 -0.0421,7.76047 c -0.0903,16.64717 -2.34592,32.7511 -6.15351,43.93245 -4.48089,13.15857 -4.55271,14.38659 -1.38084,23.6058 1.33296,3.8743 1.98332,7.31625 1.44526,7.64879 -0.53807,0.33253 -3.04872,0.26863 -5.57924,-0.14202 -8.73762,-1.41792 -13.94377,-12.76157 -9.09585,-19.81892 0.93155,-1.3561 2.9003,-5.72112 4.375,-9.70003 2.22855,-6.01287 2.68128,-9.95326 2.68128,-23.33675 l 0,-16.10235 -4.6875,1.29444 c -2.57812,0.71194 -10.97421,1.05386 -18.65796,0.75982 -13.0151,-0.49805 -10.28931,-0.84557 -18.86101,-5.08193 -12.02945,-5.94528 -24.36282,-18.46491 -30.0536,-30.50749 -3.66225,-7.7499 -4.03711,-7.05549 -4.04542,-17.83014 -0.0112,-15.24881 6.94913,-24.06135 17.78993,-34.25066 13.17842,-12.38646 23.27656,-14.00205 39.89816,-12.94366 7.97564,0.50784 7.4941,-4.76513 6.82034,-7.2025 -4.26202,-15.41813 -3.60345,-29.142 2.39176,-49.84073 2.51944,-8.69851 2.68312,-10.40727 1.21189,-12.65263 -2.9042,-4.43238 -8.89131,-19.87739 -11.24092,-28.99833 -2.119,-8.22574 -2.12753,-9.16614 -0.15429,-17.02162 1.42992,-5.69259 2.08862,-13.557 2.08862,-24.93695 0,-13.36804 0.51983,-18.33427 2.65533,-25.3681 1.46042,-4.81032 3.55432,-12.83185 4.6531,-17.82565 1.8868,-8.57519 1.86356,-9.68632 -0.41826,-20 -3.12644,-14.131314 -3.75447,-29.009905 -1.89623,-44.923418 1.16364,-9.965022 1.15663,-13.790795 -0.0321,-17.5 -3.24428,-10.12341 -12.33995,-17.864776 -19.02017,-16.188148 -4.35446,1.0929 -11.9188,11.36768 -14.23525,19.335991 -1.71973,5.915666 -1.76933,8.845015 -0.39786,23.494255 l 1.56681,16.735936 4.72301,0 c 4.59413,0 14.49179,3.77026 13.22584,5.81861 -0.34161,0.55274 -8.26245,0.51316 -11.28001,0.96567 l -5.48647,0.82275 -0.69572,6.50898 c -0.38264,3.579954 -1.30971,18.040244 -2.06012,32.133994 -0.75042,14.09375 -2.25279,30.45862 -3.3386,36.3664 -1.89246,10.29667 -1.86213,11.33175 0.73257,25 1.48873,7.84222 3.00182,15.47309 3.36242,16.95746 0.51647,2.126 -0.71753,3.78429 -5.8136,7.8125 -3.55808,2.8125 -6.98123,5.11364 -7.60699,5.11364 -1.78864,0 -1.33098,-4.16788 0.7902,-7.19628 1.75144,-2.50052 1.70044,-3.7105 -0.55712,-13.21606 -4.15725,-17.5042 -4.31095,-21.49931 -1.5241,-39.61259 1.42587,-9.26753 3.19243,-29.84823 3.92568,-45.73489 1.23401,-26.736094 1.14329,-30.162614 -1.21961,-46.061825 -1.40404,-9.447351 -2.5528,-17.691827 -2.5528,-18.321054 0,-0.629228 -1.82813,-2.25868 -4.0625,-3.621005 -4.92859,-3.005018 -14.50463,-3.291467 -19.72841,-0.590141 -6.00087,3.103163 -7.206,7.086445 -7.667,25.341282 l -0.41709,16.516089 4.375,0.0174 c 2.40625,0.01 5.21875,0.58138 6.25,1.27073 1.58569,1.05997 1.34384,1.72348 -1.56743,4.30015 -1.89333,1.67573 -5.49289,3.43145 -7.99902,3.9016 l -4.55659,0.85482 0.80695,17.638394 c 0.44381,9.70113 0.809,22.84153 0.81151,29.2009 l 0.005,11.5625 5,0 c 3.27677,0 13.62069,-0.30037 13.62069,0.76772 0,1.98298 -16.30002,10.48228 -18.29393,10.48228 -2.86051,0 -2.94932,2.7585 -0.45337,14.08158 1.39948,6.34888 2.719,17.19719 2.93226,24.10738 l 0.38775,12.56395 -4.84744,3.68605 c -6.6119,5.02777 -14.73575,9.37219 -16.02987,8.57238 -2.28235,-1.41058 -0.85858,-4.83715 3.79811,-9.14085 4.72743,-4.36908 4.8895,-4.79984 5.76335,-15.31893 0.74398,-8.9557 0.49779,-11.97556 -1.4267,-17.5 -2.08134,-5.97467 -2.28575,-10.09741 -1.94436,-39.21684 0.33841,-28.86713 -0.82346,-50.395854 -3.03016,-56.146434 -1.00095,-2.60843 -4.77994,-3.52569 -10.52592,-2.55491 -4.68542,0.7916 -5.03975,1.173 -6.77101,7.28846 -1.00476,3.549244 -2.44559,12.263664 -3.20184,19.365384 -0.75623,7.10173 -2.13103,19.03392 -3.05512,26.51599 -1.87304,15.16561 -1.03558,22.08261 3.0001,24.77944 2.55095,1.70466 8.58462,0.85187 5.5688,4.43594 -4.95513,5.88887 -12.13358,15.15956 -10.86334,36.35641 0.87556,14.61061 0.76469,19.638 -0.50219,22.77235 -2.33613,5.77974 -2.07139,6.60265 2.12419,6.60265 5.02216,0 4.94889,3.20949 -0.13689,5.99564 -8.76216,4.80019 -9.39907,7.07954 -11.24337,23.68598 -1.78366,16.06043 -2.87716,7.6989 -1.37336,29.41771 2.16344,31.2458 4.54048,35.81776 6.9085,44.04704 3.69576,12.84344 4.0366,18.46553 9.68413,32.70139 5.97355,15.05764 5.9997,19.10824 14.60953,28.13475 5.89741,6.18282 6.93649,8.01095 7.48064,13.16133 l 0.63191,5.98116 -4.41518,-4.19589 c -4.09384,-3.89051 -4.50547,-4.02697 -5.65592,-1.875 -3.17809,5.94479 -5.28344,17.75368 -6.54235,36.69589 -0.75391,11.34375 -1.75368,22.97539 -2.22169,25.84807 -0.7991,4.90482 -0.9988,5.11428 -3.27736,3.4375 z m 117.94675,-88.11912 c 8.7635,-2.01999 17.02175,-10.4023 39.387,-39.97873 14.26107,-18.85923 19.00031,-28.93981 22.74409,-48.37768 3.31517,-17.2126 2.38508,-20.66755 -4.76939,-17.71669 -2.27261,0.93735 -6.60709,3.97167 -9.63215,6.74296 l -5.50012,5.03869 0.89637,-5 c 1.49331,-8.32989 4.65432,-13.4545 9.22222,-14.951 l 4.11836,-1.34924 -3.90729,-3.72487 c -2.14902,-2.04869 -4.82668,-5.27177 -5.95037,-7.16239 -1.17665,-1.97972 -3.12151,-3.42586 -4.58607,-3.41005 -4.45339,0.0481 -12.43435,4.43195 -16.50143,9.06409 -3.62832,4.13244 -4.08117,4.31932 -5.77604,2.38372 -3.23352,-3.6928 -5.89052,-9.98461 -5.89052,-13.94883 0,-5.39353 6.47334,-17.61603 11.81284,-22.30418 5.12417,-4.49907 9.17956,-5.83628 14.48315,-4.77555 4.19841,0.83968 4.98212,-1.07586 1.51651,-3.70664 -2.88435,-2.18954 -9.59801,-2.17818 -13.81208,0.0234 -11.90296,6.2184 -21.87851,28.61441 -22.04213,49.4866 -0.0986,12.58807 2.75525,19.91061 12.30747,31.57825 4.41229,5.38944 5.79804,8.06217 5.50325,10.61431 -0.6146,5.3208 -4.24803,5.01202 -9.80884,-0.8336 -2.67301,-2.80996 -5.63692,-5.109 -6.58644,-5.109 -2.07369,0 -8.37373,11.1427 -8.37373,14.81039 0,1.42839 1.125,5.45121 2.5,8.93961 2.55574,6.48396 3.36111,15 1.41858,15 -2.736,0 -7.55893,-5.52088 -11.3532,-12.99619 -5.20887,-10.26229 -4.90362,-14.23291 2.20677,-28.70551 0.29094,-0.59218 -3.89815,-0.85851 -9.30909,-0.59185 -8.09419,0.39889 -11.35549,1.24021 -18.39859,4.74635 -9.62422,4.79105 -19.91447,13.43094 -22.92098,19.2449 -2.34632,4.53727 -2.48802,17.53466 -0.26603,24.40267 5.47989,16.938 17.1898,29.58084 30.28751,32.7005 5.85645,1.39493 20.66558,1.32114 26.98037,-0.13442 z m 36.94337,-134.90265 c 2.98306,-1.13416 3.20068,-1.66863 2.41963,-5.94253 -1.12928,-6.17941 -2.70926,-10.32127 -3.93723,-10.32127 -0.54492,0 -3.02995,1.38566 -5.52229,3.07924 -5.08942,3.45836 -10.2632,12.82136 -9.08132,16.43456 0.42479,1.29866 0.99386,3.09531 1.26461,3.99256 0.34766,1.15211 2.12074,0.51095 6.0355,-2.18249 3.04879,-2.09761 7.01828,-4.37464 8.8211,-5.06007 z m -11.84466,-36.88683 c 8.62712,-2.86547 9.06476,-3.75208 6.52103,-13.21128 l -2.16227,-8.04069 -5.98546,-1.15804 c -8.38002,-1.62131 -12.0877,-0.0348 -14.19752,6.07515 -0.93388,2.7044 -2.53537,5.84245 -3.55889,6.97343 -2.41235,2.66562 -2.35813,3.56182 0.71202,11.76755 l 2.57298,6.87687 5.01729,-3.6345 c 2.7595,-1.99897 7.74587,-4.54079 11.08082,-5.64849 z m -18.56175,-23.65961 c 2.81131,-4.63575 4.09411,-5.58655 8.55372,-6.34 6.88917,-1.16391 18.27568,0.31291 20.63973,2.67696 1.03084,1.03084 1.91379,3.09969 1.96211,4.59747 0.0849,2.63136 0.12413,2.63888 1.16214,0.22321 1.48073,-3.44583 1.51345,-19.45713 0.0487,-23.87597 -0.66066,-1.99322 -2.03734,-10.23575 -3.05929,-18.31674 -2.57669,-20.375 -3.03881,-21.13975 -14.11187,-23.35311 -16.32885,-3.26393 -18.50496,-0.19673 -17.23737,24.29582 0.64043,12.37419 0.36718,18.93325 -1.14563,27.5 -2.16899,12.28254 -2.51177,18.1468 -1.05714,18.08549 0.51562,-0.0217 2.42579,-2.49364 4.2448,-5.49313 z" id="path4064" inkscape:connector-curvature="0" sodipodi:nodetypes="cssssccsssssssssssssssssssssssssssscssscssscsssscsssscsssssssssssssssscssscssssssssssssssssccssscsccssssscssssssssssssssssssssssscsssscccsssscsscsssssssssssssssssssssssssccsssssssssscsssscsscsssccssssccc"/>
  <path style="fill:#000000;fill-opacity:1;stroke:#000000;stroke-width:4.4000001;stroke-linecap:butt;stroke-linejoin:miter;stroke-miterlimit:4;stroke-opacity:1;stroke-dasharray:none" d="m 192.29591,171.87642 -6.99292,-1.26677 c 0.32847,5.41501 -15.59155,-0.35778 -15.98105,1.51668 0,0 5.46143,1.1487 -1.04786,1.1487 l 3.34526,-5.74349 c 0.3829,0 17.0738,3.40879 17.0738,3.79169 0,0.3829 -16.73133,-3.96293 -17.0738,-3.79169 -0.48434,0.24216 7.09049,1.41408 6.84832,1.89841 -0.17124,0.34248 -8.37293,0.32616 -7.99702,0.39898 3.97767,0.77056 2.84981,1.13262 2.84981,0.74972 0,-0.3829 -2.63742,-1.06831 -2.84981,-0.74972 -0.90111,1.35167 4.14848,3.43491 -0.79191,3.06693" id="path4066" inkscape:connector-curvature="0" sodipodi:nodetypes="ccsccscssssc"/>
</svg>