<?xml version="1.0" encoding="UTF-8" standalone="no"?>
<!-- Created with Inkscape (http://www.inkscape.org/) -->
<svg xmlns:dc="http://purl.org/dc/elements/1.1/" xmlns:cc="http://creativecommons.org/ns#" xmlns:rdf="http://www.w3.org/1999/02/22-rdf-syntax-ns#" xmlns:svg="http://www.w3.org/2000/svg" xmlns="http://www.w3.org/2000/svg" xmlns:sodipodi="http://sodipodi.sourceforge.net/DTD/sodipodi-0.dtd" xmlns:inkscape="http://www.inkscape.org/namespaces/inkscape" id="svg2" version="1.1" inkscape:version="0.48+devel r12701" width="341.45093" height="450.06213" viewBox="0 0 341.45093 450.06213" sodipodi:docname="t.svg">

  <metadata id="metadata8">
    <rdf:RDF>
      <cc:Work rdf:about="">
        <dc:format>image/svg+xml</dc:format>
        <dc:type rdf:resource="http://purl.org/dc/dcmitype/StillImage"/>
        <dc:title>ASL letter</dc:title>
        <dc:date>11/11/2013</dc:date>
        <dc:creator>
          <cc:Agent>
            <dc:title>edited by Paul Sherman</dc:title>
          </cc:Agent>
        </dc:creator>
        <dc:rights>
          <cc:Agent>
            <dc:title>PD</dc:title>
          </cc:Agent>
        </dc:rights>
        <dc:publisher>
          <cc:Agent>
            <dc:title>WPClipart</dc:title>
          </cc:Agent>
        </dc:publisher>
        <dc:subject>
          <rdf:Bag>
            <rdf:li>sign</rdf:li>
            <rdf:li>language</rdf:li>
            <rdf:li>letter</rdf:li>
            <rdf:li>american</rdf:li>
          </rdf:Bag>
        </dc:subject>
        <cc:license rdf:resource="http://creativecommons.org/publicdomain/zero/1.0/"/>
      </cc:Work>
      <cc:License rdf:about="http://creativecommons.org/publicdomain/zero/1.0/">
        <cc:permits rdf:resource="http://creativecommons.org/ns#Reproduction"/>
        <cc:permits rdf:resource="http://creativecommons.org/ns#Distribution"/>
        <cc:permits rdf:resource="http://creativecommons.org/ns#DerivativeWorks"/>
      </cc:License>
    </rdf:RDF>
  </metadata>
  <defs id="defs6"/>
  <sodipodi:namedview pagecolor="#ffffff" bordercolor="#666666" borderopacity="1" objecttolerance="10" gridtolerance="10" guidetolerance="10" inkscape:pageopacity="0" inkscape:pageshadow="2" inkscape:window-width="1019" inkscape:window-height="1011" id="namedview4" showgrid="false" fit-margin-top="12" fit-margin-left="12" fit-margin-right="12" fit-margin-bottom="12" inkscape:zoom="0.78111488" inkscape:cx="159.43201" inkscape:cy="255.95011" inkscape:window-x="363" inkscape:window-y="0" inkscape:window-maximized="0" inkscape:current-layer="svg2"/>
  <path style="fill:#000000" d="m 65.230984,420.40081 c -0.98239,-22.02104 -2.60277,-29.06788 -6.05845,-38.96164 -2.06158,-5.90239 -3.29523,-10.29477 -14.159443,-20.85511 -7.072835,-6.875 -9.166812,-17.15278 -9.950246,-19.21528 -1.972462,-5.19279 -9.058487,-47.7518 -10.668594,-64.4343 -0.729892,-7.5625 -3.011236,-21.0625 -5.069652,-30 -6.747354,-29.29654 -7.302571,-32.40749 -7.32451,-41.04004 -0.03556,-13.99161 10.611957,-40.54337 27.853077,-69.45735 12.690103,-21.28175 25.000168,-32.7657 45.055438,-42.031811 10.78922,-4.98492 11.65029,-5.1129 14.85947,-2.20864 2.254146,2.03998 2.510466,1.9405 5.636966,-2.1875 1.8015,-2.37856 7.25185,-8.32871 12.11189,-13.22254 6.79765,-6.84491 10.50561,-9.51269 16.07084,-11.562504 3.97891,-1.465539 8.52732,-2.664616 10.10756,-2.664616 2.43659,0 3.18035,-1.104871 4.89474,-7.271172 2.60793,-9.380209 6.38151,-13.024045 18.20537,-17.579439 20.55624,-7.919725 33.44579,-7.727656 42.30795,0.630436 2.48003,2.338974 4.56334,4.104741 4.62956,3.923928 0.0663,-0.180814 1.45037,-2.974513 3.07584,-6.208218 4.51941,-8.990861 10.44125,-15.120866 19.13708,-19.8098 7.2414,-3.904686 8.80254,-4.262244 18.53251,-4.24463 7.76873,0.01406 12.8983,0.792925 19.08143,2.897276 11.71852,3.988255 12.39657,4.865766 11.38548,14.734594 l -0.82965,8.097844 4.86886,-3.333024 c 4.17564,-2.858459 5.78055,-3.241779 11.27188,-2.692187 7.18166,0.718768 14.24704,3.958178 23.182,10.628747 7.12641,5.32036 7.10995,5.194406 4.11201,31.475645 -2.46907,21.64492 -5.04574,36.680991 -6.86997,40.089621 -0.79275,1.48127 -5.18439,6.74627 -9.7592,11.7 -4.57482,4.95376 -11.5337,13.22567 -15.4642,18.38204 l -7.14638,9.37523 4.39963,15.53906 c 2.41978,8.54647 6.68465,23.1328 9.47746,32.41405 6.44829,21.42932 7.33484,32.08537 3.75502,45.13391 -4.83183,17.61218 -18.48722,43.52203 -37.48068,71.11609 -15.8282,22.99554 -31.23065,39.66691 -45.85869,49.63679 -16.94156,11.54666 -20.78518,20.254 -21.3946,48.46737 -0.32091,14.85725 -0.70235,17.71668 -2.54289,19.0625 -5.50694,4.02678 -5.68429,3.16065 -5.1146,-24.97916 0.31645,-15.63069 1.15291,-28.47865 2.03246,-31.21843 2.7048,-8.42536 8.80793,-14.83247 19.54002,-20.51328 11.96323,-6.33249 20.3746,-14.86625 35.33745,-35.85164 20.42522,-28.64636 40.80543,-66.13354 44.73167,-82.27903 1.90554,-7.83595 1.87879,-8.15657 -1.86305,-22.32512 -9.64416,-36.51793 -14.83245,-55.93321 -15.55634,-58.21398 -0.62308,-1.96316 -2.60146,-2.76712 -9.47113,-3.84883 -17.02999,-2.68157 -26.4304,-11.65367 -27.35055,-26.10438 -0.61188,-9.60927 1.80026,-15.48073 14.02597,-34.141121 13.46986,-20.55936 13.91793,-23.58627 4.18809,-28.29303 -12.5399,-6.06612 -12.36104,-4.534111 -2.6793,-22.94856 l 7.41532,-18.787267 10.01719,1.97819 c 2.41455,0.476825 -12.68874,0.207815 -12.44259,0.41394 0.24613,0.206125 10.53495,-3.624701 8.09074,0.398875 -4.29321,7.067392 -9.26222,28.374808 -8.55777,28.91251 1.70929,1.304701 8.55827,2.750327 9.07434,1.915333 0.36337,-0.587952 1.02353,-4.632482 1.46703,-8.987843 0.4435,-4.35536 1.56489,-10.098934 2.49195,-12.763497 2.95745,-8.500212 2.38682,-10.170821 -4.48363,-13.126411 -9.38673,-4.038059 -20.47753,-3.677369 -27.69644,0.900731 -7.3771,4.678418 -14.22093,12.812882 -18.56859,22.070339 -6.01939,12.817049 -6.95116,19.045336 -6.82562,45.625 l 0.11512,24.375001 6.75989,25.52195 6.75987,25.52195 6.875,3.68819 c 14.62328,7.84485 23.40759,18.1462 26.83388,31.46804 2.96511,11.52868 2.32317,18.89534 -2.78197,31.92487 -0.83896,2.14124 -2.52891,-7.94285 -2.6924,-16.06581 -0.13542,-6.72823 -7.8993,-23.82992 -13.94367,-30.71408 -8.82541,-10.05157 -15.95135,-10.73119 -32.41584,-3.09156 -6.75167,3.13282 -10.95586,6.6626 -24.87325,20.88325 -33.79511,34.53154 -42.72589,51.69239 -49.71561,95.53067 -1.88838,11.84357 -2.58193,13.865 -5.79594,16.89298 l -3.65087,3.43955 0.85876,-12.5 c 1.74099,-25.34141 8.90242,-50.45479 19.48914,-68.34354 2.71577,-4.58895 4.93777,-8.60226 4.93777,-8.91847 0,-0.31621 -3.23379,-0.97897 -7.1862,-1.47279 -9.06324,-1.13238 -13.49334,-3.4112 -15.98012,-8.2201 -2.20232,-4.25883 -0.89567,-4.72349 -12.50654,4.44759 -3.78744,2.99158 -5.8332,3.70032 -10.19371,3.53156 -11.137476,-0.43104 -16.985776,-18.84885 -28.010426,-32.69877 -7.15885,-8.99343 1.26893,4.80294 -11.03559,-17.12505 -3.43799,-6.12687 -4.36423,-14.51895 -5.45038,-16.80785 -4.1561,-8.75834 -8.01155,-16.83404 0.10164,-21.56683 3.22581,-1.88176 3.92835,-1.9319 5.22238,-0.37268 1.16102,1.39894 1.15202,3.33494 -0.0403,8.66268 -1.9578,8.74835 2.33276,12.8254 8.7832,25.78823 3.21653,6.46394 10.69586,18.38211 10.69586,18.38211 0,0 11.51078,22.28832 16.316816,24.88986 7.65254,4.14236 15.17368,-2.00146 20.3755,-16.16034 3.10208,-8.44359 3.36605,-10.53449 1.09166,-8.64691 -1.10105,0.91379 -2.49317,0.78678 -4.6875,-0.42765 -4.74008,-2.62335 -11.27798,-2.10347 -16.87132,1.34156 -2.75,1.69377 -5.579796,3.08247 -6.288446,3.08599 -1.66496,0.009 -4.6063,-7.73149 -3.38873,-8.91701 1.26514,-1.23183 17.162136,-4.82769 21.317236,-4.82191 1.84796,0.002 5.20166,1.12756 7.45265,2.5 2.25099,1.37242 4.36036,2.49532 4.6875,2.49532 0.32714,0 0.59479,-2.15399 0.59479,-4.78664 0,-3.38822 -2.41508,-18.90583 -6.94727,-25.58826 -4.1626,-6.13749 -4.30892,-11.54023 -9.55806,-24.70207 -4.59064,-11.51072 -2.74276,-12.84652 -7.12182,-17.90755 -2.47381,-2.85908 -5.722736,-6.75625 -7.219826,-8.66039 l -2.72197,-3.46206 -8.22134,3.72772 c -10.50935,4.76516 -21.89898,12.75468 -26.58055,18.64551 -4.33714,5.45748 -17.330624,26.75354 -22.242855,36.45564 -3.185871,6.29237 -8.136285,19.2402 -8.136285,21.28046 0,0.47354 3.173019,-0.73951 7.051151,-2.69569 4.2062,-2.12165 9.04676,-3.55667 11.997223,-3.55667 4.358002,0 5.672033,0.78025 11.051956,6.5625 3.35824,3.60937 6.11574,7.05626 6.12778,7.65976 0.0345,1.72995 -9.4084,-0.22797 -15.594515,-3.23341 -5.589586,-2.71564 -5.64449,-2.71754 -8.611714,-0.29845 -1.642445,1.33903 -6.372822,5.15581 -10.511951,8.48173 -4.139127,3.32592 -7.837345,7.2389 -8.218259,8.69552 -0.380913,1.45661 0.917995,8.86041 2.886465,16.45288 5.120998,19.75188 4.997155,36.88721 11.530506,77.15757 l 5.150597,31.74732 9.94359,22.04812 c 13.415051,20.49852 21.683131,16.74183 26.216431,18.10003 4.19911,1.25808 9.40673,2.03341 13.63958,-0.0938 6.3663,-3.19933 14.285206,-5.23797 14.285206,-5.23797 1.09835,1.29077 -11.996116,10.8575 -16.449346,12.71818 -3.32037,1.38734 -5.45675,1.52285 -8.92241,0.56594 -2.50619,-0.692 -8.88171,-0.35467 -9.14963,-0.0867 -0.26793,0.26792 -0.85957,5.67866 -0.50375,12.1034 0.47331,8.54602 1.40994,16.23287 2.15877,26.22847 1.79597,23.97308 1.07701,17.84961 -2.30414,19.39016 -1.67242,0.76201 -2.98242,-0.21123 0.23156,-0.21123 0.2075,0 -5.78112,-6.59231 -6.2525,-17.15867 z M 162.97649,216.9961 c 6.0262,-4.32938 6.17729,-4.59267 5.59838,-9.75555 -0.3922,-3.49762 0.28782,-7.81448 1.99522,-12.66588 1.42461,-4.0479 3.53741,-14.20373 4.69511,-22.5685 2.08314,-15.05144 2.0769,-15.30089 -0.60368,-24.12613 -1.48973,-4.90459 -3.53843,-9.74727 -4.55267,-10.76151 -2.2874,-2.2874 -13.50657,-4.80054 -16.52445,-3.70154 -1.22706,0.44685 -4.76227,2.8857 -7.85602,5.41966 -6.65171,5.44815 -10.62195,7.6842 -11.71065,6.59552 -2.91854,-2.91854 1.70349,-13.17829 7.80446,-17.32402 3.75325,-2.5504 5.9932,-3.04867 13.70509,-3.04867 8.29212,0 9.12733,-0.21984 8.31066,-2.1875 -0.49935,-1.20313 -3.56258,-9.5 -6.80719,-18.4375 -6.73562,-18.553811 -9.92993,-25.249401 -13.65172,-28.615281 -2.57491,-2.32867 -2.6882,-2.31675 -7.32051,0.77029 -6.66375,4.4408 -21.01633,18.75384 -23.37029,23.3059 -1.91274,3.698831 -1.84108,4.104141 2.03186,11.492611 3.53541,6.74458 4.7805,14.80892 8.00607,26.1073 l 4.33924,15.19932 c 2.4274,8.50263 9.21469,17.06268 10.41384,25.48986 0.31316,2.20077 1.63543,2.59862 11.0475,3.32397 5.88046,0.45319 11.90216,1.47178 13.38154,2.26352 4.5405,2.43 13.18926,7.89754 11.25706,17.55852 -0.61184,3.05921 -0.36921,4.53973 -2.69421,4.53973 -2.78826,0 -1.56371,-0.66665 -1.91297,-7.55811 -0.42231,-8.33302 -10.29462,-8.28797 -19.97058,-9.05379 -10.01814,-0.7929 -13.26406,1.10807 -14.23473,8.33653 -0.94952,7.07113 0.4179,12.01757 5.11457,18.50113 3.99945,5.52107 9.86071,8.06564 14.60085,6.3387 1.49317,-0.544 5.50188,-2.99136 8.90822,-5.43857 z m 39.36846,-38.23613 c 4.32632,-3.03409 5.8897,-4.91397 5.625,-6.76373 -0.52395,-3.66156 -5.00666,-3.87686 -13.01812,-0.62525 -7.27326,2.952 -9.19726,5.19281 -9.26775,10.79381 -0.0244,1.93583 -0.84818,4.92593 -1.8307,6.64468 -3.54851,6.20746 -1.7386,6.30526 5.3125,0.28707 3.95312,-3.37403 9.88371,-8.0255 13.17907,-10.33658 z m 10.95849,-33.84139 c -9.78215,-39.8965 -10.49952,-45.383641 -9.48742,-72.568411 0.84036,-22.57203 0.7837,-23.419351 -1.73445,-25.9375 -7.22153,-7.221531 -39.05984,1.602736 -43.41819,12.033731 -2.22254,5.319286 -2.14346,14.600659 0.16239,19.059669 1.01605,1.96485 4.13513,10.51504 6.93128,19.00042 2.79617,8.485401 8.78458,23.224231 13.3076,32.752951 6.6998,14.1146 8.34347,18.81733 8.87014,25.37854 0.54248,6.75811 0.96995,7.92492 2.65753,7.25382 1.10608,-0.43986 5.25282,-1.41397 9.21498,-2.16471 6.08288,-1.15257 7.88218,-1.04155 11.5625,0.71348 2.39722,1.14316 4.35858,2.61345 4.35858,3.26731 0,2.12222 2.55173,7.96655 3.19671,7.32156 0.34471,-0.34472 -2.18502,-12.09461 -5.62165,-26.11086 z m 64.03724,-2.49663 c 5.53122,-2.7721 12.1377,-8.31286 12.1377,-10.17973 0,-2.21133 -0.38655,-8.95298 -4.6795,-11.64379 l -8.48332,-5.31732 -6.42356,-0.0361 c -1.77995,-0.01 -6.07411,5.17882 -7.44911,7.04741 -2.14593,2.91624 -16.01366,10.60784 -13.26168,7.04066 l 2.87675,-3.72889 4.41513,-7.7875 c 2.16491,-3.8185 15.79239,-11.76932 18.59832,-11.12874 5.66844,1.2941 9.94948,4.34476 15.81156,10.18251 l 5.77958,5.7556 6.9273,-9.09582 c 7.81867,-10.2662 9.03037,-13.868851 11.58157,-34.434561 2.88627,-23.266726 2.75267,-24.374489 -3.49345,-28.96794 -17.14844,-12.611104 -28.3141,-4.733714 -33.5672,23.68169 -2.17169,11.7473 -5.1571,17.24371 -23.56989,43.394261 -1.75313,2.48985 -4.53692,7.58813 -4.53692,9.95026 0,7.97614 11.89893,17.88887 19.21172,17.9008 1.57426,0.003 5.23051,-1.18221 8.125,-2.63284 z" id="path4064" inkscape:connector-curvature="0" sodipodi:nodetypes="csssssssssssssssscssssscssssssscssssssssssssssssssscscsscsssssscccssssssssscsssssssssssssscssssscscssssssscssssssssssssssccssssscssssscssssssssssssssssssssssssssssccssscsssscssssssssssssccscssscssscsssssscccc"/>
</svg>