<?xml version="1.0" standalone="no"?>
<!DOCTYPE svg PUBLIC "-//W3C//DTD SVG 20010904//EN"
 "http://www.w3.org/TR/2001/REC-SVG-20010904/DTD/svg10.dtd">
<svg version="1.0" xmlns="http://www.w3.org/2000/svg"
 width="920.000000pt" height="920.000000pt" viewBox="0 0 920.000000 920.000000"
 preserveAspectRatio="xMidYMid meet">
<metadata>
Created by potrace 1.14, written by Peter Selinger 2001-2017
</metadata>
<g transform="translate(0.000000,920.000000) scale(0.100000,-0.100000)"
fill="#000000" stroke="none">
<path d="M4052 8205 c-208 -50 -376 -215 -417 -412 -12 -58 -15 -341 -15
-1853 l0 -1784 -41 39 c-78 76 -326 351 -451 500 -195 234 -319 341 -493 428
-365 182 -868 137 -974 -88 -42 -89 -55 -55 269 -720 185 -380 276 -567 345
-710 490 -1011 497 -1024 641 -1189 98 -113 143 -152 442 -378 l262 -200 0
-388 c0 -223 4 -399 10 -414 14 -39 63 -60 106 -46 66 22 64 9 64 482 0 284
-4 435 -11 450 -6 13 -65 64 -132 115 -67 50 -198 149 -292 219 -324 245 -407
350 -619 789 -277 574 -328 680 -361 750 -18 39 -83 173 -144 299 -61 126
-144 297 -183 380 -40 83 -109 225 -154 316 -45 91 -79 171 -77 177 3 7 35 27
71 45 l67 33 180 -1 c167 0 187 -2 270 -28 208 -63 348 -167 553 -411 187
-221 343 -394 487 -538 185 -186 200 -196 282 -208 286 -40 490 -99 690 -195
372 -181 575 -454 599 -806 7 -94 9 -105 35 -130 38 -39 81 -37 121 3 l31 30
-7 102 c-30 455 -295 790 -791 1002 -135 58 -301 107 -477 141 l-138 28 2
1866 3 1865 33 67 c38 77 97 134 181 175 49 24 68 28 156 28 92 0 105 -3 167
-32 81 -38 151 -107 187 -183 l26 -55 5 -1655 c5 -1576 6 -1657 23 -1705 61
-164 180 -282 344 -342 70 -26 305 -25 385 0 90 29 184 95 251 176 l27 33 22
-28 c56 -73 146 -140 237 -176 49 -20 74 -23 206 -23 171 0 214 10 312 74 104
67 176 157 224 276 l24 60 5 1655 5 1655 33 67 c38 77 97 134 181 175 50 24
68 27 161 27 97 1 110 -1 165 -29 77 -39 149 -110 183 -183 l27 -57 0 -2560 0
-2560 -26 -77 c-48 -141 -89 -200 -266 -380 l-163 -166 0 -487 c0 -314 4 -493
10 -506 6 -10 24 -26 41 -34 25 -13 37 -14 65 -5 64 22 64 19 64 511 l0 442
134 137 c180 186 248 298 303 500 16 61 18 219 21 2590 2 1883 0 2543 -8 2595
-43 258 -281 454 -551 455 -85 0 -206 -31 -278 -72 -88 -50 -182 -150 -223
-238 -20 -41 -41 -99 -47 -128 -7 -36 -11 -314 -11 -862 l0 -808 -66 43 c-90
60 -170 86 -279 92 -179 10 -340 -55 -457 -186 l-46 -51 -73 73 c-126 123
-259 174 -429 164 -115 -7 -193 -32 -283 -91 l-66 -44 -3 837 c-3 820 -4 837
-24 893 -47 128 -136 234 -255 305 -107 64 -281 89 -407 58z m1230 -2168 c73
-33 151 -110 186 -185 l27 -57 3 -635 c3 -633 3 -635 -20 -705 -18 -59 -31
-80 -82 -131 -82 -82 -140 -104 -276 -104 -76 0 -112 5 -155 21 -72 27 -153
101 -190 176 l-30 58 0 660 0 660 27 57 c45 97 148 182 252 209 61 16 197 3
258 -24z m939 -1 c83 -39 143 -96 181 -174 l33 -67 0 -660 0 -660 -30 -58
c-37 -75 -118 -149 -190 -176 -79 -30 -232 -29 -312 1 -73 27 -150 99 -189
175 l-29 58 0 660 0 660 33 67 c48 99 137 170 247 199 17 5 68 7 115 5 67 -3
97 -9 141 -30z"/>
</g>
</svg>
